M48
;GenerationSoftware,Autodesk,EAGLE,9.6.2*%
;CreationDate,2022-12-05T04:52:48Z*%
FMAT,2
ICI,OFF
METRIC,TZ,000.000
T11C0.300
T10C0.350
T9C0.600
T8C0.813
T7C1.016
T6C1.300
T5C1.680
T4C1.750
T3C1.803
T2C2.997
T1C3.700
%
G90
M71
T1
X19558Y29464
X65532Y29464
T2
X81966Y35281
X81966Y43688
T3
X69164Y35281
X69164Y39497
X69164Y43688
X74676Y35281
X74676Y39497
X74676Y43688
T4
X49022Y10818
X49022Y6858
T5
X45842Y8838
X45842Y8838
T6
X57828Y17871
X45628Y17871
X45628Y29871
X57828Y29871
X59828Y23871
X57828Y34889
X45628Y34889
X45628Y46889
X57828Y46889
X59828Y40889
T7
X32512Y3302
X14478Y27686
X29718Y45466
X29718Y42926
X29718Y40386
X29718Y37846
X29718Y35306
X29718Y32766
X29718Y30226
X29718Y27686
X29718Y25146
X32512Y13462
X32512Y10922
X32512Y8382
X32512Y5842
X29718Y22606
X14224Y12192
X16764Y12192
X19304Y12192
X21844Y12192
X14478Y45466
X14478Y42926
X14478Y40386
X14478Y37846
X14478Y35306
X14478Y32766
X14478Y30226
X29718Y20066
X14478Y25146
X14478Y22606
X14478Y20066
X14478Y17526
X29718Y17526
T8
X63754Y10414
X63754Y12954
X57658Y4318
X57658Y6858
X63754Y4318
X63754Y6858
X57658Y10414
X57658Y12954
T9
X42926Y34798
X42926Y41402
T10
X36576Y4318
X40640Y45466
X39878Y41402
X37338Y20574
X37338Y29972
X37592Y3556
X35052Y40386
T11
X48768Y37084
X37846Y24892
X45212Y24638
X52070Y26670
M30