G04 EAGLE Gerber RS-274X export*
G75*
%MOMM*%
%FSLAX34Y34*%
%LPD*%
%INTop Copper*%
%IPPOS*%
%AMOC8*
5,1,8,0,0,1.08239X$1,22.5*%
G01*
%ADD10P,1.924489X8X292.500000*%
%ADD11C,1.778000*%
%ADD12R,0.830000X0.630000*%
%ADD13R,2.705100X2.705100*%
%ADD14C,2.705100*%
%ADD15C,4.013200*%
%ADD16R,2.625000X2.625000*%
%ADD17C,2.625000*%
%ADD18C,1.879600*%
%ADD19R,1.400000X1.100000*%
%ADD20R,2.540000X2.540000*%
%ADD21C,2.540000*%
%ADD22R,0.355600X1.778000*%
%ADD23R,0.900000X0.800000*%
%ADD24R,1.100000X1.400000*%
%ADD25R,0.660400X1.270000*%
%ADD26C,0.762000*%
%ADD27C,0.554000*%
%ADD28C,0.304800*%
%ADD29C,0.508000*%
%ADD30C,0.604000*%
%ADD31C,0.203200*%
%ADD32C,0.406400*%
%ADD33C,0.254000*%
%ADD34C,2.540000*%
%ADD35C,1.270000*%
%ADD36C,0.900000*%
%ADD37C,0.152400*%

G36*
X768393Y157106D02*
X768393Y157106D01*
X768501Y157116D01*
X768514Y157122D01*
X768528Y157124D01*
X768625Y157172D01*
X768724Y157217D01*
X768737Y157228D01*
X768746Y157232D01*
X768761Y157248D01*
X768838Y157310D01*
X774870Y163342D01*
X774920Y163413D01*
X774925Y163418D01*
X774927Y163421D01*
X774933Y163430D01*
X774999Y163516D01*
X775004Y163529D01*
X775012Y163541D01*
X775043Y163644D01*
X775079Y163747D01*
X775079Y163761D01*
X775083Y163774D01*
X775079Y163882D01*
X775080Y163991D01*
X775075Y164004D01*
X775075Y164018D01*
X775037Y164120D01*
X775002Y164222D01*
X774993Y164237D01*
X774989Y164246D01*
X774975Y164263D01*
X774921Y164345D01*
X768067Y172751D01*
X769105Y174637D01*
X769113Y174659D01*
X769141Y174711D01*
X770158Y177167D01*
X770164Y177190D01*
X770186Y177245D01*
X770785Y179313D01*
X781575Y180410D01*
X781679Y180438D01*
X781785Y180463D01*
X781797Y180470D01*
X781810Y180473D01*
X781900Y180534D01*
X781993Y180591D01*
X782001Y180602D01*
X782013Y180610D01*
X782079Y180696D01*
X782148Y180780D01*
X782152Y180793D01*
X782161Y180804D01*
X782195Y180907D01*
X782234Y181008D01*
X782235Y181026D01*
X782239Y181035D01*
X782239Y181057D01*
X782248Y181155D01*
X782248Y189685D01*
X782231Y189792D01*
X782217Y189900D01*
X782211Y189912D01*
X782209Y189926D01*
X782157Y190022D01*
X782110Y190119D01*
X782100Y190129D01*
X782094Y190141D01*
X782014Y190215D01*
X781938Y190292D01*
X781926Y190298D01*
X781916Y190308D01*
X781817Y190353D01*
X781720Y190401D01*
X781702Y190405D01*
X781693Y190409D01*
X781672Y190411D01*
X781575Y190430D01*
X770785Y191527D01*
X770186Y193595D01*
X770175Y193616D01*
X770158Y193673D01*
X769365Y195589D01*
X769141Y196129D01*
X769128Y196149D01*
X769105Y196203D01*
X768067Y198089D01*
X774921Y206495D01*
X774975Y206589D01*
X775032Y206681D01*
X775035Y206694D01*
X775042Y206706D01*
X775063Y206813D01*
X775088Y206918D01*
X775086Y206932D01*
X775089Y206946D01*
X775074Y207053D01*
X775064Y207161D01*
X775058Y207174D01*
X775056Y207188D01*
X775008Y207285D01*
X774963Y207384D01*
X774952Y207397D01*
X774948Y207406D01*
X774932Y207421D01*
X774870Y207498D01*
X768838Y213530D01*
X768750Y213593D01*
X768664Y213659D01*
X768651Y213664D01*
X768639Y213672D01*
X768536Y213703D01*
X768433Y213739D01*
X768419Y213739D01*
X768406Y213743D01*
X768298Y213739D01*
X768189Y213740D01*
X768176Y213735D01*
X768162Y213735D01*
X768060Y213697D01*
X767958Y213662D01*
X767943Y213653D01*
X767934Y213649D01*
X767917Y213635D01*
X767835Y213581D01*
X759429Y206727D01*
X757543Y207765D01*
X757521Y207773D01*
X757469Y207801D01*
X755013Y208818D01*
X754990Y208824D01*
X754935Y208846D01*
X752867Y209445D01*
X751770Y220235D01*
X751742Y220339D01*
X751717Y220445D01*
X751710Y220457D01*
X751707Y220470D01*
X751646Y220560D01*
X751589Y220653D01*
X751578Y220661D01*
X751570Y220673D01*
X751484Y220739D01*
X751400Y220808D01*
X751387Y220812D01*
X751376Y220821D01*
X751273Y220855D01*
X751172Y220894D01*
X751154Y220895D01*
X751145Y220899D01*
X751123Y220899D01*
X751025Y220908D01*
X742495Y220908D01*
X742388Y220891D01*
X742280Y220877D01*
X742268Y220871D01*
X742254Y220869D01*
X742158Y220817D01*
X742061Y220770D01*
X742051Y220760D01*
X742039Y220754D01*
X741965Y220674D01*
X741888Y220598D01*
X741882Y220586D01*
X741872Y220576D01*
X741827Y220477D01*
X741779Y220380D01*
X741775Y220362D01*
X741771Y220353D01*
X741769Y220332D01*
X741750Y220235D01*
X740653Y209445D01*
X738585Y208846D01*
X738564Y208835D01*
X738507Y208818D01*
X736051Y207801D01*
X736031Y207788D01*
X735977Y207765D01*
X734091Y206727D01*
X725685Y213581D01*
X725591Y213635D01*
X725499Y213692D01*
X725486Y213695D01*
X725474Y213702D01*
X725367Y213723D01*
X725262Y213748D01*
X725248Y213746D01*
X725234Y213749D01*
X725127Y213734D01*
X725019Y213724D01*
X725006Y213718D01*
X724993Y213716D01*
X724895Y213668D01*
X724796Y213623D01*
X724783Y213612D01*
X724774Y213608D01*
X724759Y213592D01*
X724682Y213530D01*
X718650Y207498D01*
X718587Y207410D01*
X718521Y207324D01*
X718516Y207311D01*
X718508Y207299D01*
X718477Y207196D01*
X718441Y207093D01*
X718441Y207079D01*
X718437Y207066D01*
X718441Y206958D01*
X718440Y206849D01*
X718445Y206836D01*
X718445Y206822D01*
X718483Y206720D01*
X718518Y206618D01*
X718527Y206603D01*
X718531Y206594D01*
X718545Y206577D01*
X718599Y206495D01*
X725453Y198089D01*
X724415Y196203D01*
X724407Y196181D01*
X724379Y196129D01*
X723362Y193673D01*
X723356Y193650D01*
X723334Y193595D01*
X722735Y191527D01*
X711945Y190430D01*
X711841Y190402D01*
X711735Y190377D01*
X711723Y190370D01*
X711710Y190367D01*
X711620Y190306D01*
X711527Y190249D01*
X711519Y190238D01*
X711507Y190230D01*
X711441Y190144D01*
X711373Y190060D01*
X711368Y190047D01*
X711359Y190036D01*
X711325Y189933D01*
X711286Y189832D01*
X711285Y189814D01*
X711281Y189805D01*
X711282Y189783D01*
X711272Y189685D01*
X711272Y181155D01*
X711289Y181048D01*
X711303Y180940D01*
X711309Y180928D01*
X711311Y180914D01*
X711363Y180818D01*
X711410Y180721D01*
X711420Y180711D01*
X711426Y180699D01*
X711506Y180625D01*
X711582Y180548D01*
X711594Y180542D01*
X711605Y180532D01*
X711703Y180487D01*
X711800Y180439D01*
X711818Y180435D01*
X711827Y180431D01*
X711848Y180429D01*
X711945Y180410D01*
X722735Y179313D01*
X723334Y177245D01*
X723345Y177224D01*
X723362Y177167D01*
X723417Y177034D01*
X724348Y174787D01*
X724348Y174786D01*
X724379Y174711D01*
X724392Y174691D01*
X724415Y174637D01*
X725453Y172751D01*
X718599Y164345D01*
X718545Y164251D01*
X718488Y164159D01*
X718485Y164146D01*
X718478Y164134D01*
X718457Y164027D01*
X718432Y163922D01*
X718434Y163908D01*
X718431Y163894D01*
X718446Y163787D01*
X718456Y163679D01*
X718462Y163666D01*
X718464Y163653D01*
X718512Y163555D01*
X718557Y163456D01*
X718568Y163443D01*
X718572Y163434D01*
X718588Y163419D01*
X718650Y163342D01*
X724682Y157310D01*
X724770Y157247D01*
X724856Y157181D01*
X724869Y157176D01*
X724881Y157168D01*
X724984Y157137D01*
X725087Y157101D01*
X725101Y157101D01*
X725114Y157097D01*
X725222Y157101D01*
X725331Y157100D01*
X725344Y157105D01*
X725358Y157105D01*
X725460Y157143D01*
X725562Y157178D01*
X725577Y157187D01*
X725586Y157191D01*
X725603Y157205D01*
X725685Y157259D01*
X734085Y164108D01*
X735372Y163376D01*
X735391Y163369D01*
X735427Y163348D01*
X737236Y162509D01*
X737274Y162499D01*
X737310Y162480D01*
X737391Y162466D01*
X737471Y162444D01*
X737511Y162446D01*
X737550Y162440D01*
X737632Y162453D01*
X737715Y162458D01*
X737752Y162473D01*
X737791Y162479D01*
X737864Y162518D01*
X737941Y162549D01*
X737971Y162575D01*
X738007Y162594D01*
X738063Y162654D01*
X738126Y162708D01*
X738146Y162743D01*
X738174Y162772D01*
X738243Y162902D01*
X743266Y175028D01*
X743292Y175140D01*
X743321Y175252D01*
X743320Y175259D01*
X743322Y175266D01*
X743310Y175380D01*
X743301Y175495D01*
X743299Y175501D01*
X743298Y175509D01*
X743250Y175613D01*
X743205Y175719D01*
X743200Y175724D01*
X743197Y175731D01*
X743119Y175815D01*
X743042Y175900D01*
X743034Y175905D01*
X743030Y175909D01*
X743017Y175916D01*
X742918Y175981D01*
X741340Y176796D01*
X739972Y177825D01*
X738796Y179069D01*
X737845Y180493D01*
X737145Y182056D01*
X736718Y183714D01*
X736574Y185416D01*
X736754Y187322D01*
X737285Y189157D01*
X738149Y190860D01*
X739316Y192372D01*
X740745Y193639D01*
X742385Y194618D01*
X744180Y195273D01*
X746065Y195581D01*
X747974Y195533D01*
X749841Y195128D01*
X751599Y194382D01*
X753187Y193321D01*
X754550Y191982D01*
X755638Y190412D01*
X756414Y188667D01*
X756850Y186807D01*
X756932Y184899D01*
X756656Y183009D01*
X756031Y181204D01*
X755081Y179547D01*
X753838Y178096D01*
X752346Y176904D01*
X750596Y175977D01*
X750507Y175910D01*
X750417Y175845D01*
X750410Y175836D01*
X750401Y175830D01*
X750339Y175737D01*
X750274Y175647D01*
X750271Y175636D01*
X750265Y175627D01*
X750236Y175520D01*
X750203Y175414D01*
X750204Y175403D01*
X750201Y175392D01*
X750207Y175280D01*
X750211Y175170D01*
X750215Y175156D01*
X750216Y175148D01*
X750223Y175130D01*
X750254Y175028D01*
X750664Y174037D01*
X751595Y171790D01*
X751595Y171789D01*
X752526Y169542D01*
X752527Y169542D01*
X753458Y167294D01*
X754389Y165046D01*
X755277Y162902D01*
X755298Y162868D01*
X755311Y162831D01*
X755362Y162765D01*
X755406Y162695D01*
X755437Y162670D01*
X755461Y162638D01*
X755530Y162593D01*
X755594Y162540D01*
X755632Y162526D01*
X755665Y162504D01*
X755745Y162483D01*
X755823Y162454D01*
X755863Y162453D01*
X755901Y162443D01*
X755984Y162449D01*
X756066Y162446D01*
X756105Y162458D01*
X756145Y162461D01*
X756284Y162509D01*
X758093Y163348D01*
X758109Y163359D01*
X758148Y163376D01*
X759435Y164108D01*
X767835Y157259D01*
X767929Y157205D01*
X768021Y157148D01*
X768034Y157145D01*
X768046Y157138D01*
X768153Y157117D01*
X768258Y157092D01*
X768272Y157094D01*
X768286Y157091D01*
X768393Y157106D01*
G37*
G36*
X400704Y140919D02*
X400704Y140919D01*
X400726Y140923D01*
X400733Y140938D01*
X400742Y140944D01*
X400741Y140954D01*
X400748Y140970D01*
X400748Y143510D01*
X400736Y143529D01*
X400732Y143551D01*
X400717Y143558D01*
X400711Y143567D01*
X400701Y143566D01*
X400685Y143573D01*
X386715Y143573D01*
X386696Y143561D01*
X386674Y143557D01*
X386667Y143542D01*
X386658Y143536D01*
X386659Y143526D01*
X386652Y143510D01*
X386652Y140970D01*
X386664Y140951D01*
X386668Y140929D01*
X386683Y140922D01*
X386689Y140913D01*
X386699Y140914D01*
X386715Y140907D01*
X400685Y140907D01*
X400704Y140919D01*
G37*
G36*
X400704Y24079D02*
X400704Y24079D01*
X400726Y24083D01*
X400733Y24098D01*
X400742Y24104D01*
X400741Y24114D01*
X400748Y24130D01*
X400748Y26670D01*
X400736Y26689D01*
X400732Y26711D01*
X400717Y26718D01*
X400711Y26727D01*
X400701Y26726D01*
X400685Y26733D01*
X386715Y26733D01*
X386696Y26721D01*
X386674Y26717D01*
X386667Y26702D01*
X386658Y26696D01*
X386659Y26686D01*
X386652Y26670D01*
X386652Y24130D01*
X386664Y24111D01*
X386668Y24089D01*
X386683Y24082D01*
X386689Y24073D01*
X386699Y24074D01*
X386715Y24067D01*
X400685Y24067D01*
X400704Y24079D01*
G37*
D10*
X576580Y43180D03*
D11*
X576580Y68580D03*
D10*
X637540Y43180D03*
D11*
X637540Y68580D03*
D10*
X576580Y104140D03*
D11*
X576580Y129540D03*
D10*
X637540Y104140D03*
D11*
X637540Y129540D03*
D12*
X337820Y323920D03*
X337820Y300920D03*
X337820Y229940D03*
X337820Y206940D03*
D13*
X746760Y436880D03*
D14*
X746760Y394970D03*
X746760Y352806D03*
X691642Y436880D03*
X691642Y394970D03*
X691642Y352806D03*
D15*
X819658Y436880D03*
X819658Y352806D03*
D16*
X490220Y68580D03*
D17*
X490220Y108180D03*
D18*
X325120Y134620D03*
X325120Y109220D03*
X325120Y83820D03*
X325120Y58420D03*
X325120Y33020D03*
X142240Y121920D03*
X167640Y121920D03*
X193040Y121920D03*
X218440Y121920D03*
D19*
X337820Y269080D03*
X337820Y249080D03*
X358140Y269080D03*
X358140Y249080D03*
X358140Y205900D03*
X358140Y225900D03*
X358140Y363060D03*
X358140Y343060D03*
X337820Y363060D03*
X337820Y343060D03*
X358140Y299880D03*
X358140Y319880D03*
D18*
X144780Y454660D03*
X144780Y429260D03*
X144780Y403860D03*
X144780Y378460D03*
X144780Y353060D03*
X144780Y327660D03*
X144780Y302260D03*
X144780Y276860D03*
X144780Y251460D03*
X144780Y226060D03*
X144780Y200660D03*
X144780Y175260D03*
X297180Y175260D03*
X297180Y200660D03*
X297180Y226060D03*
X297180Y251460D03*
X297180Y276860D03*
X297180Y302260D03*
X297180Y327660D03*
X297180Y353060D03*
X297180Y378460D03*
X297180Y403860D03*
X297180Y429260D03*
X297180Y454660D03*
D20*
X598280Y408890D03*
D21*
X578280Y468890D03*
X456280Y468890D03*
X456280Y348890D03*
X578280Y348890D03*
D20*
X598280Y238710D03*
D21*
X578280Y298710D03*
X456280Y298710D03*
X456280Y178710D03*
X578280Y178710D03*
D22*
X416450Y116078D03*
X409950Y116078D03*
X403450Y116078D03*
X396950Y116078D03*
X390450Y116078D03*
X383950Y116078D03*
X377450Y116078D03*
X370950Y116078D03*
X370950Y56642D03*
X377450Y56642D03*
X383950Y56642D03*
X390450Y56642D03*
X396950Y56642D03*
X403450Y56642D03*
X409950Y56642D03*
X416450Y56642D03*
D23*
X363380Y464160D03*
X363380Y445160D03*
X384380Y454660D03*
X363380Y423520D03*
X363380Y404520D03*
X384380Y414020D03*
D24*
X345280Y480060D03*
X325280Y480060D03*
X345280Y424180D03*
X325280Y424180D03*
D25*
X388493Y142240D03*
X398907Y142240D03*
X388493Y25400D03*
X398907Y25400D03*
D26*
X414020Y142240D03*
X368300Y142240D03*
X365760Y25400D03*
X419100Y25400D03*
D27*
X520700Y266700D03*
D28*
X502920Y248920D01*
X454660Y248920D02*
X452120Y246380D01*
D27*
X452120Y246380D03*
D28*
X454660Y248920D02*
X502920Y248920D01*
X378300Y249080D02*
X358140Y249080D01*
X378300Y249080D02*
X378460Y248920D01*
D27*
X378460Y248920D03*
D29*
X372720Y445160D02*
X363380Y445160D01*
X372720Y445160D02*
X375920Y441960D01*
X375920Y419807D01*
X375816Y419703D01*
X375816Y416956D01*
X363380Y404520D01*
X362720Y403860D01*
X350520Y403860D01*
D30*
X350520Y403860D03*
D29*
X331978Y116078D02*
X325120Y109220D01*
X331978Y116078D02*
X370950Y116078D01*
X383950Y116078D01*
D31*
X383950Y56642D02*
X383950Y43590D01*
X375920Y35560D01*
D30*
X375920Y35560D03*
D32*
X357100Y300920D02*
X337820Y300920D01*
X357100Y300920D02*
X358140Y299880D01*
X357100Y206940D02*
X337820Y206940D01*
X357100Y206940D02*
X358140Y205900D01*
X358140Y299880D02*
X373220Y299880D01*
X373380Y299720D01*
D30*
X373380Y299720D03*
D32*
X373220Y205900D02*
X358140Y205900D01*
X373220Y205900D02*
X373380Y205740D01*
D30*
X373380Y205740D03*
D33*
X377450Y116078D02*
X383950Y116078D01*
D34*
X598280Y238710D02*
X614680Y255110D01*
X614680Y368300D01*
X641350Y394970D01*
X691642Y394970D01*
X691642Y436880D02*
X626270Y436880D01*
X598280Y408890D01*
D28*
X365920Y343060D02*
X358140Y343060D01*
X393700Y370840D02*
X487680Y370840D01*
D27*
X487680Y370840D03*
D28*
X393700Y370840D02*
X365920Y343060D01*
D35*
X335280Y58420D02*
X325120Y58420D01*
X335280Y58420D02*
X363220Y86360D01*
X408940Y86360D01*
X421640Y86360D01*
X447040Y60960D01*
X482600Y60960D01*
X490220Y68580D01*
X409950Y56642D02*
X409950Y85350D01*
X408940Y86360D01*
X576580Y68580D02*
X637540Y68580D01*
X576580Y68580D02*
X490220Y68580D01*
D33*
X409950Y56642D02*
X403450Y56642D01*
X409950Y56642D02*
X416450Y56642D01*
D35*
X542030Y298710D02*
X578280Y298710D01*
X542030Y298710D02*
X518160Y322580D01*
X518160Y388620D01*
X518160Y457200D01*
X529850Y468890D02*
X578280Y468890D01*
X529850Y468890D02*
X518160Y457200D01*
D29*
X325120Y134620D02*
X294640Y134620D01*
X279400Y119380D01*
X279400Y25400D01*
X289560Y15240D01*
X337820Y15240D01*
X355600Y60960D02*
X368300Y73660D01*
D31*
X375920Y73660D01*
X377450Y72130D01*
X377450Y56642D01*
D29*
X355600Y33020D02*
X337820Y15240D01*
X355600Y33020D02*
X355600Y60960D01*
D32*
X279400Y375920D02*
X281940Y378460D01*
X297180Y378460D01*
D35*
X307340Y388620D01*
X518160Y388620D01*
X297180Y378460D02*
X294640Y375920D01*
X266700Y375920D01*
X259080Y368300D01*
X259080Y154940D01*
X279400Y134620D01*
X325120Y134620D01*
X542030Y298710D02*
X546100Y294640D01*
X546100Y210820D01*
X546100Y142240D01*
X558800Y129540D01*
X576580Y129540D01*
X637540Y129540D01*
X675640Y210820D02*
X546100Y210820D01*
X746760Y281940D02*
X746760Y352806D01*
X746760Y281940D02*
X675640Y210820D01*
D32*
X358140Y363060D02*
X337820Y363060D01*
X322420Y363060D01*
X320040Y360680D01*
X320040Y320040D01*
X325120Y314960D01*
X353220Y314960D01*
X358140Y319880D01*
X309880Y314960D02*
X297180Y302260D01*
X309880Y314960D02*
X325120Y314960D01*
X337820Y323920D02*
X337820Y343060D01*
X337820Y249080D02*
X337820Y229940D01*
X337820Y269080D02*
X358140Y269080D01*
X322580Y276860D02*
X297180Y276860D01*
X322580Y276860D02*
X330040Y276860D01*
X337820Y269080D01*
X358140Y225900D02*
X350680Y218440D01*
X335280Y218440D01*
X322580Y231140D01*
X322580Y276860D01*
D29*
X144780Y276860D02*
X104140Y276860D01*
X88900Y261620D01*
X88900Y195580D01*
X142240Y142240D01*
X190500Y142240D01*
X193040Y139700D01*
X193040Y121920D01*
X144780Y302260D02*
X109220Y302260D01*
X76200Y269240D01*
X76200Y187960D01*
X142240Y121920D01*
D35*
X409950Y116078D02*
X429260Y135388D01*
X429260Y441870D02*
X456280Y468890D01*
X429260Y264160D02*
X429260Y135388D01*
X456280Y291180D02*
X456280Y298710D01*
X456280Y291180D02*
X429260Y264160D01*
X429260Y414020D02*
X429260Y441870D01*
D36*
X429260Y414020D03*
X429260Y347980D03*
D35*
X429260Y264160D01*
D33*
X409950Y116078D02*
X403450Y116078D01*
X409950Y116078D02*
X416450Y116078D01*
D31*
X370950Y56642D02*
X370950Y48370D01*
X365760Y43180D01*
D30*
X365760Y43180D03*
D29*
X384380Y454660D02*
X406400Y454660D01*
D30*
X406400Y454660D03*
X398780Y414020D03*
D29*
X384380Y414020D01*
D37*
X362720Y424180D02*
X345280Y424180D01*
X362720Y424180D02*
X363380Y423520D01*
X347480Y480060D02*
X345280Y480060D01*
X347480Y480060D02*
X363380Y464160D01*
D29*
X325280Y480060D02*
X325280Y482440D01*
X320040Y487680D01*
X236220Y487680D01*
X162560Y414020D02*
X162560Y256540D01*
X157480Y251460D01*
X144780Y251460D01*
X162560Y414020D02*
X236220Y487680D01*
X182880Y264160D02*
X144780Y226060D01*
X182880Y264160D02*
X218440Y264160D01*
X236220Y281940D01*
X236220Y457200D01*
X254000Y474980D01*
X325280Y454500D02*
X325280Y424180D01*
X304800Y474980D02*
X254000Y474980D01*
X304800Y474980D02*
X325280Y454500D01*
D37*
X388493Y142240D02*
X390450Y140283D01*
X390450Y116078D01*
X388493Y142240D02*
X368300Y142240D01*
X396950Y140283D02*
X396950Y116078D01*
X396950Y140283D02*
X398907Y142240D01*
X414020Y142240D01*
X396950Y56642D02*
X396950Y27357D01*
X398907Y25400D01*
X419100Y25400D01*
X390450Y27357D02*
X390450Y56642D01*
X390450Y27357D02*
X388557Y25464D01*
X388493Y25400D01*
X365824Y25464D02*
X365760Y25400D01*
X365824Y25464D02*
X388557Y25464D01*
M02*
