G04 EAGLE Gerber RS-274X export*
G75*
%MOMM*%
%FSLAX34Y34*%
%LPD*%
%INBottom Copper*%
%IPPOS*%
%AMOC8*
5,1,8,0,0,1.08239X$1,22.5*%
G01*
%ADD10P,1.924489X8X292.500000*%
%ADD11C,1.778000*%
%ADD12R,2.705100X2.705100*%
%ADD13C,2.705100*%
%ADD14C,4.013200*%
%ADD15R,2.625000X2.625000*%
%ADD16C,2.625000*%
%ADD17C,1.879600*%
%ADD18R,2.540000X2.540000*%
%ADD19C,2.540000*%
%ADD20C,0.304800*%
%ADD21C,0.554000*%
%ADD22C,0.604000*%
%ADD23C,0.900000*%
%ADD24C,1.270000*%
%ADD25C,0.203200*%
%ADD26C,0.508000*%

G36*
X697177Y5067D02*
X697177Y5067D01*
X697172Y5074D01*
X697179Y5080D01*
X697179Y26669D01*
X697166Y26686D01*
X697170Y26698D01*
X696977Y26964D01*
X697179Y28240D01*
X697176Y28245D01*
X697179Y28247D01*
X697179Y29539D01*
X697411Y29771D01*
X697413Y29784D01*
X697421Y29790D01*
X697418Y29795D01*
X697425Y29798D01*
X698233Y34903D01*
X703659Y46582D01*
X712082Y56323D01*
X722855Y63379D01*
X735151Y67207D01*
X741551Y67359D01*
X741552Y67359D01*
X747988Y67637D01*
X760591Y64616D01*
X771879Y58248D01*
X780982Y49023D01*
X787200Y37651D01*
X788377Y32434D01*
X788392Y32421D01*
X788390Y32410D01*
X788721Y32079D01*
X788721Y30916D01*
X788726Y30909D01*
X788722Y30905D01*
X788978Y29770D01*
X788728Y29375D01*
X788730Y29355D01*
X788721Y29348D01*
X788721Y5080D01*
X788757Y5033D01*
X788764Y5038D01*
X788770Y5031D01*
X845820Y5031D01*
X845867Y5067D01*
X845862Y5074D01*
X845869Y5080D01*
X845869Y495300D01*
X845833Y495347D01*
X845826Y495342D01*
X845820Y495349D01*
X58069Y495349D01*
X58021Y495313D01*
X58030Y495302D01*
X58020Y495293D01*
X58226Y493940D01*
X56844Y479803D01*
X52027Y466441D01*
X44071Y454674D01*
X33464Y445226D01*
X20860Y438678D01*
X10149Y436164D01*
X10133Y436144D01*
X10113Y436129D01*
X10116Y436125D01*
X10111Y436118D01*
X10112Y436117D01*
X10111Y436116D01*
X10111Y57912D01*
X10147Y57864D01*
X10152Y57868D01*
X10155Y57863D01*
X20577Y56844D01*
X33939Y52027D01*
X45706Y44071D01*
X55153Y33465D01*
X61702Y20860D01*
X64948Y7032D01*
X64913Y5081D01*
X64948Y5033D01*
X64956Y5039D01*
X64962Y5031D01*
X697130Y5031D01*
X697177Y5067D01*
G37*
%LPC*%
G36*
X575450Y164485D02*
X575450Y164485D01*
X570222Y166651D01*
X566221Y170652D01*
X564055Y175880D01*
X564055Y181540D01*
X565697Y185502D01*
X565685Y185547D01*
X565686Y185556D01*
X496171Y255071D01*
X493775Y257466D01*
X493775Y313256D01*
X493759Y313277D01*
X493761Y313291D01*
X488551Y318501D01*
X488526Y318504D01*
X488524Y318507D01*
X488522Y318507D01*
X488516Y318515D01*
X419956Y318515D01*
X404875Y333596D01*
X404875Y409776D01*
X404859Y409797D01*
X404861Y409811D01*
X404731Y409941D01*
X404704Y409945D01*
X404696Y409955D01*
X401163Y409955D01*
X401141Y409939D01*
X401128Y409941D01*
X400663Y409475D01*
X396897Y409475D01*
X394235Y412137D01*
X394235Y415903D01*
X396897Y418565D01*
X400663Y418565D01*
X401128Y418099D01*
X401153Y418096D01*
X401157Y418091D01*
X401159Y418091D01*
X401163Y418085D01*
X408084Y418085D01*
X413005Y413164D01*
X413005Y336984D01*
X413021Y336963D01*
X413019Y336949D01*
X423309Y326659D01*
X423336Y326655D01*
X423344Y326645D01*
X491904Y326645D01*
X501905Y316644D01*
X501905Y260854D01*
X501921Y260833D01*
X501919Y260819D01*
X571434Y191304D01*
X571460Y191301D01*
X571465Y191294D01*
X571480Y191294D01*
X571483Y191296D01*
X571488Y191293D01*
X575450Y192935D01*
X581110Y192935D01*
X586338Y190769D01*
X590339Y186768D01*
X592505Y181540D01*
X592505Y175880D01*
X590339Y170652D01*
X586338Y166651D01*
X581110Y164485D01*
X575450Y164485D01*
G37*
%LPD*%
%LPC*%
G36*
X518921Y262405D02*
X518921Y262405D01*
X516405Y264921D01*
X516405Y268479D01*
X518921Y270995D01*
X522479Y270995D01*
X523711Y269763D01*
X523737Y269760D01*
X523745Y269750D01*
X523745Y269749D01*
X681977Y269749D01*
X681998Y269765D01*
X682012Y269763D01*
X710677Y298428D01*
X710679Y298442D01*
X710688Y298449D01*
X710683Y298457D01*
X710691Y298463D01*
X710691Y425443D01*
X725177Y439929D01*
X731661Y439929D01*
X731708Y439965D01*
X731702Y439972D01*
X731710Y439978D01*
X731710Y451037D01*
X732603Y451930D01*
X760917Y451930D01*
X761810Y451037D01*
X761810Y422723D01*
X760917Y421830D01*
X732603Y421830D01*
X731710Y422723D01*
X731710Y433782D01*
X731674Y433829D01*
X731666Y433824D01*
X731661Y433831D01*
X727723Y433831D01*
X727702Y433815D01*
X727688Y433817D01*
X716803Y422932D01*
X716799Y422905D01*
X716789Y422897D01*
X716789Y295917D01*
X684523Y263651D01*
X523745Y263651D01*
X523724Y263635D01*
X523711Y263637D01*
X522479Y262405D01*
X518921Y262405D01*
G37*
%LPD*%
%LPC*%
G36*
X363877Y38635D02*
X363877Y38635D01*
X361215Y41297D01*
X361215Y44111D01*
X361199Y44133D01*
X361201Y44146D01*
X336020Y69327D01*
X334517Y70830D01*
X334517Y76291D01*
X334507Y76305D01*
X334507Y76322D01*
X334494Y76322D01*
X334481Y76339D01*
X334458Y76321D01*
X334428Y76320D01*
X334226Y76042D01*
X332898Y74714D01*
X331377Y73609D01*
X329703Y72756D01*
X327916Y72175D01*
X326060Y71881D01*
X325219Y71881D01*
X325219Y83770D01*
X325183Y83817D01*
X325176Y83812D01*
X325170Y83819D01*
X325119Y83819D01*
X325119Y83870D01*
X325083Y83917D01*
X325076Y83912D01*
X325070Y83919D01*
X313181Y83919D01*
X313181Y84760D01*
X313475Y86616D01*
X314056Y88403D01*
X314909Y90077D01*
X316014Y91598D01*
X317342Y92926D01*
X318863Y94031D01*
X320074Y94648D01*
X320083Y94666D01*
X320099Y94679D01*
X320093Y94687D01*
X320100Y94702D01*
X320071Y94716D01*
X320052Y94741D01*
X319123Y94741D01*
X317620Y96244D01*
X312144Y101720D01*
X310641Y103223D01*
X310641Y140617D01*
X312144Y142120D01*
X320025Y150001D01*
X320029Y150028D01*
X320039Y150036D01*
X320039Y325070D01*
X320003Y325117D01*
X319996Y325112D01*
X319990Y325119D01*
X307983Y325119D01*
X307946Y325091D01*
X307938Y325089D01*
X306440Y321473D01*
X303367Y318400D01*
X299353Y316737D01*
X295007Y316737D01*
X290993Y318400D01*
X287920Y321473D01*
X286257Y325487D01*
X286257Y329833D01*
X287920Y333847D01*
X290993Y336920D01*
X295007Y338583D01*
X299353Y338583D01*
X303367Y336920D01*
X306440Y333847D01*
X307938Y330231D01*
X307978Y330208D01*
X307983Y330201D01*
X323632Y330201D01*
X325121Y328712D01*
X325121Y147910D01*
X322791Y145580D01*
X322788Y145559D01*
X322776Y145540D01*
X322784Y145535D01*
X322782Y145521D01*
X322815Y145517D01*
X322844Y145500D01*
X322947Y145543D01*
X327293Y145543D01*
X331307Y143880D01*
X334380Y140807D01*
X336043Y136793D01*
X336043Y132447D01*
X334380Y128433D01*
X331307Y125360D01*
X327293Y123697D01*
X322947Y123697D01*
X318933Y125360D01*
X315860Y128433D01*
X315817Y128536D01*
X315799Y128547D01*
X315785Y128564D01*
X315778Y128559D01*
X315766Y128566D01*
X315749Y128537D01*
X315723Y128517D01*
X315723Y116749D01*
X315733Y116735D01*
X315733Y116718D01*
X315746Y116718D01*
X315759Y116701D01*
X315782Y116719D01*
X315812Y116720D01*
X316014Y116998D01*
X317342Y118326D01*
X318863Y119431D01*
X320537Y120284D01*
X322324Y120865D01*
X324180Y121159D01*
X325021Y121159D01*
X325021Y109270D01*
X325057Y109223D01*
X325064Y109228D01*
X325070Y109221D01*
X325121Y109221D01*
X325121Y109170D01*
X325157Y109123D01*
X325164Y109128D01*
X325170Y109121D01*
X337059Y109121D01*
X337059Y108280D01*
X336765Y106424D01*
X336184Y104637D01*
X335331Y102963D01*
X334226Y101442D01*
X332898Y100114D01*
X331377Y99009D01*
X330795Y98712D01*
X330794Y98711D01*
X330793Y98711D01*
X330793Y98708D01*
X330769Y98659D01*
X330785Y98651D01*
X330782Y98634D01*
X331096Y98320D01*
X339599Y89817D01*
X339599Y72955D01*
X339615Y72933D01*
X339613Y72920D01*
X364794Y47739D01*
X364819Y47736D01*
X364823Y47731D01*
X364824Y47731D01*
X364829Y47725D01*
X367643Y47725D01*
X370305Y45063D01*
X370305Y41297D01*
X367643Y38635D01*
X363877Y38635D01*
G37*
%LPD*%
%LPC*%
G36*
X575450Y334665D02*
X575450Y334665D01*
X570222Y336831D01*
X566221Y340832D01*
X564055Y346060D01*
X564055Y351720D01*
X565697Y355682D01*
X565685Y355727D01*
X565686Y355736D01*
X486081Y435341D01*
X486054Y435345D01*
X486046Y435355D01*
X417416Y435355D01*
X402335Y450436D01*
X402335Y452277D01*
X402319Y452299D01*
X402321Y452312D01*
X401855Y452777D01*
X401855Y456543D01*
X404517Y459205D01*
X408283Y459205D01*
X410945Y456543D01*
X410945Y453344D01*
X410961Y453323D01*
X410959Y453309D01*
X420769Y443499D01*
X420796Y443495D01*
X420804Y443485D01*
X489434Y443485D01*
X491829Y441089D01*
X571434Y361484D01*
X571481Y361478D01*
X571488Y361473D01*
X575450Y363115D01*
X581110Y363115D01*
X586338Y360949D01*
X590339Y356948D01*
X592505Y351720D01*
X592505Y346060D01*
X590339Y340832D01*
X586338Y336831D01*
X581110Y334665D01*
X575450Y334665D01*
G37*
%LPD*%
%LPC*%
G36*
X557537Y324611D02*
X557537Y324611D01*
X514372Y367777D01*
X514345Y367781D01*
X514337Y367791D01*
X490725Y367791D01*
X490704Y367775D01*
X490691Y367777D01*
X489459Y366545D01*
X485901Y366545D01*
X483385Y369061D01*
X483385Y372619D01*
X485901Y375135D01*
X489459Y375135D01*
X490691Y373903D01*
X490717Y373899D01*
X490725Y373889D01*
X516883Y373889D01*
X560048Y330723D01*
X560075Y330719D01*
X560083Y330709D01*
X641337Y330709D01*
X641358Y330725D01*
X641372Y330723D01*
X666757Y356109D01*
X676687Y356109D01*
X676724Y356137D01*
X676732Y356139D01*
X678883Y361331D01*
X683117Y365565D01*
X688648Y367856D01*
X694636Y367856D01*
X700167Y365565D01*
X704401Y361331D01*
X706692Y355800D01*
X706692Y349812D01*
X704401Y344281D01*
X700167Y340047D01*
X694636Y337756D01*
X688648Y337756D01*
X683117Y340047D01*
X678883Y344281D01*
X676592Y349812D01*
X676592Y349962D01*
X676556Y350009D01*
X676548Y350004D01*
X676543Y350011D01*
X669303Y350011D01*
X669282Y349995D01*
X669268Y349997D01*
X643883Y324611D01*
X557537Y324611D01*
G37*
%LPD*%
%LPC*%
G36*
X650882Y272329D02*
X650882Y272329D01*
X642682Y275726D01*
X636406Y282002D01*
X633009Y290202D01*
X633009Y299078D01*
X636406Y307278D01*
X642682Y313554D01*
X650882Y316951D01*
X659758Y316951D01*
X667958Y313554D01*
X674234Y307278D01*
X677631Y299078D01*
X677631Y290202D01*
X674234Y282002D01*
X667958Y275726D01*
X659758Y272329D01*
X650882Y272329D01*
G37*
%LPD*%
%LPC*%
G36*
X191142Y272329D02*
X191142Y272329D01*
X182942Y275726D01*
X176666Y282002D01*
X173269Y290202D01*
X173269Y299078D01*
X176666Y307278D01*
X182942Y313554D01*
X191142Y316951D01*
X200018Y316951D01*
X208218Y313554D01*
X214494Y307278D01*
X217891Y299078D01*
X217891Y290202D01*
X214494Y282002D01*
X208218Y275726D01*
X200018Y272329D01*
X191142Y272329D01*
G37*
%LPD*%
%LPC*%
G36*
X815363Y415289D02*
X815363Y415289D01*
X807428Y418576D01*
X801354Y424650D01*
X798067Y432585D01*
X798067Y441175D01*
X801354Y449110D01*
X807428Y455184D01*
X815363Y458471D01*
X823953Y458471D01*
X831888Y455184D01*
X837962Y449110D01*
X841249Y441175D01*
X841249Y432585D01*
X837962Y424650D01*
X831888Y418576D01*
X823953Y415289D01*
X815363Y415289D01*
G37*
%LPD*%
%LPC*%
G36*
X815363Y331215D02*
X815363Y331215D01*
X807428Y334502D01*
X801354Y340576D01*
X798067Y348511D01*
X798067Y357101D01*
X801354Y365036D01*
X807428Y371110D01*
X815363Y374397D01*
X823953Y374397D01*
X831888Y371110D01*
X837962Y365036D01*
X841249Y357101D01*
X841249Y348511D01*
X837962Y340576D01*
X831888Y334502D01*
X823953Y331215D01*
X815363Y331215D01*
G37*
%LPD*%
%LPC*%
G36*
X427694Y340105D02*
X427694Y340105D01*
X424799Y341304D01*
X422584Y343519D01*
X421385Y346414D01*
X421385Y415586D01*
X422584Y418481D01*
X424799Y420696D01*
X427694Y421895D01*
X430826Y421895D01*
X433721Y420696D01*
X435936Y418481D01*
X437135Y415586D01*
X437135Y346414D01*
X435936Y343519D01*
X433721Y341304D01*
X430826Y340105D01*
X427694Y340105D01*
G37*
%LPD*%
%LPC*%
G36*
X476463Y53930D02*
X476463Y53930D01*
X475570Y54823D01*
X475570Y82337D01*
X476463Y83230D01*
X503977Y83230D01*
X504870Y82337D01*
X504870Y54823D01*
X503977Y53930D01*
X476463Y53930D01*
G37*
%LPD*%
%LPC*%
G36*
X584948Y394665D02*
X584948Y394665D01*
X584055Y395558D01*
X584055Y422222D01*
X584948Y423115D01*
X611612Y423115D01*
X612505Y422222D01*
X612505Y395558D01*
X611612Y394665D01*
X584948Y394665D01*
G37*
%LPD*%
%LPC*%
G36*
X584948Y224485D02*
X584948Y224485D01*
X584055Y225378D01*
X584055Y252042D01*
X584948Y252935D01*
X611612Y252935D01*
X612505Y252042D01*
X612505Y225378D01*
X611612Y224485D01*
X584948Y224485D01*
G37*
%LPD*%
%LPC*%
G36*
X688648Y379920D02*
X688648Y379920D01*
X683117Y382211D01*
X678883Y386445D01*
X676592Y391976D01*
X676592Y397964D01*
X678883Y403495D01*
X683117Y407729D01*
X688648Y410020D01*
X694636Y410020D01*
X700167Y407729D01*
X704401Y403495D01*
X706692Y397964D01*
X706692Y391976D01*
X704401Y386445D01*
X700167Y382211D01*
X694636Y379920D01*
X688648Y379920D01*
G37*
%LPD*%
%LPC*%
G36*
X688648Y421830D02*
X688648Y421830D01*
X683117Y424121D01*
X678883Y428355D01*
X676592Y433886D01*
X676592Y439874D01*
X678883Y445405D01*
X683117Y449639D01*
X688648Y451930D01*
X694636Y451930D01*
X700167Y449639D01*
X704401Y445405D01*
X706692Y439874D01*
X706692Y433886D01*
X704401Y428355D01*
X700167Y424121D01*
X694636Y421830D01*
X688648Y421830D01*
G37*
%LPD*%
%LPC*%
G36*
X743766Y337756D02*
X743766Y337756D01*
X738235Y340047D01*
X734001Y344281D01*
X731710Y349812D01*
X731710Y355800D01*
X734001Y361331D01*
X738235Y365565D01*
X743766Y367856D01*
X749754Y367856D01*
X755285Y365565D01*
X759519Y361331D01*
X761810Y355800D01*
X761810Y349812D01*
X759519Y344281D01*
X755285Y340047D01*
X749754Y337756D01*
X743766Y337756D01*
G37*
%LPD*%
%LPC*%
G36*
X453450Y454665D02*
X453450Y454665D01*
X448222Y456831D01*
X444221Y460832D01*
X442055Y466060D01*
X442055Y471720D01*
X444221Y476948D01*
X448222Y480949D01*
X453450Y483115D01*
X459110Y483115D01*
X464338Y480949D01*
X468339Y476948D01*
X470505Y471720D01*
X470505Y466060D01*
X468339Y460832D01*
X464338Y456831D01*
X459110Y454665D01*
X453450Y454665D01*
G37*
%LPD*%
%LPC*%
G36*
X575450Y454665D02*
X575450Y454665D01*
X570222Y456831D01*
X566221Y460832D01*
X564055Y466060D01*
X564055Y471720D01*
X566221Y476948D01*
X570222Y480949D01*
X575450Y483115D01*
X581110Y483115D01*
X586338Y480949D01*
X590339Y476948D01*
X592505Y471720D01*
X592505Y466060D01*
X590339Y460832D01*
X586338Y456831D01*
X581110Y454665D01*
X575450Y454665D01*
G37*
%LPD*%
%LPC*%
G36*
X575450Y284485D02*
X575450Y284485D01*
X570222Y286651D01*
X566221Y290652D01*
X564055Y295880D01*
X564055Y301540D01*
X566221Y306768D01*
X570222Y310769D01*
X575450Y312935D01*
X581110Y312935D01*
X586338Y310769D01*
X590339Y306768D01*
X592505Y301540D01*
X592505Y295880D01*
X590339Y290652D01*
X586338Y286651D01*
X581110Y284485D01*
X575450Y284485D01*
G37*
%LPD*%
%LPC*%
G36*
X453450Y284485D02*
X453450Y284485D01*
X448222Y286651D01*
X444221Y290652D01*
X442055Y295880D01*
X442055Y301540D01*
X444221Y306768D01*
X448222Y310769D01*
X453450Y312935D01*
X459110Y312935D01*
X464338Y310769D01*
X468339Y306768D01*
X470505Y301540D01*
X470505Y295880D01*
X468339Y290652D01*
X464338Y286651D01*
X459110Y284485D01*
X453450Y284485D01*
G37*
%LPD*%
%LPC*%
G36*
X450341Y242085D02*
X450341Y242085D01*
X449109Y243317D01*
X449083Y243321D01*
X449075Y243331D01*
X379737Y243331D01*
X378458Y244611D01*
X378431Y244615D01*
X378423Y244625D01*
X376681Y244625D01*
X374165Y247141D01*
X374165Y250699D01*
X376681Y253215D01*
X380239Y253215D01*
X382755Y250699D01*
X382755Y249478D01*
X382791Y249431D01*
X382798Y249436D01*
X382804Y249429D01*
X449075Y249429D01*
X449096Y249445D01*
X449109Y249443D01*
X450341Y250675D01*
X453899Y250675D01*
X456415Y248159D01*
X456415Y244601D01*
X453899Y242085D01*
X450341Y242085D01*
G37*
%LPD*%
%LPC*%
G36*
X455991Y76169D02*
X455991Y76169D01*
X451503Y78028D01*
X448068Y81463D01*
X446209Y85951D01*
X446209Y90809D01*
X448068Y95297D01*
X451503Y98732D01*
X455991Y100591D01*
X460849Y100591D01*
X465337Y98732D01*
X468772Y95297D01*
X470631Y90809D01*
X470631Y85951D01*
X468772Y81463D01*
X465337Y78028D01*
X460849Y76169D01*
X455991Y76169D01*
G37*
%LPD*%
%LPC*%
G36*
X142607Y189737D02*
X142607Y189737D01*
X138593Y191400D01*
X135520Y194473D01*
X133857Y198487D01*
X133857Y202833D01*
X135520Y206847D01*
X138593Y209920D01*
X142607Y211583D01*
X146953Y211583D01*
X150967Y209920D01*
X154040Y206847D01*
X155703Y202833D01*
X155703Y198487D01*
X154040Y194473D01*
X150967Y191400D01*
X146953Y189737D01*
X142607Y189737D01*
G37*
%LPD*%
%LPC*%
G36*
X295007Y367537D02*
X295007Y367537D01*
X290993Y369200D01*
X287920Y372273D01*
X286257Y376287D01*
X286257Y380633D01*
X287920Y384647D01*
X290993Y387720D01*
X295007Y389383D01*
X299353Y389383D01*
X303367Y387720D01*
X306440Y384647D01*
X308103Y380633D01*
X308103Y376287D01*
X306440Y372273D01*
X303367Y369200D01*
X299353Y367537D01*
X295007Y367537D01*
G37*
%LPD*%
%LPC*%
G36*
X322947Y22097D02*
X322947Y22097D01*
X318933Y23760D01*
X315860Y26833D01*
X314197Y30847D01*
X314197Y35193D01*
X315860Y39207D01*
X318933Y42280D01*
X322947Y43943D01*
X327293Y43943D01*
X331307Y42280D01*
X334380Y39207D01*
X336043Y35193D01*
X336043Y30847D01*
X334380Y26833D01*
X331307Y23760D01*
X327293Y22097D01*
X322947Y22097D01*
G37*
%LPD*%
%LPC*%
G36*
X322947Y47497D02*
X322947Y47497D01*
X318933Y49160D01*
X315860Y52233D01*
X314197Y56247D01*
X314197Y60593D01*
X315860Y64607D01*
X318933Y67680D01*
X322947Y69343D01*
X327293Y69343D01*
X331307Y67680D01*
X334380Y64607D01*
X336043Y60593D01*
X336043Y56247D01*
X334380Y52233D01*
X331307Y49160D01*
X327293Y47497D01*
X322947Y47497D01*
G37*
%LPD*%
%LPC*%
G36*
X140067Y110997D02*
X140067Y110997D01*
X136053Y112660D01*
X132980Y115733D01*
X131317Y119747D01*
X131317Y124093D01*
X132980Y128107D01*
X136053Y131180D01*
X140067Y132843D01*
X144413Y132843D01*
X148427Y131180D01*
X151500Y128107D01*
X153163Y124093D01*
X153163Y119747D01*
X151500Y115733D01*
X148427Y112660D01*
X144413Y110997D01*
X140067Y110997D01*
G37*
%LPD*%
%LPC*%
G36*
X190867Y110997D02*
X190867Y110997D01*
X186853Y112660D01*
X183780Y115733D01*
X182117Y119747D01*
X182117Y124093D01*
X183780Y128107D01*
X186853Y131180D01*
X190867Y132843D01*
X195213Y132843D01*
X199227Y131180D01*
X202300Y128107D01*
X203963Y124093D01*
X203963Y119747D01*
X202300Y115733D01*
X199227Y112660D01*
X195213Y110997D01*
X190867Y110997D01*
G37*
%LPD*%
%LPC*%
G36*
X142607Y164337D02*
X142607Y164337D01*
X138593Y166000D01*
X135520Y169073D01*
X133857Y173087D01*
X133857Y177433D01*
X135520Y181447D01*
X138593Y184520D01*
X142607Y186183D01*
X146953Y186183D01*
X150967Y184520D01*
X154040Y181447D01*
X155703Y177433D01*
X155703Y173087D01*
X154040Y169073D01*
X150967Y166000D01*
X146953Y164337D01*
X142607Y164337D01*
G37*
%LPD*%
%LPC*%
G36*
X295007Y164337D02*
X295007Y164337D01*
X290993Y166000D01*
X287920Y169073D01*
X286257Y173087D01*
X286257Y177433D01*
X287920Y181447D01*
X290993Y184520D01*
X295007Y186183D01*
X299353Y186183D01*
X303367Y184520D01*
X306440Y181447D01*
X308103Y177433D01*
X308103Y173087D01*
X306440Y169073D01*
X303367Y166000D01*
X299353Y164337D01*
X295007Y164337D01*
G37*
%LPD*%
%LPC*%
G36*
X295007Y189737D02*
X295007Y189737D01*
X290993Y191400D01*
X287920Y194473D01*
X286257Y198487D01*
X286257Y202833D01*
X287920Y206847D01*
X290993Y209920D01*
X295007Y211583D01*
X299353Y211583D01*
X303367Y209920D01*
X306440Y206847D01*
X308103Y202833D01*
X308103Y198487D01*
X306440Y194473D01*
X303367Y191400D01*
X299353Y189737D01*
X295007Y189737D01*
G37*
%LPD*%
%LPC*%
G36*
X142607Y215137D02*
X142607Y215137D01*
X138593Y216800D01*
X135520Y219873D01*
X133857Y223887D01*
X133857Y228233D01*
X135520Y232247D01*
X138593Y235320D01*
X142607Y236983D01*
X146953Y236983D01*
X150967Y235320D01*
X154040Y232247D01*
X155703Y228233D01*
X155703Y223887D01*
X154040Y219873D01*
X150967Y216800D01*
X146953Y215137D01*
X142607Y215137D01*
G37*
%LPD*%
%LPC*%
G36*
X295007Y342137D02*
X295007Y342137D01*
X290993Y343800D01*
X287920Y346873D01*
X286257Y350887D01*
X286257Y355233D01*
X287920Y359247D01*
X290993Y362320D01*
X295007Y363983D01*
X299353Y363983D01*
X303367Y362320D01*
X306440Y359247D01*
X308103Y355233D01*
X308103Y350887D01*
X306440Y346873D01*
X303367Y343800D01*
X299353Y342137D01*
X295007Y342137D01*
G37*
%LPD*%
%LPC*%
G36*
X142607Y342137D02*
X142607Y342137D01*
X138593Y343800D01*
X135520Y346873D01*
X133857Y350887D01*
X133857Y355233D01*
X135520Y359247D01*
X138593Y362320D01*
X142607Y363983D01*
X146953Y363983D01*
X150967Y362320D01*
X154040Y359247D01*
X155703Y355233D01*
X155703Y350887D01*
X154040Y346873D01*
X150967Y343800D01*
X146953Y342137D01*
X142607Y342137D01*
G37*
%LPD*%
%LPC*%
G36*
X295007Y443737D02*
X295007Y443737D01*
X290993Y445400D01*
X287920Y448473D01*
X286257Y452487D01*
X286257Y456833D01*
X287920Y460847D01*
X290993Y463920D01*
X295007Y465583D01*
X299353Y465583D01*
X303367Y463920D01*
X306440Y460847D01*
X308103Y456833D01*
X308103Y452487D01*
X306440Y448473D01*
X303367Y445400D01*
X299353Y443737D01*
X295007Y443737D01*
G37*
%LPD*%
%LPC*%
G36*
X295007Y215137D02*
X295007Y215137D01*
X290993Y216800D01*
X287920Y219873D01*
X286257Y223887D01*
X286257Y228233D01*
X287920Y232247D01*
X290993Y235320D01*
X295007Y236983D01*
X299353Y236983D01*
X303367Y235320D01*
X306440Y232247D01*
X308103Y228233D01*
X308103Y223887D01*
X306440Y219873D01*
X303367Y216800D01*
X299353Y215137D01*
X295007Y215137D01*
G37*
%LPD*%
%LPC*%
G36*
X142607Y418337D02*
X142607Y418337D01*
X138593Y420000D01*
X135520Y423073D01*
X133857Y427087D01*
X133857Y431433D01*
X135520Y435447D01*
X138593Y438520D01*
X142607Y440183D01*
X146953Y440183D01*
X150967Y438520D01*
X154040Y435447D01*
X155703Y431433D01*
X155703Y427087D01*
X154040Y423073D01*
X150967Y420000D01*
X146953Y418337D01*
X142607Y418337D01*
G37*
%LPD*%
%LPC*%
G36*
X142607Y443737D02*
X142607Y443737D01*
X138593Y445400D01*
X135520Y448473D01*
X133857Y452487D01*
X133857Y456833D01*
X135520Y460847D01*
X138593Y463920D01*
X142607Y465583D01*
X146953Y465583D01*
X150967Y463920D01*
X154040Y460847D01*
X155703Y456833D01*
X155703Y452487D01*
X154040Y448473D01*
X150967Y445400D01*
X146953Y443737D01*
X142607Y443737D01*
G37*
%LPD*%
%LPC*%
G36*
X142607Y316737D02*
X142607Y316737D01*
X138593Y318400D01*
X135520Y321473D01*
X133857Y325487D01*
X133857Y329833D01*
X135520Y333847D01*
X138593Y336920D01*
X142607Y338583D01*
X146953Y338583D01*
X150967Y336920D01*
X154040Y333847D01*
X155703Y329833D01*
X155703Y325487D01*
X154040Y321473D01*
X150967Y318400D01*
X146953Y316737D01*
X142607Y316737D01*
G37*
%LPD*%
%LPC*%
G36*
X295007Y418337D02*
X295007Y418337D01*
X290993Y420000D01*
X287920Y423073D01*
X286257Y427087D01*
X286257Y431433D01*
X287920Y435447D01*
X290993Y438520D01*
X295007Y440183D01*
X299353Y440183D01*
X303367Y438520D01*
X306440Y435447D01*
X308103Y431433D01*
X308103Y427087D01*
X306440Y423073D01*
X303367Y420000D01*
X299353Y418337D01*
X295007Y418337D01*
G37*
%LPD*%
%LPC*%
G36*
X142607Y240537D02*
X142607Y240537D01*
X138593Y242200D01*
X135520Y245273D01*
X133857Y249287D01*
X133857Y253633D01*
X135520Y257647D01*
X138593Y260720D01*
X142607Y262383D01*
X146953Y262383D01*
X150967Y260720D01*
X154040Y257647D01*
X155703Y253633D01*
X155703Y249287D01*
X154040Y245273D01*
X150967Y242200D01*
X146953Y240537D01*
X142607Y240537D01*
G37*
%LPD*%
%LPC*%
G36*
X295007Y291337D02*
X295007Y291337D01*
X290993Y293000D01*
X287920Y296073D01*
X286257Y300087D01*
X286257Y304433D01*
X287920Y308447D01*
X290993Y311520D01*
X295007Y313183D01*
X299353Y313183D01*
X303367Y311520D01*
X306440Y308447D01*
X308103Y304433D01*
X308103Y300087D01*
X306440Y296073D01*
X303367Y293000D01*
X299353Y291337D01*
X295007Y291337D01*
G37*
%LPD*%
%LPC*%
G36*
X142607Y291337D02*
X142607Y291337D01*
X138593Y293000D01*
X135520Y296073D01*
X133857Y300087D01*
X133857Y304433D01*
X135520Y308447D01*
X138593Y311520D01*
X142607Y313183D01*
X146953Y313183D01*
X150967Y311520D01*
X154040Y308447D01*
X155703Y304433D01*
X155703Y300087D01*
X154040Y296073D01*
X150967Y293000D01*
X146953Y291337D01*
X142607Y291337D01*
G37*
%LPD*%
%LPC*%
G36*
X295007Y392937D02*
X295007Y392937D01*
X290993Y394600D01*
X287920Y397673D01*
X286257Y401687D01*
X286257Y406033D01*
X287920Y410047D01*
X290993Y413120D01*
X295007Y414783D01*
X299353Y414783D01*
X303367Y413120D01*
X306440Y410047D01*
X308103Y406033D01*
X308103Y401687D01*
X306440Y397673D01*
X303367Y394600D01*
X299353Y392937D01*
X295007Y392937D01*
G37*
%LPD*%
%LPC*%
G36*
X142607Y392937D02*
X142607Y392937D01*
X138593Y394600D01*
X135520Y397673D01*
X133857Y401687D01*
X133857Y406033D01*
X135520Y410047D01*
X138593Y413120D01*
X142607Y414783D01*
X146953Y414783D01*
X150967Y413120D01*
X154040Y410047D01*
X155703Y406033D01*
X155703Y401687D01*
X154040Y397673D01*
X150967Y394600D01*
X146953Y392937D01*
X142607Y392937D01*
G37*
%LPD*%
%LPC*%
G36*
X295007Y265937D02*
X295007Y265937D01*
X290993Y267600D01*
X287920Y270673D01*
X286257Y274687D01*
X286257Y279033D01*
X287920Y283047D01*
X290993Y286120D01*
X295007Y287783D01*
X299353Y287783D01*
X303367Y286120D01*
X306440Y283047D01*
X308103Y279033D01*
X308103Y274687D01*
X306440Y270673D01*
X303367Y267600D01*
X299353Y265937D01*
X295007Y265937D01*
G37*
%LPD*%
%LPC*%
G36*
X142607Y265937D02*
X142607Y265937D01*
X138593Y267600D01*
X135520Y270673D01*
X133857Y274687D01*
X133857Y279033D01*
X135520Y283047D01*
X138593Y286120D01*
X142607Y287783D01*
X146953Y287783D01*
X150967Y286120D01*
X154040Y283047D01*
X155703Y279033D01*
X155703Y274687D01*
X154040Y270673D01*
X150967Y267600D01*
X146953Y265937D01*
X142607Y265937D01*
G37*
%LPD*%
%LPC*%
G36*
X295007Y240537D02*
X295007Y240537D01*
X290993Y242200D01*
X287920Y245273D01*
X286257Y249287D01*
X286257Y253633D01*
X287920Y257647D01*
X290993Y260720D01*
X295007Y262383D01*
X299353Y262383D01*
X303367Y260720D01*
X306440Y257647D01*
X308103Y253633D01*
X308103Y249287D01*
X306440Y245273D01*
X303367Y242200D01*
X299353Y240537D01*
X295007Y240537D01*
G37*
%LPD*%
%LPC*%
G36*
X574508Y58165D02*
X574508Y58165D01*
X570680Y59751D01*
X567751Y62680D01*
X566165Y66508D01*
X566165Y70652D01*
X567751Y74480D01*
X570680Y77409D01*
X574508Y78995D01*
X578652Y78995D01*
X582480Y77409D01*
X585409Y74480D01*
X586995Y70652D01*
X586995Y66508D01*
X585409Y62680D01*
X582480Y59751D01*
X578652Y58165D01*
X574508Y58165D01*
G37*
%LPD*%
%LPC*%
G36*
X635468Y58165D02*
X635468Y58165D01*
X631640Y59751D01*
X628711Y62680D01*
X627125Y66508D01*
X627125Y70652D01*
X628711Y74480D01*
X631640Y77409D01*
X635468Y78995D01*
X639612Y78995D01*
X643440Y77409D01*
X646369Y74480D01*
X647955Y70652D01*
X647955Y66508D01*
X646369Y62680D01*
X643440Y59751D01*
X639612Y58165D01*
X635468Y58165D01*
G37*
%LPD*%
%LPC*%
G36*
X574508Y119125D02*
X574508Y119125D01*
X570680Y120711D01*
X567751Y123640D01*
X566165Y127468D01*
X566165Y131612D01*
X567751Y135440D01*
X570680Y138369D01*
X574508Y139955D01*
X578652Y139955D01*
X582480Y138369D01*
X585409Y135440D01*
X586995Y131612D01*
X586995Y127468D01*
X585409Y123640D01*
X582480Y120711D01*
X578652Y119125D01*
X574508Y119125D01*
G37*
%LPD*%
%LPC*%
G36*
X635468Y119125D02*
X635468Y119125D01*
X631640Y120711D01*
X628711Y123640D01*
X627125Y127468D01*
X627125Y131612D01*
X628711Y135440D01*
X631640Y138369D01*
X635468Y139955D01*
X639612Y139955D01*
X643440Y138369D01*
X646369Y135440D01*
X647955Y131612D01*
X647955Y127468D01*
X646369Y123640D01*
X643440Y120711D01*
X639612Y119125D01*
X635468Y119125D01*
G37*
%LPD*%
%LPC*%
G36*
X746859Y395069D02*
X746859Y395069D01*
X746859Y411036D01*
X748024Y411036D01*
X750522Y410641D01*
X752927Y409859D01*
X755181Y408711D01*
X757227Y407225D01*
X759015Y405437D01*
X760501Y403391D01*
X761649Y401137D01*
X762431Y398732D01*
X762826Y396234D01*
X762826Y395069D01*
X746859Y395069D01*
G37*
%LPD*%
%LPC*%
G36*
X746859Y394871D02*
X746859Y394871D01*
X762826Y394871D01*
X762826Y393706D01*
X762431Y391208D01*
X761649Y388803D01*
X760501Y386549D01*
X759015Y384503D01*
X757227Y382715D01*
X755181Y381229D01*
X752927Y380081D01*
X750522Y379299D01*
X748024Y378904D01*
X746859Y378904D01*
X746859Y394871D01*
G37*
%LPD*%
%LPC*%
G36*
X730694Y395069D02*
X730694Y395069D01*
X730694Y396234D01*
X731089Y398732D01*
X731871Y401137D01*
X733019Y403391D01*
X734505Y405437D01*
X736293Y407225D01*
X738339Y408711D01*
X740593Y409859D01*
X742998Y410641D01*
X745496Y411036D01*
X746661Y411036D01*
X746661Y395069D01*
X730694Y395069D01*
G37*
%LPD*%
%LPC*%
G36*
X745496Y378904D02*
X745496Y378904D01*
X742998Y379299D01*
X740593Y380081D01*
X738339Y381229D01*
X736293Y382715D01*
X734505Y384503D01*
X733019Y386549D01*
X731871Y388803D01*
X731089Y391208D01*
X730694Y393706D01*
X730694Y394871D01*
X746661Y394871D01*
X746661Y378904D01*
X745496Y378904D01*
G37*
%LPD*%
%LPC*%
G36*
X490319Y108279D02*
X490319Y108279D01*
X490319Y123846D01*
X491453Y123846D01*
X493888Y123460D01*
X496234Y122698D01*
X498431Y121579D01*
X500426Y120129D01*
X502169Y118386D01*
X503619Y116391D01*
X504738Y114194D01*
X505500Y111848D01*
X505886Y109413D01*
X505886Y108279D01*
X490319Y108279D01*
G37*
%LPD*%
%LPC*%
G36*
X474554Y108279D02*
X474554Y108279D01*
X474554Y109413D01*
X474940Y111848D01*
X475702Y114194D01*
X476821Y116391D01*
X478271Y118386D01*
X480014Y120129D01*
X482009Y121579D01*
X484206Y122698D01*
X486552Y123460D01*
X488987Y123846D01*
X490121Y123846D01*
X490121Y108279D01*
X474554Y108279D01*
G37*
%LPD*%
%LPC*%
G36*
X490319Y92514D02*
X490319Y92514D01*
X490319Y108081D01*
X505886Y108081D01*
X505886Y106947D01*
X505500Y104512D01*
X504738Y102166D01*
X503619Y99969D01*
X502169Y97974D01*
X500426Y96231D01*
X498431Y94781D01*
X496234Y93662D01*
X493888Y92900D01*
X491453Y92514D01*
X490319Y92514D01*
G37*
%LPD*%
%LPC*%
G36*
X488987Y92514D02*
X488987Y92514D01*
X486552Y92900D01*
X484206Y93662D01*
X482009Y94781D01*
X480014Y96231D01*
X478271Y97974D01*
X476821Y99969D01*
X475702Y102166D01*
X474940Y104512D01*
X474554Y106947D01*
X474554Y108081D01*
X490121Y108081D01*
X490121Y92514D01*
X488987Y92514D01*
G37*
%LPD*%
%LPC*%
G36*
X456379Y348989D02*
X456379Y348989D01*
X456379Y364131D01*
X457479Y364131D01*
X459849Y363755D01*
X462131Y363014D01*
X464268Y361925D01*
X466209Y360515D01*
X467905Y358819D01*
X469315Y356878D01*
X470404Y354741D01*
X471145Y352459D01*
X471521Y350089D01*
X471521Y348989D01*
X456379Y348989D01*
G37*
%LPD*%
%LPC*%
G36*
X456379Y178809D02*
X456379Y178809D01*
X456379Y193951D01*
X457479Y193951D01*
X459849Y193575D01*
X462131Y192834D01*
X464268Y191745D01*
X466209Y190335D01*
X467905Y188639D01*
X469315Y186698D01*
X470404Y184561D01*
X471145Y182279D01*
X471521Y179909D01*
X471521Y178809D01*
X456379Y178809D01*
G37*
%LPD*%
%LPC*%
G36*
X441039Y178809D02*
X441039Y178809D01*
X441039Y179909D01*
X441415Y182279D01*
X442156Y184561D01*
X443245Y186698D01*
X444655Y188639D01*
X446351Y190335D01*
X448292Y191745D01*
X450429Y192834D01*
X452711Y193575D01*
X455081Y193951D01*
X456181Y193951D01*
X456181Y178809D01*
X441039Y178809D01*
G37*
%LPD*%
%LPC*%
G36*
X441039Y348989D02*
X441039Y348989D01*
X441039Y350089D01*
X441415Y352459D01*
X442156Y354741D01*
X443245Y356878D01*
X444655Y358819D01*
X446351Y360515D01*
X448292Y361925D01*
X450429Y363014D01*
X452711Y363755D01*
X455081Y364131D01*
X456181Y364131D01*
X456181Y348989D01*
X441039Y348989D01*
G37*
%LPD*%
%LPC*%
G36*
X456379Y163469D02*
X456379Y163469D01*
X456379Y178611D01*
X471521Y178611D01*
X471521Y177511D01*
X471145Y175141D01*
X470404Y172859D01*
X469315Y170722D01*
X467905Y168781D01*
X466209Y167085D01*
X464268Y165675D01*
X462131Y164586D01*
X459849Y163845D01*
X457479Y163469D01*
X456379Y163469D01*
G37*
%LPD*%
%LPC*%
G36*
X456379Y333649D02*
X456379Y333649D01*
X456379Y348791D01*
X471521Y348791D01*
X471521Y347691D01*
X471145Y345321D01*
X470404Y343039D01*
X469315Y340902D01*
X467905Y338961D01*
X466209Y337265D01*
X464268Y335855D01*
X462131Y334766D01*
X459849Y334025D01*
X457479Y333649D01*
X456379Y333649D01*
G37*
%LPD*%
%LPC*%
G36*
X455081Y163469D02*
X455081Y163469D01*
X452711Y163845D01*
X450429Y164586D01*
X448292Y165675D01*
X446351Y167085D01*
X444655Y168781D01*
X443245Y170722D01*
X442156Y172859D01*
X441415Y175141D01*
X441039Y177511D01*
X441039Y178611D01*
X456181Y178611D01*
X456181Y163469D01*
X455081Y163469D01*
G37*
%LPD*%
%LPC*%
G36*
X455081Y333649D02*
X455081Y333649D01*
X452711Y334025D01*
X450429Y334766D01*
X448292Y335855D01*
X446351Y337265D01*
X444655Y338961D01*
X443245Y340902D01*
X442156Y343039D01*
X441415Y345321D01*
X441039Y347691D01*
X441039Y348791D01*
X456181Y348791D01*
X456181Y333649D01*
X455081Y333649D01*
G37*
%LPD*%
%LPC*%
G36*
X144879Y378559D02*
X144879Y378559D01*
X144879Y390399D01*
X145720Y390399D01*
X147576Y390105D01*
X149363Y389524D01*
X151037Y388671D01*
X152558Y387566D01*
X153886Y386238D01*
X154991Y384717D01*
X155844Y383043D01*
X156425Y381256D01*
X156719Y379400D01*
X156719Y378559D01*
X144879Y378559D01*
G37*
%LPD*%
%LPC*%
G36*
X325219Y109319D02*
X325219Y109319D01*
X325219Y121159D01*
X326060Y121159D01*
X327916Y120865D01*
X329703Y120284D01*
X331377Y119431D01*
X332898Y118326D01*
X334226Y116998D01*
X335331Y115477D01*
X336184Y113803D01*
X336765Y112016D01*
X337059Y110160D01*
X337059Y109319D01*
X325219Y109319D01*
G37*
%LPD*%
%LPC*%
G36*
X218539Y122019D02*
X218539Y122019D01*
X218539Y133859D01*
X219380Y133859D01*
X221236Y133565D01*
X223023Y132984D01*
X224697Y132131D01*
X226218Y131026D01*
X227546Y129698D01*
X228651Y128177D01*
X229504Y126503D01*
X230085Y124716D01*
X230379Y122860D01*
X230379Y122019D01*
X218539Y122019D01*
G37*
%LPD*%
%LPC*%
G36*
X167739Y122019D02*
X167739Y122019D01*
X167739Y133859D01*
X168580Y133859D01*
X170436Y133565D01*
X172223Y132984D01*
X173897Y132131D01*
X175418Y131026D01*
X176746Y129698D01*
X177851Y128177D01*
X178704Y126503D01*
X179285Y124716D01*
X179579Y122860D01*
X179579Y122019D01*
X167739Y122019D01*
G37*
%LPD*%
%LPC*%
G36*
X132841Y378559D02*
X132841Y378559D01*
X132841Y379400D01*
X133135Y381256D01*
X133716Y383043D01*
X134569Y384717D01*
X135674Y386238D01*
X137002Y387566D01*
X138523Y388671D01*
X140197Y389524D01*
X141984Y390105D01*
X143840Y390399D01*
X144681Y390399D01*
X144681Y378559D01*
X132841Y378559D01*
G37*
%LPD*%
%LPC*%
G36*
X218539Y109981D02*
X218539Y109981D01*
X218539Y121821D01*
X230379Y121821D01*
X230379Y120980D01*
X230085Y119124D01*
X229504Y117337D01*
X228651Y115663D01*
X227546Y114142D01*
X226218Y112814D01*
X224697Y111709D01*
X223023Y110856D01*
X221236Y110275D01*
X219380Y109981D01*
X218539Y109981D01*
G37*
%LPD*%
%LPC*%
G36*
X206501Y122019D02*
X206501Y122019D01*
X206501Y122860D01*
X206795Y124716D01*
X207376Y126503D01*
X208229Y128177D01*
X209334Y129698D01*
X210662Y131026D01*
X212183Y132131D01*
X213857Y132984D01*
X215644Y133565D01*
X217500Y133859D01*
X218341Y133859D01*
X218341Y122019D01*
X206501Y122019D01*
G37*
%LPD*%
%LPC*%
G36*
X167739Y109981D02*
X167739Y109981D01*
X167739Y121821D01*
X179579Y121821D01*
X179579Y120980D01*
X179285Y119124D01*
X178704Y117337D01*
X177851Y115663D01*
X176746Y114142D01*
X175418Y112814D01*
X173897Y111709D01*
X172223Y110856D01*
X170436Y110275D01*
X168580Y109981D01*
X167739Y109981D01*
G37*
%LPD*%
%LPC*%
G36*
X155701Y122019D02*
X155701Y122019D01*
X155701Y122860D01*
X155995Y124716D01*
X156576Y126503D01*
X157429Y128177D01*
X158534Y129698D01*
X159862Y131026D01*
X161383Y132131D01*
X163057Y132984D01*
X164844Y133565D01*
X166700Y133859D01*
X167541Y133859D01*
X167541Y122019D01*
X155701Y122019D01*
G37*
%LPD*%
%LPC*%
G36*
X144879Y366521D02*
X144879Y366521D01*
X144879Y378361D01*
X156719Y378361D01*
X156719Y377520D01*
X156425Y375664D01*
X155844Y373877D01*
X154991Y372203D01*
X153886Y370682D01*
X152558Y369354D01*
X151037Y368249D01*
X149363Y367396D01*
X147576Y366815D01*
X145720Y366521D01*
X144879Y366521D01*
G37*
%LPD*%
%LPC*%
G36*
X324180Y71881D02*
X324180Y71881D01*
X322324Y72175D01*
X320537Y72756D01*
X318863Y73609D01*
X317342Y74714D01*
X316014Y76042D01*
X314909Y77563D01*
X314056Y79237D01*
X313475Y81024D01*
X313181Y82880D01*
X313181Y83721D01*
X325021Y83721D01*
X325021Y71881D01*
X324180Y71881D01*
G37*
%LPD*%
%LPC*%
G36*
X217500Y109981D02*
X217500Y109981D01*
X215644Y110275D01*
X213857Y110856D01*
X212183Y111709D01*
X210662Y112814D01*
X209334Y114142D01*
X208229Y115663D01*
X207376Y117337D01*
X206795Y119124D01*
X206501Y120980D01*
X206501Y121821D01*
X218341Y121821D01*
X218341Y109981D01*
X217500Y109981D01*
G37*
%LPD*%
%LPC*%
G36*
X166700Y109981D02*
X166700Y109981D01*
X164844Y110275D01*
X163057Y110856D01*
X161383Y111709D01*
X159862Y112814D01*
X158534Y114142D01*
X157429Y115663D01*
X156576Y117337D01*
X155995Y119124D01*
X155701Y120980D01*
X155701Y121821D01*
X167541Y121821D01*
X167541Y109981D01*
X166700Y109981D01*
G37*
%LPD*%
%LPC*%
G36*
X143840Y366521D02*
X143840Y366521D01*
X141984Y366815D01*
X140197Y367396D01*
X138523Y368249D01*
X137002Y369354D01*
X135674Y370682D01*
X134569Y372203D01*
X133716Y373877D01*
X133135Y375664D01*
X132841Y377520D01*
X132841Y378361D01*
X144681Y378361D01*
X144681Y366521D01*
X143840Y366521D01*
G37*
%LPD*%
%LPC*%
G36*
X576679Y104239D02*
X576679Y104239D01*
X576679Y115571D01*
X581315Y115571D01*
X588011Y108875D01*
X588011Y104239D01*
X576679Y104239D01*
G37*
%LPD*%
%LPC*%
G36*
X637639Y104239D02*
X637639Y104239D01*
X637639Y115571D01*
X642275Y115571D01*
X648971Y108875D01*
X648971Y104239D01*
X637639Y104239D01*
G37*
%LPD*%
%LPC*%
G36*
X576679Y43279D02*
X576679Y43279D01*
X576679Y54611D01*
X581315Y54611D01*
X588011Y47915D01*
X588011Y43279D01*
X576679Y43279D01*
G37*
%LPD*%
%LPC*%
G36*
X637639Y43279D02*
X637639Y43279D01*
X637639Y54611D01*
X642275Y54611D01*
X648971Y47915D01*
X648971Y43279D01*
X637639Y43279D01*
G37*
%LPD*%
%LPC*%
G36*
X626109Y43279D02*
X626109Y43279D01*
X626109Y47915D01*
X632805Y54611D01*
X637441Y54611D01*
X637441Y43279D01*
X626109Y43279D01*
G37*
%LPD*%
%LPC*%
G36*
X626109Y104239D02*
X626109Y104239D01*
X626109Y108875D01*
X632805Y115571D01*
X637441Y115571D01*
X637441Y104239D01*
X626109Y104239D01*
G37*
%LPD*%
%LPC*%
G36*
X565149Y43279D02*
X565149Y43279D01*
X565149Y47915D01*
X571845Y54611D01*
X576481Y54611D01*
X576481Y43279D01*
X565149Y43279D01*
G37*
%LPD*%
%LPC*%
G36*
X565149Y104239D02*
X565149Y104239D01*
X565149Y108875D01*
X571845Y115571D01*
X576481Y115571D01*
X576481Y104239D01*
X565149Y104239D01*
G37*
%LPD*%
%LPC*%
G36*
X576679Y92709D02*
X576679Y92709D01*
X576679Y104041D01*
X588011Y104041D01*
X588011Y99405D01*
X581315Y92709D01*
X576679Y92709D01*
G37*
%LPD*%
%LPC*%
G36*
X576679Y31749D02*
X576679Y31749D01*
X576679Y43081D01*
X588011Y43081D01*
X588011Y38445D01*
X581315Y31749D01*
X576679Y31749D01*
G37*
%LPD*%
%LPC*%
G36*
X637639Y31749D02*
X637639Y31749D01*
X637639Y43081D01*
X648971Y43081D01*
X648971Y38445D01*
X642275Y31749D01*
X637639Y31749D01*
G37*
%LPD*%
%LPC*%
G36*
X637639Y92709D02*
X637639Y92709D01*
X637639Y104041D01*
X648971Y104041D01*
X648971Y99405D01*
X642275Y92709D01*
X637639Y92709D01*
G37*
%LPD*%
%LPC*%
G36*
X571845Y31749D02*
X571845Y31749D01*
X565149Y38445D01*
X565149Y43081D01*
X576481Y43081D01*
X576481Y31749D01*
X571845Y31749D01*
G37*
%LPD*%
%LPC*%
G36*
X632805Y92709D02*
X632805Y92709D01*
X626109Y99405D01*
X626109Y104041D01*
X637441Y104041D01*
X637441Y92709D01*
X632805Y92709D01*
G37*
%LPD*%
%LPC*%
G36*
X571845Y92709D02*
X571845Y92709D01*
X565149Y99405D01*
X565149Y104041D01*
X576481Y104041D01*
X576481Y92709D01*
X571845Y92709D01*
G37*
%LPD*%
%LPC*%
G36*
X632805Y31749D02*
X632805Y31749D01*
X626109Y38445D01*
X626109Y43081D01*
X637441Y43081D01*
X637441Y31749D01*
X632805Y31749D01*
G37*
%LPD*%
%LPC*%
G36*
X456279Y178709D02*
X456279Y178709D01*
X456279Y178711D01*
X456281Y178711D01*
X456281Y178709D01*
X456279Y178709D01*
G37*
%LPD*%
%LPC*%
G36*
X490219Y108179D02*
X490219Y108179D01*
X490219Y108181D01*
X490221Y108181D01*
X490221Y108179D01*
X490219Y108179D01*
G37*
%LPD*%
%LPC*%
G36*
X456279Y348889D02*
X456279Y348889D01*
X456279Y348891D01*
X456281Y348891D01*
X456281Y348889D01*
X456279Y348889D01*
G37*
%LPD*%
%LPC*%
G36*
X218439Y121919D02*
X218439Y121919D01*
X218439Y121921D01*
X218441Y121921D01*
X218441Y121919D01*
X218439Y121919D01*
G37*
%LPD*%
%LPC*%
G36*
X144779Y378459D02*
X144779Y378459D01*
X144779Y378461D01*
X144781Y378461D01*
X144781Y378459D01*
X144779Y378459D01*
G37*
%LPD*%
%LPC*%
G36*
X637539Y43179D02*
X637539Y43179D01*
X637539Y43181D01*
X637541Y43181D01*
X637541Y43179D01*
X637539Y43179D01*
G37*
%LPD*%
%LPC*%
G36*
X576579Y43179D02*
X576579Y43179D01*
X576579Y43181D01*
X576581Y43181D01*
X576581Y43179D01*
X576579Y43179D01*
G37*
%LPD*%
%LPC*%
G36*
X746759Y394969D02*
X746759Y394969D01*
X746759Y394971D01*
X746761Y394971D01*
X746761Y394969D01*
X746759Y394969D01*
G37*
%LPD*%
%LPC*%
G36*
X637539Y104139D02*
X637539Y104139D01*
X637539Y104141D01*
X637541Y104141D01*
X637541Y104139D01*
X637539Y104139D01*
G37*
%LPD*%
%LPC*%
G36*
X576579Y104139D02*
X576579Y104139D01*
X576579Y104141D01*
X576581Y104141D01*
X576581Y104139D01*
X576579Y104139D01*
G37*
%LPD*%
%LPC*%
G36*
X167639Y121919D02*
X167639Y121919D01*
X167639Y121921D01*
X167641Y121921D01*
X167641Y121919D01*
X167639Y121919D01*
G37*
%LPD*%
D10*
X576580Y43180D03*
D11*
X576580Y68580D03*
D10*
X637540Y43180D03*
D11*
X637540Y68580D03*
D10*
X576580Y104140D03*
D11*
X576580Y129540D03*
D10*
X637540Y104140D03*
D11*
X637540Y129540D03*
D12*
X746760Y436880D03*
D13*
X746760Y394970D03*
X746760Y352806D03*
X691642Y436880D03*
X691642Y394970D03*
X691642Y352806D03*
D14*
X819658Y436880D03*
X819658Y352806D03*
D15*
X490220Y68580D03*
D16*
X490220Y108180D03*
D17*
X325120Y134620D03*
X325120Y109220D03*
X325120Y83820D03*
X325120Y58420D03*
X325120Y33020D03*
X142240Y121920D03*
X167640Y121920D03*
X193040Y121920D03*
X218440Y121920D03*
X144780Y454660D03*
X144780Y429260D03*
X144780Y403860D03*
X144780Y378460D03*
X144780Y353060D03*
X144780Y327660D03*
X144780Y302260D03*
X144780Y276860D03*
X144780Y251460D03*
X144780Y226060D03*
X144780Y200660D03*
X144780Y175260D03*
X297180Y175260D03*
X297180Y200660D03*
X297180Y226060D03*
X297180Y251460D03*
X297180Y276860D03*
X297180Y302260D03*
X297180Y327660D03*
X297180Y353060D03*
X297180Y378460D03*
X297180Y403860D03*
X297180Y429260D03*
X297180Y454660D03*
D18*
X598280Y408890D03*
D19*
X578280Y468890D03*
X456280Y468890D03*
X456280Y348890D03*
X578280Y348890D03*
D18*
X598280Y238710D03*
D19*
X578280Y298710D03*
X456280Y298710D03*
X456280Y178710D03*
X578280Y178710D03*
D20*
X726440Y436880D02*
X746760Y436880D01*
X726440Y436880D02*
X713740Y424180D01*
X713740Y297180D01*
X683260Y266700D01*
X520700Y266700D01*
D21*
X520700Y266700D03*
X452120Y246380D03*
D20*
X381000Y246380D01*
X378460Y248920D01*
D21*
X378460Y248920D03*
D22*
X350520Y403860D03*
X375920Y35560D03*
X373380Y299720D03*
X373380Y205740D03*
D21*
X487680Y370840D03*
D20*
X515620Y370840D01*
X558800Y327660D01*
X642620Y327660D01*
X668020Y353060D01*
X691388Y353060D01*
X691642Y352806D01*
D23*
X429260Y414020D03*
D24*
X429260Y347980D01*
D23*
X429260Y347980D03*
D22*
X365760Y43180D03*
D25*
X320175Y97282D02*
X313182Y104275D01*
X337058Y71882D02*
X365760Y43180D01*
X322580Y148963D02*
X322580Y327660D01*
X337058Y88765D02*
X337058Y71882D01*
X313182Y139565D02*
X322580Y148963D01*
X328541Y97282D02*
X337058Y88765D01*
X328541Y97282D02*
X320175Y97282D01*
X313182Y104275D02*
X313182Y139565D01*
X322580Y327660D02*
X297180Y327660D01*
D26*
X487750Y439420D02*
X578280Y348890D01*
X487750Y439420D02*
X419100Y439420D01*
X406400Y452120D01*
X406400Y454660D01*
D22*
X406400Y454660D03*
D26*
X497840Y259150D02*
X578280Y178710D01*
X497840Y259150D02*
X497840Y314960D01*
X490220Y322580D01*
X421640Y322580D01*
X408940Y335280D01*
X408940Y411480D01*
X406400Y414020D01*
X398780Y414020D01*
D22*
X398780Y414020D03*
M02*
