G04 EAGLE Gerber RS-274X export*
G75*
%MOMM*%
%FSLAX34Y34*%
%LPD*%
%IN*%
%IPPOS*%
%AMOC8*
5,1,8,0,0,1.08239X$1,22.5*%
G01*
%ADD10C,0.254000*%


D10*
X0Y53340D02*
X4310Y53817D01*
X8931Y53935D01*
X13545Y53651D01*
X18117Y52965D01*
X22611Y51883D01*
X26995Y50414D01*
X31233Y48569D01*
X35294Y46361D01*
X39148Y43807D01*
X42764Y40927D01*
X46116Y37743D01*
X49177Y34279D01*
X51925Y30562D01*
X54338Y26619D01*
X56399Y22481D01*
X58091Y18178D01*
X59401Y13745D01*
X60321Y9215D01*
X60841Y4621D01*
X60960Y0D01*
X701040Y0D01*
X701040Y27940D01*
X701711Y31293D01*
X702733Y34826D01*
X704060Y38257D01*
X705680Y41559D01*
X707582Y44707D01*
X709751Y47677D01*
X712170Y50447D01*
X714822Y52995D01*
X717686Y55303D01*
X720740Y57352D01*
X723961Y59128D01*
X727325Y60616D01*
X730806Y61805D01*
X734376Y62686D01*
X738010Y63252D01*
X741680Y63500D01*
X745200Y63506D01*
X748885Y63197D01*
X752530Y62569D01*
X756105Y61625D01*
X759585Y60373D01*
X762942Y58823D01*
X766152Y56986D01*
X769189Y54876D01*
X772031Y52510D01*
X774655Y49905D01*
X777043Y47081D01*
X779175Y44060D01*
X781036Y40864D01*
X782612Y37519D01*
X783890Y34048D01*
X784860Y30480D01*
X784860Y0D01*
X850900Y0D01*
X850900Y500380D01*
X53340Y500380D01*
X53817Y496070D01*
X53935Y491449D01*
X53651Y486835D01*
X52965Y482263D01*
X51883Y477769D01*
X50414Y473386D01*
X48569Y469147D01*
X46361Y465086D01*
X43807Y461232D01*
X40927Y457616D01*
X37743Y454264D01*
X34279Y451203D01*
X30562Y448455D01*
X26619Y446042D01*
X22481Y443981D01*
X18178Y442289D01*
X13745Y440979D01*
X9215Y440059D01*
X4621Y439539D01*
X0Y439420D01*
X0Y53340D01*
X214080Y294034D02*
X214001Y292826D01*
X213843Y291625D01*
X213606Y290437D01*
X213293Y289267D01*
X212904Y288120D01*
X212440Y287001D01*
X211904Y285915D01*
X211299Y284866D01*
X210626Y283858D01*
X209888Y282897D01*
X209090Y281987D01*
X208233Y281130D01*
X207323Y280332D01*
X206362Y279594D01*
X205355Y278921D01*
X204306Y278316D01*
X203219Y277780D01*
X202100Y277316D01*
X200953Y276927D01*
X199783Y276614D01*
X198595Y276377D01*
X197394Y276219D01*
X196186Y276140D01*
X194974Y276140D01*
X193766Y276219D01*
X192565Y276377D01*
X191377Y276614D01*
X190207Y276927D01*
X189060Y277316D01*
X187941Y277780D01*
X186855Y278316D01*
X185806Y278921D01*
X184798Y279594D01*
X183837Y280332D01*
X182927Y281130D01*
X182070Y281987D01*
X181272Y282897D01*
X180534Y283858D01*
X179861Y284866D01*
X179256Y285915D01*
X178720Y287001D01*
X178256Y288120D01*
X177867Y289267D01*
X177554Y290437D01*
X177317Y291625D01*
X177159Y292826D01*
X177080Y294034D01*
X177080Y295246D01*
X177159Y296454D01*
X177317Y297655D01*
X177554Y298843D01*
X177867Y300013D01*
X178256Y301160D01*
X178720Y302279D01*
X179256Y303366D01*
X179861Y304415D01*
X180534Y305422D01*
X181272Y306383D01*
X182070Y307293D01*
X182927Y308150D01*
X183837Y308948D01*
X184798Y309686D01*
X185806Y310359D01*
X186855Y310964D01*
X187941Y311500D01*
X189060Y311964D01*
X190207Y312353D01*
X191377Y312666D01*
X192565Y312903D01*
X193766Y313061D01*
X194974Y313140D01*
X196186Y313140D01*
X197394Y313061D01*
X198595Y312903D01*
X199783Y312666D01*
X200953Y312353D01*
X202100Y311964D01*
X203219Y311500D01*
X204306Y310964D01*
X205355Y310359D01*
X206362Y309686D01*
X207323Y308948D01*
X208233Y308150D01*
X209090Y307293D01*
X209888Y306383D01*
X210626Y305422D01*
X211299Y304415D01*
X211904Y303366D01*
X212440Y302279D01*
X212904Y301160D01*
X213293Y300013D01*
X213606Y298843D01*
X213843Y297655D01*
X214001Y296454D01*
X214080Y295246D01*
X214080Y294034D01*
X673820Y294034D02*
X673741Y292826D01*
X673583Y291625D01*
X673346Y290437D01*
X673033Y289267D01*
X672644Y288120D01*
X672180Y287001D01*
X671644Y285915D01*
X671039Y284866D01*
X670366Y283858D01*
X669628Y282897D01*
X668830Y281987D01*
X667973Y281130D01*
X667063Y280332D01*
X666102Y279594D01*
X665095Y278921D01*
X664046Y278316D01*
X662959Y277780D01*
X661840Y277316D01*
X660693Y276927D01*
X659523Y276614D01*
X658335Y276377D01*
X657134Y276219D01*
X655926Y276140D01*
X654714Y276140D01*
X653506Y276219D01*
X652305Y276377D01*
X651117Y276614D01*
X649947Y276927D01*
X648800Y277316D01*
X647681Y277780D01*
X646595Y278316D01*
X645546Y278921D01*
X644538Y279594D01*
X643577Y280332D01*
X642667Y281130D01*
X641810Y281987D01*
X641012Y282897D01*
X640274Y283858D01*
X639601Y284866D01*
X638996Y285915D01*
X638460Y287001D01*
X637996Y288120D01*
X637607Y289267D01*
X637294Y290437D01*
X637057Y291625D01*
X636899Y292826D01*
X636820Y294034D01*
X636820Y295246D01*
X636899Y296454D01*
X637057Y297655D01*
X637294Y298843D01*
X637607Y300013D01*
X637996Y301160D01*
X638460Y302279D01*
X638996Y303366D01*
X639601Y304415D01*
X640274Y305422D01*
X641012Y306383D01*
X641810Y307293D01*
X642667Y308150D01*
X643577Y308948D01*
X644538Y309686D01*
X645546Y310359D01*
X646595Y310964D01*
X647681Y311500D01*
X648800Y311964D01*
X649947Y312353D01*
X651117Y312666D01*
X652305Y312903D01*
X653506Y313061D01*
X654714Y313140D01*
X655926Y313140D01*
X657134Y313061D01*
X658335Y312903D01*
X659523Y312666D01*
X660693Y312353D01*
X661840Y311964D01*
X662959Y311500D01*
X664046Y310964D01*
X665095Y310359D01*
X666102Y309686D01*
X667063Y308948D01*
X667973Y308150D01*
X668830Y307293D01*
X669628Y306383D01*
X670366Y305422D01*
X671039Y304415D01*
X671644Y303366D01*
X672180Y302279D01*
X672644Y301160D01*
X673033Y300013D01*
X673346Y298843D01*
X673583Y297655D01*
X673741Y296454D01*
X673820Y295246D01*
X673820Y294034D01*
X458787Y96780D02*
X459517Y96716D01*
X460240Y96589D01*
X460948Y96399D01*
X461638Y96148D01*
X462302Y95838D01*
X462938Y95471D01*
X463538Y95051D01*
X464100Y94579D01*
X464619Y94060D01*
X465091Y93498D01*
X465511Y92898D01*
X465878Y92262D01*
X466188Y91598D01*
X466439Y90908D01*
X466629Y90200D01*
X466756Y89477D01*
X466820Y88747D01*
X466820Y88013D01*
X466756Y87283D01*
X466629Y86560D01*
X466439Y85852D01*
X466188Y85162D01*
X465878Y84498D01*
X465511Y83862D01*
X465091Y83262D01*
X464619Y82700D01*
X464100Y82181D01*
X463538Y81709D01*
X462938Y81289D01*
X462302Y80922D01*
X461638Y80612D01*
X460948Y80361D01*
X460240Y80171D01*
X459517Y80044D01*
X458787Y79980D01*
X458053Y79980D01*
X457323Y80044D01*
X456600Y80171D01*
X455892Y80361D01*
X455202Y80612D01*
X454538Y80922D01*
X453902Y81289D01*
X453302Y81709D01*
X452740Y82181D01*
X452221Y82700D01*
X451749Y83262D01*
X451329Y83862D01*
X450962Y84498D01*
X450652Y85162D01*
X450401Y85852D01*
X450211Y86560D01*
X450084Y87283D01*
X450020Y88013D01*
X450020Y88747D01*
X450084Y89477D01*
X450211Y90200D01*
X450401Y90908D01*
X450652Y91598D01*
X450962Y92262D01*
X451329Y92898D01*
X451749Y93498D01*
X452221Y94060D01*
X452740Y94579D01*
X453302Y95051D01*
X453902Y95471D01*
X454538Y95838D01*
X455202Y96148D01*
X455892Y96399D01*
X456600Y96589D01*
X457323Y96716D01*
X458053Y96780D01*
X458787Y96780D01*
X458787Y96780D02*
X459517Y96716D01*
X460240Y96589D01*
X460948Y96399D01*
X461638Y96148D01*
X462302Y95838D01*
X462938Y95471D01*
X463538Y95051D01*
X464100Y94579D01*
X464619Y94060D01*
X465091Y93498D01*
X465511Y92898D01*
X465878Y92262D01*
X466188Y91598D01*
X466439Y90908D01*
X466629Y90200D01*
X466756Y89477D01*
X466820Y88747D01*
X466820Y88013D01*
X466756Y87283D01*
X466629Y86560D01*
X466439Y85852D01*
X466188Y85162D01*
X465878Y84498D01*
X465511Y83862D01*
X465091Y83262D01*
X464619Y82700D01*
X464100Y82181D01*
X463538Y81709D01*
X462938Y81289D01*
X462302Y80922D01*
X461638Y80612D01*
X460948Y80361D01*
X460240Y80171D01*
X459517Y80044D01*
X458787Y79980D01*
X458053Y79980D01*
X457323Y80044D01*
X456600Y80171D01*
X455892Y80361D01*
X455202Y80612D01*
X454538Y80922D01*
X453902Y81289D01*
X453302Y81709D01*
X452740Y82181D01*
X452221Y82700D01*
X451749Y83262D01*
X451329Y83862D01*
X450962Y84498D01*
X450652Y85162D01*
X450401Y85852D01*
X450211Y86560D01*
X450084Y87283D01*
X450020Y88013D01*
X450020Y88747D01*
X450084Y89477D01*
X450211Y90200D01*
X450401Y90908D01*
X450652Y91598D01*
X450962Y92262D01*
X451329Y92898D01*
X451749Y93498D01*
X452221Y94060D01*
X452740Y94579D01*
X453302Y95051D01*
X453902Y95471D01*
X454538Y95838D01*
X455202Y96148D01*
X455892Y96399D01*
X456600Y96589D01*
X457323Y96716D01*
X458053Y96780D01*
X458787Y96780D01*
M02*
