G04 EAGLE Gerber RS-274X export*
G75*
%MOMM*%
%FSLAX34Y34*%
%LPD*%
%INSilkscreen Bottom*%
%IPPOS*%
%AMOC8*
5,1,8,0,0,1.08239X$1,22.5*%
G01*
%ADD10C,0.203200*%


D10*
X472440Y408940D02*
X472442Y409040D01*
X472448Y409141D01*
X472458Y409240D01*
X472472Y409340D01*
X472489Y409439D01*
X472511Y409537D01*
X472537Y409634D01*
X472566Y409730D01*
X472599Y409824D01*
X472636Y409918D01*
X472676Y410010D01*
X472720Y410100D01*
X472768Y410188D01*
X472819Y410275D01*
X472873Y410359D01*
X472931Y410441D01*
X472992Y410521D01*
X473056Y410598D01*
X473123Y410673D01*
X473193Y410745D01*
X473266Y410814D01*
X473341Y410880D01*
X473419Y410944D01*
X473499Y411004D01*
X473582Y411061D01*
X473667Y411114D01*
X473754Y411164D01*
X473843Y411211D01*
X473933Y411254D01*
X474025Y411294D01*
X474119Y411330D01*
X474214Y411362D01*
X474310Y411390D01*
X474408Y411415D01*
X474506Y411435D01*
X474605Y411452D01*
X474705Y411465D01*
X474804Y411474D01*
X474905Y411479D01*
X475005Y411480D01*
X475105Y411477D01*
X475206Y411470D01*
X475305Y411459D01*
X475405Y411444D01*
X475503Y411426D01*
X475601Y411403D01*
X475698Y411376D01*
X475793Y411346D01*
X475888Y411312D01*
X475981Y411274D01*
X476072Y411233D01*
X476162Y411188D01*
X476250Y411140D01*
X476336Y411088D01*
X476420Y411033D01*
X476501Y410974D01*
X476580Y410912D01*
X476657Y410848D01*
X476731Y410780D01*
X476802Y410709D01*
X476871Y410636D01*
X476936Y410560D01*
X476999Y410481D01*
X477058Y410400D01*
X477114Y410317D01*
X477167Y410232D01*
X477216Y410144D01*
X477262Y410055D01*
X477304Y409964D01*
X477343Y409871D01*
X477378Y409777D01*
X477409Y409682D01*
X477437Y409585D01*
X477460Y409488D01*
X477480Y409389D01*
X477496Y409290D01*
X477508Y409191D01*
X477516Y409090D01*
X477520Y408990D01*
X477520Y408890D01*
X477516Y408790D01*
X477508Y408689D01*
X477496Y408590D01*
X477480Y408491D01*
X477460Y408392D01*
X477437Y408295D01*
X477409Y408198D01*
X477378Y408103D01*
X477343Y408009D01*
X477304Y407916D01*
X477262Y407825D01*
X477216Y407736D01*
X477167Y407648D01*
X477114Y407563D01*
X477058Y407480D01*
X476999Y407399D01*
X476936Y407320D01*
X476871Y407244D01*
X476802Y407171D01*
X476731Y407100D01*
X476657Y407032D01*
X476580Y406968D01*
X476501Y406906D01*
X476420Y406847D01*
X476336Y406792D01*
X476250Y406740D01*
X476162Y406692D01*
X476072Y406647D01*
X475981Y406606D01*
X475888Y406568D01*
X475793Y406534D01*
X475698Y406504D01*
X475601Y406477D01*
X475503Y406454D01*
X475405Y406436D01*
X475305Y406421D01*
X475206Y406410D01*
X475105Y406403D01*
X475005Y406400D01*
X474905Y406401D01*
X474804Y406406D01*
X474705Y406415D01*
X474605Y406428D01*
X474506Y406445D01*
X474408Y406465D01*
X474310Y406490D01*
X474214Y406518D01*
X474119Y406550D01*
X474025Y406586D01*
X473933Y406626D01*
X473843Y406669D01*
X473754Y406716D01*
X473667Y406766D01*
X473582Y406819D01*
X473499Y406876D01*
X473419Y406936D01*
X473341Y407000D01*
X473266Y407066D01*
X473193Y407135D01*
X473123Y407207D01*
X473056Y407282D01*
X472992Y407359D01*
X472931Y407439D01*
X472873Y407521D01*
X472819Y407605D01*
X472768Y407692D01*
X472720Y407780D01*
X472676Y407870D01*
X472636Y407962D01*
X472599Y408056D01*
X472566Y408150D01*
X472537Y408246D01*
X472511Y408343D01*
X472489Y408441D01*
X472472Y408540D01*
X472458Y408640D01*
X472448Y408739D01*
X472442Y408840D01*
X472440Y408940D01*
X453390Y433070D02*
X453392Y433170D01*
X453398Y433271D01*
X453408Y433370D01*
X453422Y433470D01*
X453439Y433569D01*
X453461Y433667D01*
X453487Y433764D01*
X453516Y433860D01*
X453549Y433954D01*
X453586Y434048D01*
X453626Y434140D01*
X453670Y434230D01*
X453718Y434318D01*
X453769Y434405D01*
X453823Y434489D01*
X453881Y434571D01*
X453942Y434651D01*
X454006Y434728D01*
X454073Y434803D01*
X454143Y434875D01*
X454216Y434944D01*
X454291Y435010D01*
X454369Y435074D01*
X454449Y435134D01*
X454532Y435191D01*
X454617Y435244D01*
X454704Y435294D01*
X454793Y435341D01*
X454883Y435384D01*
X454975Y435424D01*
X455069Y435460D01*
X455164Y435492D01*
X455260Y435520D01*
X455358Y435545D01*
X455456Y435565D01*
X455555Y435582D01*
X455655Y435595D01*
X455754Y435604D01*
X455855Y435609D01*
X455955Y435610D01*
X456055Y435607D01*
X456156Y435600D01*
X456255Y435589D01*
X456355Y435574D01*
X456453Y435556D01*
X456551Y435533D01*
X456648Y435506D01*
X456743Y435476D01*
X456838Y435442D01*
X456931Y435404D01*
X457022Y435363D01*
X457112Y435318D01*
X457200Y435270D01*
X457286Y435218D01*
X457370Y435163D01*
X457451Y435104D01*
X457530Y435042D01*
X457607Y434978D01*
X457681Y434910D01*
X457752Y434839D01*
X457821Y434766D01*
X457886Y434690D01*
X457949Y434611D01*
X458008Y434530D01*
X458064Y434447D01*
X458117Y434362D01*
X458166Y434274D01*
X458212Y434185D01*
X458254Y434094D01*
X458293Y434001D01*
X458328Y433907D01*
X458359Y433812D01*
X458387Y433715D01*
X458410Y433618D01*
X458430Y433519D01*
X458446Y433420D01*
X458458Y433321D01*
X458466Y433220D01*
X458470Y433120D01*
X458470Y433020D01*
X458466Y432920D01*
X458458Y432819D01*
X458446Y432720D01*
X458430Y432621D01*
X458410Y432522D01*
X458387Y432425D01*
X458359Y432328D01*
X458328Y432233D01*
X458293Y432139D01*
X458254Y432046D01*
X458212Y431955D01*
X458166Y431866D01*
X458117Y431778D01*
X458064Y431693D01*
X458008Y431610D01*
X457949Y431529D01*
X457886Y431450D01*
X457821Y431374D01*
X457752Y431301D01*
X457681Y431230D01*
X457607Y431162D01*
X457530Y431098D01*
X457451Y431036D01*
X457370Y430977D01*
X457286Y430922D01*
X457200Y430870D01*
X457112Y430822D01*
X457022Y430777D01*
X456931Y430736D01*
X456838Y430698D01*
X456743Y430664D01*
X456648Y430634D01*
X456551Y430607D01*
X456453Y430584D01*
X456355Y430566D01*
X456255Y430551D01*
X456156Y430540D01*
X456055Y430533D01*
X455955Y430530D01*
X455855Y430531D01*
X455754Y430536D01*
X455655Y430545D01*
X455555Y430558D01*
X455456Y430575D01*
X455358Y430595D01*
X455260Y430620D01*
X455164Y430648D01*
X455069Y430680D01*
X454975Y430716D01*
X454883Y430756D01*
X454793Y430799D01*
X454704Y430846D01*
X454617Y430896D01*
X454532Y430949D01*
X454449Y431006D01*
X454369Y431066D01*
X454291Y431130D01*
X454216Y431196D01*
X454143Y431265D01*
X454073Y431337D01*
X454006Y431412D01*
X453942Y431489D01*
X453881Y431569D01*
X453823Y431651D01*
X453769Y431735D01*
X453718Y431822D01*
X453670Y431910D01*
X453626Y432000D01*
X453586Y432092D01*
X453549Y432186D01*
X453516Y432280D01*
X453487Y432376D01*
X453461Y432473D01*
X453439Y432571D01*
X453422Y432670D01*
X453408Y432770D01*
X453398Y432869D01*
X453392Y432970D01*
X453390Y433070D01*
X453390Y384810D02*
X453392Y384910D01*
X453398Y385011D01*
X453408Y385110D01*
X453422Y385210D01*
X453439Y385309D01*
X453461Y385407D01*
X453487Y385504D01*
X453516Y385600D01*
X453549Y385694D01*
X453586Y385788D01*
X453626Y385880D01*
X453670Y385970D01*
X453718Y386058D01*
X453769Y386145D01*
X453823Y386229D01*
X453881Y386311D01*
X453942Y386391D01*
X454006Y386468D01*
X454073Y386543D01*
X454143Y386615D01*
X454216Y386684D01*
X454291Y386750D01*
X454369Y386814D01*
X454449Y386874D01*
X454532Y386931D01*
X454617Y386984D01*
X454704Y387034D01*
X454793Y387081D01*
X454883Y387124D01*
X454975Y387164D01*
X455069Y387200D01*
X455164Y387232D01*
X455260Y387260D01*
X455358Y387285D01*
X455456Y387305D01*
X455555Y387322D01*
X455655Y387335D01*
X455754Y387344D01*
X455855Y387349D01*
X455955Y387350D01*
X456055Y387347D01*
X456156Y387340D01*
X456255Y387329D01*
X456355Y387314D01*
X456453Y387296D01*
X456551Y387273D01*
X456648Y387246D01*
X456743Y387216D01*
X456838Y387182D01*
X456931Y387144D01*
X457022Y387103D01*
X457112Y387058D01*
X457200Y387010D01*
X457286Y386958D01*
X457370Y386903D01*
X457451Y386844D01*
X457530Y386782D01*
X457607Y386718D01*
X457681Y386650D01*
X457752Y386579D01*
X457821Y386506D01*
X457886Y386430D01*
X457949Y386351D01*
X458008Y386270D01*
X458064Y386187D01*
X458117Y386102D01*
X458166Y386014D01*
X458212Y385925D01*
X458254Y385834D01*
X458293Y385741D01*
X458328Y385647D01*
X458359Y385552D01*
X458387Y385455D01*
X458410Y385358D01*
X458430Y385259D01*
X458446Y385160D01*
X458458Y385061D01*
X458466Y384960D01*
X458470Y384860D01*
X458470Y384760D01*
X458466Y384660D01*
X458458Y384559D01*
X458446Y384460D01*
X458430Y384361D01*
X458410Y384262D01*
X458387Y384165D01*
X458359Y384068D01*
X458328Y383973D01*
X458293Y383879D01*
X458254Y383786D01*
X458212Y383695D01*
X458166Y383606D01*
X458117Y383518D01*
X458064Y383433D01*
X458008Y383350D01*
X457949Y383269D01*
X457886Y383190D01*
X457821Y383114D01*
X457752Y383041D01*
X457681Y382970D01*
X457607Y382902D01*
X457530Y382838D01*
X457451Y382776D01*
X457370Y382717D01*
X457286Y382662D01*
X457200Y382610D01*
X457112Y382562D01*
X457022Y382517D01*
X456931Y382476D01*
X456838Y382438D01*
X456743Y382404D01*
X456648Y382374D01*
X456551Y382347D01*
X456453Y382324D01*
X456355Y382306D01*
X456255Y382291D01*
X456156Y382280D01*
X456055Y382273D01*
X455955Y382270D01*
X455855Y382271D01*
X455754Y382276D01*
X455655Y382285D01*
X455555Y382298D01*
X455456Y382315D01*
X455358Y382335D01*
X455260Y382360D01*
X455164Y382388D01*
X455069Y382420D01*
X454975Y382456D01*
X454883Y382496D01*
X454793Y382539D01*
X454704Y382586D01*
X454617Y382636D01*
X454532Y382689D01*
X454449Y382746D01*
X454369Y382806D01*
X454291Y382870D01*
X454216Y382936D01*
X454143Y383005D01*
X454073Y383077D01*
X454006Y383152D01*
X453942Y383229D01*
X453881Y383309D01*
X453823Y383391D01*
X453769Y383475D01*
X453718Y383562D01*
X453670Y383650D01*
X453626Y383740D01*
X453586Y383832D01*
X453549Y383926D01*
X453516Y384020D01*
X453487Y384116D01*
X453461Y384213D01*
X453439Y384311D01*
X453422Y384410D01*
X453408Y384510D01*
X453398Y384609D01*
X453392Y384710D01*
X453390Y384810D01*
X474980Y408940D02*
X589280Y408940D01*
X455930Y433070D02*
X455930Y458470D01*
X455930Y384810D02*
X455930Y359410D01*
X449580Y396240D02*
X474980Y408940D01*
X578280Y396240D02*
X578280Y459740D01*
X578280Y370840D02*
X578280Y358140D01*
X570230Y370840D02*
X570230Y396240D01*
X570230Y370840D02*
X582930Y370840D01*
X582930Y396240D01*
X570230Y396240D01*
X472440Y238760D02*
X472442Y238860D01*
X472448Y238961D01*
X472458Y239060D01*
X472472Y239160D01*
X472489Y239259D01*
X472511Y239357D01*
X472537Y239454D01*
X472566Y239550D01*
X472599Y239644D01*
X472636Y239738D01*
X472676Y239830D01*
X472720Y239920D01*
X472768Y240008D01*
X472819Y240095D01*
X472873Y240179D01*
X472931Y240261D01*
X472992Y240341D01*
X473056Y240418D01*
X473123Y240493D01*
X473193Y240565D01*
X473266Y240634D01*
X473341Y240700D01*
X473419Y240764D01*
X473499Y240824D01*
X473582Y240881D01*
X473667Y240934D01*
X473754Y240984D01*
X473843Y241031D01*
X473933Y241074D01*
X474025Y241114D01*
X474119Y241150D01*
X474214Y241182D01*
X474310Y241210D01*
X474408Y241235D01*
X474506Y241255D01*
X474605Y241272D01*
X474705Y241285D01*
X474804Y241294D01*
X474905Y241299D01*
X475005Y241300D01*
X475105Y241297D01*
X475206Y241290D01*
X475305Y241279D01*
X475405Y241264D01*
X475503Y241246D01*
X475601Y241223D01*
X475698Y241196D01*
X475793Y241166D01*
X475888Y241132D01*
X475981Y241094D01*
X476072Y241053D01*
X476162Y241008D01*
X476250Y240960D01*
X476336Y240908D01*
X476420Y240853D01*
X476501Y240794D01*
X476580Y240732D01*
X476657Y240668D01*
X476731Y240600D01*
X476802Y240529D01*
X476871Y240456D01*
X476936Y240380D01*
X476999Y240301D01*
X477058Y240220D01*
X477114Y240137D01*
X477167Y240052D01*
X477216Y239964D01*
X477262Y239875D01*
X477304Y239784D01*
X477343Y239691D01*
X477378Y239597D01*
X477409Y239502D01*
X477437Y239405D01*
X477460Y239308D01*
X477480Y239209D01*
X477496Y239110D01*
X477508Y239011D01*
X477516Y238910D01*
X477520Y238810D01*
X477520Y238710D01*
X477516Y238610D01*
X477508Y238509D01*
X477496Y238410D01*
X477480Y238311D01*
X477460Y238212D01*
X477437Y238115D01*
X477409Y238018D01*
X477378Y237923D01*
X477343Y237829D01*
X477304Y237736D01*
X477262Y237645D01*
X477216Y237556D01*
X477167Y237468D01*
X477114Y237383D01*
X477058Y237300D01*
X476999Y237219D01*
X476936Y237140D01*
X476871Y237064D01*
X476802Y236991D01*
X476731Y236920D01*
X476657Y236852D01*
X476580Y236788D01*
X476501Y236726D01*
X476420Y236667D01*
X476336Y236612D01*
X476250Y236560D01*
X476162Y236512D01*
X476072Y236467D01*
X475981Y236426D01*
X475888Y236388D01*
X475793Y236354D01*
X475698Y236324D01*
X475601Y236297D01*
X475503Y236274D01*
X475405Y236256D01*
X475305Y236241D01*
X475206Y236230D01*
X475105Y236223D01*
X475005Y236220D01*
X474905Y236221D01*
X474804Y236226D01*
X474705Y236235D01*
X474605Y236248D01*
X474506Y236265D01*
X474408Y236285D01*
X474310Y236310D01*
X474214Y236338D01*
X474119Y236370D01*
X474025Y236406D01*
X473933Y236446D01*
X473843Y236489D01*
X473754Y236536D01*
X473667Y236586D01*
X473582Y236639D01*
X473499Y236696D01*
X473419Y236756D01*
X473341Y236820D01*
X473266Y236886D01*
X473193Y236955D01*
X473123Y237027D01*
X473056Y237102D01*
X472992Y237179D01*
X472931Y237259D01*
X472873Y237341D01*
X472819Y237425D01*
X472768Y237512D01*
X472720Y237600D01*
X472676Y237690D01*
X472636Y237782D01*
X472599Y237876D01*
X472566Y237970D01*
X472537Y238066D01*
X472511Y238163D01*
X472489Y238261D01*
X472472Y238360D01*
X472458Y238460D01*
X472448Y238559D01*
X472442Y238660D01*
X472440Y238760D01*
X453390Y262890D02*
X453392Y262990D01*
X453398Y263091D01*
X453408Y263190D01*
X453422Y263290D01*
X453439Y263389D01*
X453461Y263487D01*
X453487Y263584D01*
X453516Y263680D01*
X453549Y263774D01*
X453586Y263868D01*
X453626Y263960D01*
X453670Y264050D01*
X453718Y264138D01*
X453769Y264225D01*
X453823Y264309D01*
X453881Y264391D01*
X453942Y264471D01*
X454006Y264548D01*
X454073Y264623D01*
X454143Y264695D01*
X454216Y264764D01*
X454291Y264830D01*
X454369Y264894D01*
X454449Y264954D01*
X454532Y265011D01*
X454617Y265064D01*
X454704Y265114D01*
X454793Y265161D01*
X454883Y265204D01*
X454975Y265244D01*
X455069Y265280D01*
X455164Y265312D01*
X455260Y265340D01*
X455358Y265365D01*
X455456Y265385D01*
X455555Y265402D01*
X455655Y265415D01*
X455754Y265424D01*
X455855Y265429D01*
X455955Y265430D01*
X456055Y265427D01*
X456156Y265420D01*
X456255Y265409D01*
X456355Y265394D01*
X456453Y265376D01*
X456551Y265353D01*
X456648Y265326D01*
X456743Y265296D01*
X456838Y265262D01*
X456931Y265224D01*
X457022Y265183D01*
X457112Y265138D01*
X457200Y265090D01*
X457286Y265038D01*
X457370Y264983D01*
X457451Y264924D01*
X457530Y264862D01*
X457607Y264798D01*
X457681Y264730D01*
X457752Y264659D01*
X457821Y264586D01*
X457886Y264510D01*
X457949Y264431D01*
X458008Y264350D01*
X458064Y264267D01*
X458117Y264182D01*
X458166Y264094D01*
X458212Y264005D01*
X458254Y263914D01*
X458293Y263821D01*
X458328Y263727D01*
X458359Y263632D01*
X458387Y263535D01*
X458410Y263438D01*
X458430Y263339D01*
X458446Y263240D01*
X458458Y263141D01*
X458466Y263040D01*
X458470Y262940D01*
X458470Y262840D01*
X458466Y262740D01*
X458458Y262639D01*
X458446Y262540D01*
X458430Y262441D01*
X458410Y262342D01*
X458387Y262245D01*
X458359Y262148D01*
X458328Y262053D01*
X458293Y261959D01*
X458254Y261866D01*
X458212Y261775D01*
X458166Y261686D01*
X458117Y261598D01*
X458064Y261513D01*
X458008Y261430D01*
X457949Y261349D01*
X457886Y261270D01*
X457821Y261194D01*
X457752Y261121D01*
X457681Y261050D01*
X457607Y260982D01*
X457530Y260918D01*
X457451Y260856D01*
X457370Y260797D01*
X457286Y260742D01*
X457200Y260690D01*
X457112Y260642D01*
X457022Y260597D01*
X456931Y260556D01*
X456838Y260518D01*
X456743Y260484D01*
X456648Y260454D01*
X456551Y260427D01*
X456453Y260404D01*
X456355Y260386D01*
X456255Y260371D01*
X456156Y260360D01*
X456055Y260353D01*
X455955Y260350D01*
X455855Y260351D01*
X455754Y260356D01*
X455655Y260365D01*
X455555Y260378D01*
X455456Y260395D01*
X455358Y260415D01*
X455260Y260440D01*
X455164Y260468D01*
X455069Y260500D01*
X454975Y260536D01*
X454883Y260576D01*
X454793Y260619D01*
X454704Y260666D01*
X454617Y260716D01*
X454532Y260769D01*
X454449Y260826D01*
X454369Y260886D01*
X454291Y260950D01*
X454216Y261016D01*
X454143Y261085D01*
X454073Y261157D01*
X454006Y261232D01*
X453942Y261309D01*
X453881Y261389D01*
X453823Y261471D01*
X453769Y261555D01*
X453718Y261642D01*
X453670Y261730D01*
X453626Y261820D01*
X453586Y261912D01*
X453549Y262006D01*
X453516Y262100D01*
X453487Y262196D01*
X453461Y262293D01*
X453439Y262391D01*
X453422Y262490D01*
X453408Y262590D01*
X453398Y262689D01*
X453392Y262790D01*
X453390Y262890D01*
X453390Y214630D02*
X453392Y214730D01*
X453398Y214831D01*
X453408Y214930D01*
X453422Y215030D01*
X453439Y215129D01*
X453461Y215227D01*
X453487Y215324D01*
X453516Y215420D01*
X453549Y215514D01*
X453586Y215608D01*
X453626Y215700D01*
X453670Y215790D01*
X453718Y215878D01*
X453769Y215965D01*
X453823Y216049D01*
X453881Y216131D01*
X453942Y216211D01*
X454006Y216288D01*
X454073Y216363D01*
X454143Y216435D01*
X454216Y216504D01*
X454291Y216570D01*
X454369Y216634D01*
X454449Y216694D01*
X454532Y216751D01*
X454617Y216804D01*
X454704Y216854D01*
X454793Y216901D01*
X454883Y216944D01*
X454975Y216984D01*
X455069Y217020D01*
X455164Y217052D01*
X455260Y217080D01*
X455358Y217105D01*
X455456Y217125D01*
X455555Y217142D01*
X455655Y217155D01*
X455754Y217164D01*
X455855Y217169D01*
X455955Y217170D01*
X456055Y217167D01*
X456156Y217160D01*
X456255Y217149D01*
X456355Y217134D01*
X456453Y217116D01*
X456551Y217093D01*
X456648Y217066D01*
X456743Y217036D01*
X456838Y217002D01*
X456931Y216964D01*
X457022Y216923D01*
X457112Y216878D01*
X457200Y216830D01*
X457286Y216778D01*
X457370Y216723D01*
X457451Y216664D01*
X457530Y216602D01*
X457607Y216538D01*
X457681Y216470D01*
X457752Y216399D01*
X457821Y216326D01*
X457886Y216250D01*
X457949Y216171D01*
X458008Y216090D01*
X458064Y216007D01*
X458117Y215922D01*
X458166Y215834D01*
X458212Y215745D01*
X458254Y215654D01*
X458293Y215561D01*
X458328Y215467D01*
X458359Y215372D01*
X458387Y215275D01*
X458410Y215178D01*
X458430Y215079D01*
X458446Y214980D01*
X458458Y214881D01*
X458466Y214780D01*
X458470Y214680D01*
X458470Y214580D01*
X458466Y214480D01*
X458458Y214379D01*
X458446Y214280D01*
X458430Y214181D01*
X458410Y214082D01*
X458387Y213985D01*
X458359Y213888D01*
X458328Y213793D01*
X458293Y213699D01*
X458254Y213606D01*
X458212Y213515D01*
X458166Y213426D01*
X458117Y213338D01*
X458064Y213253D01*
X458008Y213170D01*
X457949Y213089D01*
X457886Y213010D01*
X457821Y212934D01*
X457752Y212861D01*
X457681Y212790D01*
X457607Y212722D01*
X457530Y212658D01*
X457451Y212596D01*
X457370Y212537D01*
X457286Y212482D01*
X457200Y212430D01*
X457112Y212382D01*
X457022Y212337D01*
X456931Y212296D01*
X456838Y212258D01*
X456743Y212224D01*
X456648Y212194D01*
X456551Y212167D01*
X456453Y212144D01*
X456355Y212126D01*
X456255Y212111D01*
X456156Y212100D01*
X456055Y212093D01*
X455955Y212090D01*
X455855Y212091D01*
X455754Y212096D01*
X455655Y212105D01*
X455555Y212118D01*
X455456Y212135D01*
X455358Y212155D01*
X455260Y212180D01*
X455164Y212208D01*
X455069Y212240D01*
X454975Y212276D01*
X454883Y212316D01*
X454793Y212359D01*
X454704Y212406D01*
X454617Y212456D01*
X454532Y212509D01*
X454449Y212566D01*
X454369Y212626D01*
X454291Y212690D01*
X454216Y212756D01*
X454143Y212825D01*
X454073Y212897D01*
X454006Y212972D01*
X453942Y213049D01*
X453881Y213129D01*
X453823Y213211D01*
X453769Y213295D01*
X453718Y213382D01*
X453670Y213470D01*
X453626Y213560D01*
X453586Y213652D01*
X453549Y213746D01*
X453516Y213840D01*
X453487Y213936D01*
X453461Y214033D01*
X453439Y214131D01*
X453422Y214230D01*
X453408Y214330D01*
X453398Y214429D01*
X453392Y214530D01*
X453390Y214630D01*
X474980Y238760D02*
X589280Y238760D01*
X455930Y262890D02*
X455930Y288290D01*
X455930Y214630D02*
X455930Y189230D01*
X449580Y226060D02*
X474980Y238760D01*
X578280Y226060D02*
X578280Y289560D01*
X578280Y200660D02*
X578280Y187960D01*
X570230Y200660D02*
X570230Y226060D01*
X570230Y200660D02*
X582930Y200660D01*
X582930Y226060D01*
X570230Y226060D01*
M02*
