G04 EAGLE Gerber RS-274X export*
G75*
%MOMM*%
%FSLAX34Y34*%
%LPD*%
%INSoldermask Bottom*%
%IPPOS*%
%AMOC8*
5,1,8,0,0,1.08239X$1,22.5*%
G01*
%ADD10C,3.827000*%
%ADD11P,2.061953X8X292.500000*%
%ADD12C,1.905000*%
%ADD13R,2.832100X2.832100*%
%ADD14C,2.832100*%
%ADD15C,4.140200*%
%ADD16C,1.807000*%
%ADD17R,2.752000X2.752000*%
%ADD18C,2.752000*%
%ADD19C,2.006600*%
%ADD20R,2.667000X2.667000*%
%ADD21C,2.667000*%
%ADD22C,0.681000*%
%ADD23C,0.731000*%
%ADD24C,1.027000*%


D10*
X195580Y294640D03*
X655320Y294640D03*
D11*
X576580Y43180D03*
D12*
X576580Y68580D03*
D11*
X637540Y43180D03*
D12*
X637540Y68580D03*
D11*
X576580Y104140D03*
D12*
X576580Y129540D03*
D11*
X637540Y104140D03*
D12*
X637540Y129540D03*
D13*
X746760Y436880D03*
D14*
X746760Y394970D03*
X746760Y352806D03*
X691642Y436880D03*
X691642Y394970D03*
X691642Y352806D03*
D15*
X819658Y436880D03*
X819658Y352806D03*
D16*
X458420Y88380D03*
X458420Y88380D03*
D17*
X490220Y68580D03*
D18*
X490220Y108180D03*
D19*
X325120Y134620D03*
X325120Y109220D03*
X325120Y83820D03*
X325120Y58420D03*
X325120Y33020D03*
X142240Y121920D03*
X167640Y121920D03*
X193040Y121920D03*
X218440Y121920D03*
X144780Y454660D03*
X144780Y429260D03*
X144780Y403860D03*
X144780Y378460D03*
X144780Y353060D03*
X144780Y327660D03*
X144780Y302260D03*
X144780Y276860D03*
X144780Y251460D03*
X144780Y226060D03*
X144780Y200660D03*
X144780Y175260D03*
X297180Y175260D03*
X297180Y200660D03*
X297180Y226060D03*
X297180Y251460D03*
X297180Y276860D03*
X297180Y302260D03*
X297180Y327660D03*
X297180Y353060D03*
X297180Y378460D03*
X297180Y403860D03*
X297180Y429260D03*
X297180Y454660D03*
D20*
X598280Y408890D03*
D21*
X578280Y468890D03*
X456280Y468890D03*
X456280Y348890D03*
X578280Y348890D03*
D20*
X598280Y238710D03*
D21*
X578280Y298710D03*
X456280Y298710D03*
X456280Y178710D03*
X578280Y178710D03*
D22*
X520700Y266700D03*
X452120Y246380D03*
X378460Y248920D03*
D23*
X350520Y403860D03*
X375920Y35560D03*
X373380Y299720D03*
X373380Y205740D03*
D22*
X487680Y370840D03*
D24*
X429260Y414020D03*
X429260Y347980D03*
D23*
X365760Y43180D03*
X406400Y454660D03*
X398780Y414020D03*
M02*
