G04 EAGLE Gerber RS-274X export*
G75*
%MOMM*%
%FSLAX34Y34*%
%LPD*%
%INSolderpaste Top*%
%IPPOS*%
%AMOC8*
5,1,8,0,0,1.08239X$1,22.5*%
G01*
%ADD10R,0.830000X0.630000*%
%ADD11R,1.400000X1.100000*%
%ADD12R,0.355600X1.778000*%
%ADD13R,0.900000X0.800000*%
%ADD14R,1.100000X1.400000*%


D10*
X337820Y323920D03*
X337820Y300920D03*
X337820Y229940D03*
X337820Y206940D03*
D11*
X337820Y269080D03*
X337820Y249080D03*
X358140Y269080D03*
X358140Y249080D03*
X358140Y205900D03*
X358140Y225900D03*
X358140Y363060D03*
X358140Y343060D03*
X337820Y363060D03*
X337820Y343060D03*
X358140Y299880D03*
X358140Y319880D03*
D12*
X416450Y116078D03*
X409950Y116078D03*
X403450Y116078D03*
X396950Y116078D03*
X390450Y116078D03*
X383950Y116078D03*
X377450Y116078D03*
X370950Y116078D03*
X370950Y56642D03*
X377450Y56642D03*
X383950Y56642D03*
X390450Y56642D03*
X396950Y56642D03*
X403450Y56642D03*
X409950Y56642D03*
X416450Y56642D03*
D13*
X363380Y464160D03*
X363380Y445160D03*
X384380Y454660D03*
X363380Y423520D03*
X363380Y404520D03*
X384380Y414020D03*
D14*
X345280Y480060D03*
X325280Y480060D03*
X345280Y424180D03*
X325280Y424180D03*
M02*
