G04 EAGLE Gerber RS-274X export*
G75*
%MOMM*%
%FSLAX34Y34*%
%LPD*%
%INSoldermask Top*%
%IPPOS*%
%AMOC8*
5,1,8,0,0,1.08239X$1,22.5*%
G01*
%ADD10C,3.827000*%
%ADD11P,2.061953X8X292.500000*%
%ADD12C,1.905000*%
%ADD13R,0.957000X0.757000*%
%ADD14R,2.832100X2.832100*%
%ADD15C,2.832100*%
%ADD16C,4.140200*%
%ADD17C,1.807000*%
%ADD18R,2.752000X2.752000*%
%ADD19C,2.752000*%
%ADD20C,2.006600*%
%ADD21R,1.527000X1.227000*%
%ADD22R,2.667000X2.667000*%
%ADD23C,2.667000*%
%ADD24R,0.482600X1.905000*%
%ADD25R,1.027000X0.927000*%
%ADD26R,1.227000X1.527000*%
%ADD27R,0.787400X1.397000*%
%ADD28C,0.889000*%
%ADD29C,0.681000*%
%ADD30C,0.731000*%
%ADD31C,1.027000*%

G36*
X395670Y140347D02*
X395670Y140347D01*
X395736Y140349D01*
X395779Y140367D01*
X395826Y140375D01*
X395883Y140409D01*
X395943Y140434D01*
X395978Y140465D01*
X396019Y140490D01*
X396061Y140541D01*
X396109Y140585D01*
X396131Y140627D01*
X396160Y140664D01*
X396181Y140726D01*
X396212Y140785D01*
X396220Y140839D01*
X396232Y140876D01*
X396231Y140916D01*
X396239Y140970D01*
X396239Y143510D01*
X396228Y143575D01*
X396226Y143641D01*
X396208Y143684D01*
X396200Y143731D01*
X396166Y143788D01*
X396141Y143848D01*
X396110Y143883D01*
X396085Y143924D01*
X396034Y143966D01*
X395990Y144014D01*
X395948Y144036D01*
X395911Y144065D01*
X395849Y144086D01*
X395790Y144117D01*
X395736Y144125D01*
X395699Y144137D01*
X395659Y144136D01*
X395605Y144144D01*
X391795Y144144D01*
X391730Y144133D01*
X391664Y144131D01*
X391621Y144113D01*
X391574Y144105D01*
X391517Y144071D01*
X391457Y144046D01*
X391422Y144015D01*
X391381Y143990D01*
X391340Y143939D01*
X391291Y143895D01*
X391269Y143853D01*
X391240Y143816D01*
X391219Y143754D01*
X391188Y143695D01*
X391180Y143641D01*
X391168Y143604D01*
X391168Y143601D01*
X391169Y143564D01*
X391161Y143510D01*
X391161Y140970D01*
X391172Y140905D01*
X391174Y140839D01*
X391192Y140796D01*
X391200Y140749D01*
X391234Y140692D01*
X391259Y140632D01*
X391290Y140597D01*
X391315Y140556D01*
X391366Y140515D01*
X391410Y140466D01*
X391452Y140444D01*
X391489Y140415D01*
X391551Y140394D01*
X391610Y140363D01*
X391664Y140355D01*
X391701Y140343D01*
X391741Y140344D01*
X391795Y140336D01*
X395605Y140336D01*
X395670Y140347D01*
G37*
G36*
X395670Y23507D02*
X395670Y23507D01*
X395736Y23509D01*
X395779Y23527D01*
X395826Y23535D01*
X395883Y23569D01*
X395943Y23594D01*
X395978Y23625D01*
X396019Y23650D01*
X396061Y23701D01*
X396109Y23745D01*
X396131Y23787D01*
X396160Y23824D01*
X396181Y23886D01*
X396212Y23945D01*
X396220Y23999D01*
X396232Y24036D01*
X396231Y24076D01*
X396239Y24130D01*
X396239Y26670D01*
X396228Y26735D01*
X396226Y26801D01*
X396208Y26844D01*
X396200Y26891D01*
X396166Y26948D01*
X396141Y27008D01*
X396110Y27043D01*
X396085Y27084D01*
X396034Y27126D01*
X395990Y27174D01*
X395948Y27196D01*
X395911Y27225D01*
X395849Y27246D01*
X395790Y27277D01*
X395736Y27285D01*
X395699Y27297D01*
X395659Y27296D01*
X395605Y27304D01*
X391795Y27304D01*
X391730Y27293D01*
X391664Y27291D01*
X391621Y27273D01*
X391574Y27265D01*
X391517Y27231D01*
X391457Y27206D01*
X391422Y27175D01*
X391381Y27150D01*
X391340Y27099D01*
X391291Y27055D01*
X391269Y27013D01*
X391240Y26976D01*
X391219Y26914D01*
X391188Y26855D01*
X391180Y26801D01*
X391168Y26764D01*
X391168Y26761D01*
X391169Y26724D01*
X391161Y26670D01*
X391161Y24130D01*
X391172Y24065D01*
X391174Y23999D01*
X391192Y23956D01*
X391200Y23909D01*
X391234Y23852D01*
X391259Y23792D01*
X391290Y23757D01*
X391315Y23716D01*
X391366Y23675D01*
X391410Y23626D01*
X391452Y23604D01*
X391489Y23575D01*
X391551Y23554D01*
X391610Y23523D01*
X391664Y23515D01*
X391701Y23503D01*
X391741Y23504D01*
X391795Y23496D01*
X395605Y23496D01*
X395670Y23507D01*
G37*
D10*
X195580Y294640D03*
X655320Y294640D03*
D11*
X576580Y43180D03*
D12*
X576580Y68580D03*
D11*
X637540Y43180D03*
D12*
X637540Y68580D03*
D11*
X576580Y104140D03*
D12*
X576580Y129540D03*
D11*
X637540Y104140D03*
D12*
X637540Y129540D03*
D13*
X337820Y323920D03*
X337820Y300920D03*
X337820Y229940D03*
X337820Y206940D03*
D14*
X746760Y436880D03*
D15*
X746760Y394970D03*
X746760Y352806D03*
X691642Y436880D03*
X691642Y394970D03*
X691642Y352806D03*
D16*
X819658Y436880D03*
X819658Y352806D03*
D17*
X458420Y88380D03*
X458420Y88380D03*
D18*
X490220Y68580D03*
D19*
X490220Y108180D03*
D20*
X325120Y134620D03*
X325120Y109220D03*
X325120Y83820D03*
X325120Y58420D03*
X325120Y33020D03*
X142240Y121920D03*
X167640Y121920D03*
X193040Y121920D03*
X218440Y121920D03*
D21*
X337820Y269080D03*
X337820Y249080D03*
X358140Y269080D03*
X358140Y249080D03*
X358140Y205900D03*
X358140Y225900D03*
X358140Y363060D03*
X358140Y343060D03*
X337820Y363060D03*
X337820Y343060D03*
X358140Y299880D03*
X358140Y319880D03*
D20*
X144780Y454660D03*
X144780Y429260D03*
X144780Y403860D03*
X144780Y378460D03*
X144780Y353060D03*
X144780Y327660D03*
X144780Y302260D03*
X144780Y276860D03*
X144780Y251460D03*
X144780Y226060D03*
X144780Y200660D03*
X144780Y175260D03*
X297180Y175260D03*
X297180Y200660D03*
X297180Y226060D03*
X297180Y251460D03*
X297180Y276860D03*
X297180Y302260D03*
X297180Y327660D03*
X297180Y353060D03*
X297180Y378460D03*
X297180Y403860D03*
X297180Y429260D03*
X297180Y454660D03*
D22*
X598280Y408890D03*
D23*
X578280Y468890D03*
X456280Y468890D03*
X456280Y348890D03*
X578280Y348890D03*
D22*
X598280Y238710D03*
D23*
X578280Y298710D03*
X456280Y298710D03*
X456280Y178710D03*
X578280Y178710D03*
D24*
X416450Y116078D03*
X409950Y116078D03*
X403450Y116078D03*
X396950Y116078D03*
X390450Y116078D03*
X383950Y116078D03*
X377450Y116078D03*
X370950Y116078D03*
X370950Y56642D03*
X377450Y56642D03*
X383950Y56642D03*
X390450Y56642D03*
X396950Y56642D03*
X403450Y56642D03*
X409950Y56642D03*
X416450Y56642D03*
D25*
X363380Y464160D03*
X363380Y445160D03*
X384380Y454660D03*
X363380Y423520D03*
X363380Y404520D03*
X384380Y414020D03*
D26*
X345280Y480060D03*
X325280Y480060D03*
X345280Y424180D03*
X325280Y424180D03*
D27*
X388493Y142240D03*
X398907Y142240D03*
X388493Y25400D03*
X398907Y25400D03*
D28*
X414020Y142240D03*
X368300Y142240D03*
X365760Y25400D03*
X419100Y25400D03*
D29*
X520700Y266700D03*
X452120Y246380D03*
X378460Y248920D03*
D30*
X350520Y403860D03*
X375920Y35560D03*
X373380Y299720D03*
X373380Y205740D03*
D29*
X487680Y370840D03*
D31*
X429260Y414020D03*
X429260Y347980D03*
D30*
X365760Y43180D03*
X406400Y454660D03*
X398780Y414020D03*
M02*
