G04 EAGLE Gerber RS-274X export*
G75*
%MOMM*%
%FSLAX34Y34*%
%LPD*%
%INBottom Copper*%
%IPPOS*%
%AMOC8*
5,1,8,0,0,1.08239X$1,22.5*%
G01*
%ADD10P,1.924489X8X22.500000*%
%ADD11C,1.778000*%
%ADD12P,1.924489X8X292.500000*%
%ADD13R,2.705100X2.705100*%
%ADD14C,2.705100*%
%ADD15C,4.013200*%
%ADD16R,2.625000X2.625000*%
%ADD17C,2.625000*%
%ADD18C,1.879600*%
%ADD19C,0.604000*%
%ADD20C,0.304800*%
%ADD21C,0.812800*%
%ADD22C,1.016000*%
%ADD23C,0.152400*%

G36*
X697177Y5067D02*
X697177Y5067D01*
X697172Y5074D01*
X697179Y5080D01*
X697179Y26669D01*
X697166Y26686D01*
X697170Y26698D01*
X696977Y26964D01*
X697179Y28240D01*
X697176Y28245D01*
X697179Y28247D01*
X697179Y29539D01*
X697411Y29771D01*
X697413Y29784D01*
X697421Y29790D01*
X697418Y29795D01*
X697425Y29798D01*
X698233Y34903D01*
X703659Y46582D01*
X712082Y56323D01*
X722855Y63379D01*
X735151Y67207D01*
X741551Y67359D01*
X741552Y67359D01*
X747988Y67637D01*
X760591Y64616D01*
X771879Y58248D01*
X780982Y49023D01*
X787200Y37651D01*
X788377Y32434D01*
X788392Y32421D01*
X788390Y32410D01*
X788721Y32079D01*
X788721Y30916D01*
X788726Y30909D01*
X788722Y30905D01*
X788978Y29770D01*
X788728Y29375D01*
X788730Y29355D01*
X788721Y29348D01*
X788721Y5080D01*
X788757Y5033D01*
X788764Y5038D01*
X788770Y5031D01*
X845820Y5031D01*
X845867Y5067D01*
X845862Y5074D01*
X845869Y5080D01*
X845869Y495300D01*
X845833Y495347D01*
X845826Y495342D01*
X845820Y495349D01*
X58069Y495349D01*
X58021Y495313D01*
X58030Y495302D01*
X58020Y495293D01*
X58226Y493940D01*
X56844Y479803D01*
X52027Y466441D01*
X44071Y454674D01*
X33464Y445226D01*
X20860Y438678D01*
X10149Y436164D01*
X10133Y436144D01*
X10113Y436129D01*
X10116Y436125D01*
X10111Y436118D01*
X10112Y436117D01*
X10111Y436116D01*
X10111Y57912D01*
X10147Y57864D01*
X10152Y57868D01*
X10155Y57863D01*
X20577Y56844D01*
X33939Y52027D01*
X45706Y44071D01*
X55153Y33465D01*
X61702Y20860D01*
X64948Y7032D01*
X64913Y5081D01*
X64948Y5033D01*
X64956Y5039D01*
X64962Y5031D01*
X697130Y5031D01*
X697177Y5067D01*
G37*
%LPC*%
G36*
X488906Y133095D02*
X488906Y133095D01*
X486479Y134101D01*
X438235Y182345D01*
X438221Y182347D01*
X438213Y182357D01*
X438203Y182349D01*
X438176Y182353D01*
X438172Y182326D01*
X438151Y182310D01*
X438151Y177899D01*
X426819Y177899D01*
X426819Y189231D01*
X431230Y189231D01*
X431241Y189239D01*
X431254Y189237D01*
X431256Y189250D01*
X431277Y189267D01*
X431261Y189288D01*
X431265Y189315D01*
X427809Y192771D01*
X427782Y192775D01*
X427774Y192785D01*
X424648Y192785D01*
X420820Y194371D01*
X417891Y197300D01*
X416305Y201128D01*
X416305Y205272D01*
X417891Y209100D01*
X420820Y212029D01*
X424648Y213615D01*
X428792Y213615D01*
X432620Y212029D01*
X435549Y209100D01*
X437135Y205272D01*
X437135Y202146D01*
X437151Y202125D01*
X437149Y202111D01*
X492941Y146319D01*
X492968Y146315D01*
X492976Y146305D01*
X662724Y146305D01*
X662745Y146321D01*
X662759Y146319D01*
X740141Y223701D01*
X740145Y223728D01*
X740155Y223736D01*
X740155Y339219D01*
X740127Y339256D01*
X740125Y339264D01*
X738235Y340047D01*
X734001Y344281D01*
X731710Y349812D01*
X731710Y355800D01*
X734001Y361331D01*
X738235Y365565D01*
X743766Y367856D01*
X749754Y367856D01*
X755285Y365565D01*
X759519Y361331D01*
X761810Y355800D01*
X761810Y349812D01*
X759519Y344281D01*
X755285Y340047D01*
X753395Y339264D01*
X753372Y339224D01*
X753365Y339219D01*
X753365Y219666D01*
X752359Y217239D01*
X669221Y134101D01*
X666794Y133095D01*
X488906Y133095D01*
G37*
%LPD*%
%LPC*%
G36*
X584668Y253745D02*
X584668Y253745D01*
X580840Y255331D01*
X577911Y258260D01*
X576325Y262088D01*
X576325Y266232D01*
X577911Y270060D01*
X580121Y272270D01*
X580124Y272290D01*
X580133Y272297D01*
X580131Y272301D01*
X580135Y272304D01*
X580135Y380326D01*
X581141Y382753D01*
X593047Y394659D01*
X593049Y394676D01*
X593059Y394683D01*
X593055Y394689D01*
X593061Y394694D01*
X593061Y402860D01*
X594067Y405287D01*
X595932Y407152D01*
X614157Y425377D01*
X614161Y425404D01*
X614171Y425412D01*
X614171Y467135D01*
X627605Y480569D01*
X639855Y480569D01*
X643129Y477295D01*
X643129Y472665D01*
X639855Y469391D01*
X632255Y469391D01*
X632234Y469375D01*
X632221Y469377D01*
X625363Y462519D01*
X625359Y462493D01*
X625349Y462485D01*
X625349Y425412D01*
X625360Y425398D01*
X625355Y425390D01*
X626365Y422954D01*
X626365Y420326D01*
X625359Y417899D01*
X606285Y398825D01*
X606283Y398805D01*
X606273Y398798D01*
X606276Y398794D01*
X606271Y398790D01*
X606271Y390624D01*
X605265Y388197D01*
X593359Y376291D01*
X593355Y376264D01*
X593345Y376256D01*
X593345Y272304D01*
X593361Y272283D01*
X593359Y272270D01*
X595569Y270060D01*
X597155Y266232D01*
X597155Y262088D01*
X595569Y258260D01*
X592640Y255331D01*
X588812Y253745D01*
X584668Y253745D01*
G37*
%LPD*%
%LPC*%
G36*
X434379Y417881D02*
X434379Y417881D01*
X431143Y421117D01*
X431117Y421121D01*
X431109Y421131D01*
X342059Y421131D01*
X342037Y421115D01*
X342024Y421117D01*
X339703Y418795D01*
X335937Y418795D01*
X333275Y421457D01*
X333275Y425223D01*
X335937Y427885D01*
X339703Y427885D01*
X340344Y427243D01*
X340371Y427239D01*
X340379Y427229D01*
X433655Y427229D01*
X436890Y423993D01*
X436917Y423989D01*
X436925Y423979D01*
X457747Y423979D01*
X457768Y423995D01*
X457782Y423993D01*
X501657Y467869D01*
X568101Y467869D01*
X568123Y467885D01*
X568136Y467883D01*
X569617Y469365D01*
X571713Y469365D01*
X571734Y469381D01*
X571748Y469379D01*
X572777Y470409D01*
X603237Y470409D01*
X603258Y470425D01*
X603272Y470423D01*
X621037Y488189D01*
X699763Y488189D01*
X718572Y469379D01*
X718599Y469375D01*
X718607Y469365D01*
X720703Y469365D01*
X723365Y466703D01*
X723365Y462937D01*
X720703Y460275D01*
X716937Y460275D01*
X714275Y462937D01*
X714275Y465033D01*
X714259Y465054D01*
X714261Y465068D01*
X697252Y482077D01*
X697225Y482081D01*
X697217Y482091D01*
X623583Y482091D01*
X623562Y482075D01*
X623548Y482077D01*
X605783Y464311D01*
X576094Y464311D01*
X576047Y464275D01*
X576052Y464268D01*
X576045Y464262D01*
X576045Y462937D01*
X573383Y460275D01*
X569617Y460275D01*
X568136Y461757D01*
X568109Y461761D01*
X568101Y461771D01*
X504203Y461771D01*
X504182Y461755D01*
X504168Y461757D01*
X460293Y417881D01*
X434379Y417881D01*
G37*
%LPD*%
%LPC*%
G36*
X191142Y272329D02*
X191142Y272329D01*
X182942Y275726D01*
X176666Y282002D01*
X173269Y290202D01*
X173269Y299078D01*
X176666Y307278D01*
X182942Y313554D01*
X191142Y316951D01*
X200018Y316951D01*
X208218Y313554D01*
X214494Y307278D01*
X217891Y299078D01*
X217891Y290202D01*
X214494Y282002D01*
X208218Y275726D01*
X200018Y272329D01*
X191142Y272329D01*
G37*
%LPD*%
%LPC*%
G36*
X650882Y272329D02*
X650882Y272329D01*
X642682Y275726D01*
X636406Y282002D01*
X633009Y290202D01*
X633009Y299078D01*
X636406Y307278D01*
X642682Y313554D01*
X650882Y316951D01*
X659758Y316951D01*
X667958Y313554D01*
X674234Y307278D01*
X677631Y299078D01*
X677631Y290202D01*
X674234Y282002D01*
X667958Y275726D01*
X659758Y272329D01*
X650882Y272329D01*
G37*
%LPD*%
%LPC*%
G36*
X815363Y331215D02*
X815363Y331215D01*
X807428Y334502D01*
X801354Y340576D01*
X798067Y348511D01*
X798067Y357101D01*
X801354Y365036D01*
X807428Y371110D01*
X815363Y374397D01*
X823953Y374397D01*
X831888Y371110D01*
X837962Y365036D01*
X841249Y357101D01*
X841249Y348511D01*
X837962Y340576D01*
X831888Y334502D01*
X823953Y331215D01*
X815363Y331215D01*
G37*
%LPD*%
%LPC*%
G36*
X815363Y415289D02*
X815363Y415289D01*
X807428Y418576D01*
X801354Y424650D01*
X798067Y432585D01*
X798067Y441175D01*
X801354Y449110D01*
X807428Y455184D01*
X815363Y458471D01*
X823953Y458471D01*
X831888Y455184D01*
X837962Y449110D01*
X841249Y441175D01*
X841249Y432585D01*
X837962Y424650D01*
X831888Y418576D01*
X823953Y415289D01*
X815363Y415289D01*
G37*
%LPD*%
%LPC*%
G36*
X732603Y421830D02*
X732603Y421830D01*
X731710Y422723D01*
X731710Y451037D01*
X732603Y451930D01*
X760917Y451930D01*
X761810Y451037D01*
X761810Y422723D01*
X760917Y421830D01*
X732603Y421830D01*
G37*
%LPD*%
%LPC*%
G36*
X557743Y158070D02*
X557743Y158070D01*
X556850Y158963D01*
X556850Y186477D01*
X557743Y187370D01*
X585257Y187370D01*
X586150Y186477D01*
X586150Y158963D01*
X585257Y158070D01*
X557743Y158070D01*
G37*
%LPD*%
%LPC*%
G36*
X688648Y421830D02*
X688648Y421830D01*
X683117Y424121D01*
X678883Y428355D01*
X676592Y433886D01*
X676592Y439874D01*
X678883Y445405D01*
X683117Y449639D01*
X688648Y451930D01*
X694636Y451930D01*
X700167Y449639D01*
X704401Y445405D01*
X706692Y439874D01*
X706692Y433886D01*
X704401Y428355D01*
X700167Y424121D01*
X694636Y421830D01*
X688648Y421830D01*
G37*
%LPD*%
%LPC*%
G36*
X688648Y337756D02*
X688648Y337756D01*
X683117Y340047D01*
X678883Y344281D01*
X676592Y349812D01*
X676592Y355800D01*
X678883Y361331D01*
X683117Y365565D01*
X688648Y367856D01*
X694636Y367856D01*
X700167Y365565D01*
X704401Y361331D01*
X706692Y355800D01*
X706692Y349812D01*
X704401Y344281D01*
X700167Y340047D01*
X694636Y337756D01*
X688648Y337756D01*
G37*
%LPD*%
%LPC*%
G36*
X688648Y379920D02*
X688648Y379920D01*
X683117Y382211D01*
X678883Y386445D01*
X676592Y391976D01*
X676592Y397964D01*
X678883Y403495D01*
X683117Y407729D01*
X688648Y410020D01*
X694636Y410020D01*
X700167Y407729D01*
X704401Y403495D01*
X706692Y397964D01*
X706692Y391976D01*
X704401Y386445D01*
X700167Y382211D01*
X694636Y379920D01*
X688648Y379920D01*
G37*
%LPD*%
%LPC*%
G36*
X436588Y425755D02*
X436588Y425755D01*
X434345Y427999D01*
X434318Y428003D01*
X434310Y428013D01*
X328213Y428013D01*
X323905Y432321D01*
X323879Y432325D01*
X323870Y432335D01*
X320697Y432335D01*
X318035Y434997D01*
X318035Y438763D01*
X320697Y441425D01*
X324463Y441425D01*
X327125Y438763D01*
X327125Y435590D01*
X327141Y435568D01*
X327139Y435555D01*
X330093Y432601D01*
X330119Y432597D01*
X330128Y432587D01*
X434310Y432587D01*
X434331Y432603D01*
X434345Y432601D01*
X436588Y434845D01*
X440353Y434845D01*
X443016Y432183D01*
X443016Y428417D01*
X440353Y425755D01*
X436588Y425755D01*
G37*
%LPD*%
%LPC*%
G36*
X537271Y180309D02*
X537271Y180309D01*
X532783Y182168D01*
X529348Y185603D01*
X527489Y190091D01*
X527489Y194949D01*
X529348Y199437D01*
X532783Y202872D01*
X537271Y204731D01*
X542129Y204731D01*
X546617Y202872D01*
X550052Y199437D01*
X551911Y194949D01*
X551911Y190091D01*
X550052Y185603D01*
X546617Y182168D01*
X542129Y180309D01*
X537271Y180309D01*
G37*
%LPD*%
%LPC*%
G36*
X322947Y22097D02*
X322947Y22097D01*
X318933Y23760D01*
X315860Y26833D01*
X314197Y30847D01*
X314197Y35193D01*
X315860Y39207D01*
X318933Y42280D01*
X322947Y43943D01*
X327293Y43943D01*
X331307Y42280D01*
X334380Y39207D01*
X336043Y35193D01*
X336043Y30847D01*
X334380Y26833D01*
X331307Y23760D01*
X327293Y22097D01*
X322947Y22097D01*
G37*
%LPD*%
%LPC*%
G36*
X295007Y265937D02*
X295007Y265937D01*
X290993Y267600D01*
X287920Y270673D01*
X286257Y274687D01*
X286257Y279033D01*
X287920Y283047D01*
X290993Y286120D01*
X295007Y287783D01*
X299353Y287783D01*
X303367Y286120D01*
X306440Y283047D01*
X308103Y279033D01*
X308103Y274687D01*
X306440Y270673D01*
X303367Y267600D01*
X299353Y265937D01*
X295007Y265937D01*
G37*
%LPD*%
%LPC*%
G36*
X142607Y189737D02*
X142607Y189737D01*
X138593Y191400D01*
X135520Y194473D01*
X133857Y198487D01*
X133857Y202833D01*
X135520Y206847D01*
X138593Y209920D01*
X142607Y211583D01*
X146953Y211583D01*
X150967Y209920D01*
X154040Y206847D01*
X155703Y202833D01*
X155703Y198487D01*
X154040Y194473D01*
X150967Y191400D01*
X146953Y189737D01*
X142607Y189737D01*
G37*
%LPD*%
%LPC*%
G36*
X295007Y189737D02*
X295007Y189737D01*
X290993Y191400D01*
X287920Y194473D01*
X286257Y198487D01*
X286257Y202833D01*
X287920Y206847D01*
X290993Y209920D01*
X295007Y211583D01*
X299353Y211583D01*
X303367Y209920D01*
X306440Y206847D01*
X308103Y202833D01*
X308103Y198487D01*
X306440Y194473D01*
X303367Y191400D01*
X299353Y189737D01*
X295007Y189737D01*
G37*
%LPD*%
%LPC*%
G36*
X295007Y443737D02*
X295007Y443737D01*
X290993Y445400D01*
X287920Y448473D01*
X286257Y452487D01*
X286257Y456833D01*
X287920Y460847D01*
X290993Y463920D01*
X295007Y465583D01*
X299353Y465583D01*
X303367Y463920D01*
X306440Y460847D01*
X308103Y456833D01*
X308103Y452487D01*
X306440Y448473D01*
X303367Y445400D01*
X299353Y443737D01*
X295007Y443737D01*
G37*
%LPD*%
%LPC*%
G36*
X295007Y164337D02*
X295007Y164337D01*
X290993Y166000D01*
X287920Y169073D01*
X286257Y173087D01*
X286257Y177433D01*
X287920Y181447D01*
X290993Y184520D01*
X295007Y186183D01*
X299353Y186183D01*
X303367Y184520D01*
X306440Y181447D01*
X308103Y177433D01*
X308103Y173087D01*
X306440Y169073D01*
X303367Y166000D01*
X299353Y164337D01*
X295007Y164337D01*
G37*
%LPD*%
%LPC*%
G36*
X295007Y367537D02*
X295007Y367537D01*
X290993Y369200D01*
X287920Y372273D01*
X286257Y376287D01*
X286257Y380633D01*
X287920Y384647D01*
X290993Y387720D01*
X295007Y389383D01*
X299353Y389383D01*
X303367Y387720D01*
X306440Y384647D01*
X308103Y380633D01*
X308103Y376287D01*
X306440Y372273D01*
X303367Y369200D01*
X299353Y367537D01*
X295007Y367537D01*
G37*
%LPD*%
%LPC*%
G36*
X142607Y164337D02*
X142607Y164337D01*
X138593Y166000D01*
X135520Y169073D01*
X133857Y173087D01*
X133857Y177433D01*
X135520Y181447D01*
X138593Y184520D01*
X142607Y186183D01*
X146953Y186183D01*
X150967Y184520D01*
X154040Y181447D01*
X155703Y177433D01*
X155703Y173087D01*
X154040Y169073D01*
X150967Y166000D01*
X146953Y164337D01*
X142607Y164337D01*
G37*
%LPD*%
%LPC*%
G36*
X142607Y215137D02*
X142607Y215137D01*
X138593Y216800D01*
X135520Y219873D01*
X133857Y223887D01*
X133857Y228233D01*
X135520Y232247D01*
X138593Y235320D01*
X142607Y236983D01*
X146953Y236983D01*
X150967Y235320D01*
X154040Y232247D01*
X155703Y228233D01*
X155703Y223887D01*
X154040Y219873D01*
X150967Y216800D01*
X146953Y215137D01*
X142607Y215137D01*
G37*
%LPD*%
%LPC*%
G36*
X140067Y110997D02*
X140067Y110997D01*
X136053Y112660D01*
X132980Y115733D01*
X131317Y119747D01*
X131317Y124093D01*
X132980Y128107D01*
X136053Y131180D01*
X140067Y132843D01*
X144413Y132843D01*
X148427Y131180D01*
X151500Y128107D01*
X153163Y124093D01*
X153163Y119747D01*
X151500Y115733D01*
X148427Y112660D01*
X144413Y110997D01*
X140067Y110997D01*
G37*
%LPD*%
%LPC*%
G36*
X295007Y215137D02*
X295007Y215137D01*
X290993Y216800D01*
X287920Y219873D01*
X286257Y223887D01*
X286257Y228233D01*
X287920Y232247D01*
X290993Y235320D01*
X295007Y236983D01*
X299353Y236983D01*
X303367Y235320D01*
X306440Y232247D01*
X308103Y228233D01*
X308103Y223887D01*
X306440Y219873D01*
X303367Y216800D01*
X299353Y215137D01*
X295007Y215137D01*
G37*
%LPD*%
%LPC*%
G36*
X142607Y240537D02*
X142607Y240537D01*
X138593Y242200D01*
X135520Y245273D01*
X133857Y249287D01*
X133857Y253633D01*
X135520Y257647D01*
X138593Y260720D01*
X142607Y262383D01*
X146953Y262383D01*
X150967Y260720D01*
X154040Y257647D01*
X155703Y253633D01*
X155703Y249287D01*
X154040Y245273D01*
X150967Y242200D01*
X146953Y240537D01*
X142607Y240537D01*
G37*
%LPD*%
%LPC*%
G36*
X142607Y392937D02*
X142607Y392937D01*
X138593Y394600D01*
X135520Y397673D01*
X133857Y401687D01*
X133857Y406033D01*
X135520Y410047D01*
X138593Y413120D01*
X142607Y414783D01*
X146953Y414783D01*
X150967Y413120D01*
X154040Y410047D01*
X155703Y406033D01*
X155703Y401687D01*
X154040Y397673D01*
X150967Y394600D01*
X146953Y392937D01*
X142607Y392937D01*
G37*
%LPD*%
%LPC*%
G36*
X295007Y392937D02*
X295007Y392937D01*
X290993Y394600D01*
X287920Y397673D01*
X286257Y401687D01*
X286257Y406033D01*
X287920Y410047D01*
X290993Y413120D01*
X295007Y414783D01*
X299353Y414783D01*
X303367Y413120D01*
X306440Y410047D01*
X308103Y406033D01*
X308103Y401687D01*
X306440Y397673D01*
X303367Y394600D01*
X299353Y392937D01*
X295007Y392937D01*
G37*
%LPD*%
%LPC*%
G36*
X295007Y342137D02*
X295007Y342137D01*
X290993Y343800D01*
X287920Y346873D01*
X286257Y350887D01*
X286257Y355233D01*
X287920Y359247D01*
X290993Y362320D01*
X295007Y363983D01*
X299353Y363983D01*
X303367Y362320D01*
X306440Y359247D01*
X308103Y355233D01*
X308103Y350887D01*
X306440Y346873D01*
X303367Y343800D01*
X299353Y342137D01*
X295007Y342137D01*
G37*
%LPD*%
%LPC*%
G36*
X142607Y342137D02*
X142607Y342137D01*
X138593Y343800D01*
X135520Y346873D01*
X133857Y350887D01*
X133857Y355233D01*
X135520Y359247D01*
X138593Y362320D01*
X142607Y363983D01*
X146953Y363983D01*
X150967Y362320D01*
X154040Y359247D01*
X155703Y355233D01*
X155703Y350887D01*
X154040Y346873D01*
X150967Y343800D01*
X146953Y342137D01*
X142607Y342137D01*
G37*
%LPD*%
%LPC*%
G36*
X295007Y316737D02*
X295007Y316737D01*
X290993Y318400D01*
X287920Y321473D01*
X286257Y325487D01*
X286257Y329833D01*
X287920Y333847D01*
X290993Y336920D01*
X295007Y338583D01*
X299353Y338583D01*
X303367Y336920D01*
X306440Y333847D01*
X308103Y329833D01*
X308103Y325487D01*
X306440Y321473D01*
X303367Y318400D01*
X299353Y316737D01*
X295007Y316737D01*
G37*
%LPD*%
%LPC*%
G36*
X142607Y316737D02*
X142607Y316737D01*
X138593Y318400D01*
X135520Y321473D01*
X133857Y325487D01*
X133857Y329833D01*
X135520Y333847D01*
X138593Y336920D01*
X142607Y338583D01*
X146953Y338583D01*
X150967Y336920D01*
X154040Y333847D01*
X155703Y329833D01*
X155703Y325487D01*
X154040Y321473D01*
X150967Y318400D01*
X146953Y316737D01*
X142607Y316737D01*
G37*
%LPD*%
%LPC*%
G36*
X142607Y418337D02*
X142607Y418337D01*
X138593Y420000D01*
X135520Y423073D01*
X133857Y427087D01*
X133857Y431433D01*
X135520Y435447D01*
X138593Y438520D01*
X142607Y440183D01*
X146953Y440183D01*
X150967Y438520D01*
X154040Y435447D01*
X155703Y431433D01*
X155703Y427087D01*
X154040Y423073D01*
X150967Y420000D01*
X146953Y418337D01*
X142607Y418337D01*
G37*
%LPD*%
%LPC*%
G36*
X295007Y418337D02*
X295007Y418337D01*
X290993Y420000D01*
X287920Y423073D01*
X286257Y427087D01*
X286257Y431433D01*
X287920Y435447D01*
X290993Y438520D01*
X295007Y440183D01*
X299353Y440183D01*
X303367Y438520D01*
X306440Y435447D01*
X308103Y431433D01*
X308103Y427087D01*
X306440Y423073D01*
X303367Y420000D01*
X299353Y418337D01*
X295007Y418337D01*
G37*
%LPD*%
%LPC*%
G36*
X295007Y291337D02*
X295007Y291337D01*
X290993Y293000D01*
X287920Y296073D01*
X286257Y300087D01*
X286257Y304433D01*
X287920Y308447D01*
X290993Y311520D01*
X295007Y313183D01*
X299353Y313183D01*
X303367Y311520D01*
X306440Y308447D01*
X308103Y304433D01*
X308103Y300087D01*
X306440Y296073D01*
X303367Y293000D01*
X299353Y291337D01*
X295007Y291337D01*
G37*
%LPD*%
%LPC*%
G36*
X142607Y291337D02*
X142607Y291337D01*
X138593Y293000D01*
X135520Y296073D01*
X133857Y300087D01*
X133857Y304433D01*
X135520Y308447D01*
X138593Y311520D01*
X142607Y313183D01*
X146953Y313183D01*
X150967Y311520D01*
X154040Y308447D01*
X155703Y304433D01*
X155703Y300087D01*
X154040Y296073D01*
X150967Y293000D01*
X146953Y291337D01*
X142607Y291337D01*
G37*
%LPD*%
%LPC*%
G36*
X142607Y443737D02*
X142607Y443737D01*
X138593Y445400D01*
X135520Y448473D01*
X133857Y452487D01*
X133857Y456833D01*
X135520Y460847D01*
X138593Y463920D01*
X142607Y465583D01*
X146953Y465583D01*
X150967Y463920D01*
X154040Y460847D01*
X155703Y456833D01*
X155703Y452487D01*
X154040Y448473D01*
X150967Y445400D01*
X146953Y443737D01*
X142607Y443737D01*
G37*
%LPD*%
%LPC*%
G36*
X142607Y265937D02*
X142607Y265937D01*
X138593Y267600D01*
X135520Y270673D01*
X133857Y274687D01*
X133857Y279033D01*
X135520Y283047D01*
X138593Y286120D01*
X142607Y287783D01*
X146953Y287783D01*
X150967Y286120D01*
X154040Y283047D01*
X155703Y279033D01*
X155703Y274687D01*
X154040Y270673D01*
X150967Y267600D01*
X146953Y265937D01*
X142607Y265937D01*
G37*
%LPD*%
%LPC*%
G36*
X190867Y110997D02*
X190867Y110997D01*
X186853Y112660D01*
X183780Y115733D01*
X182117Y119747D01*
X182117Y124093D01*
X183780Y128107D01*
X186853Y131180D01*
X190867Y132843D01*
X195213Y132843D01*
X199227Y131180D01*
X202300Y128107D01*
X203963Y124093D01*
X203963Y119747D01*
X202300Y115733D01*
X199227Y112660D01*
X195213Y110997D01*
X190867Y110997D01*
G37*
%LPD*%
%LPC*%
G36*
X295007Y240537D02*
X295007Y240537D01*
X290993Y242200D01*
X287920Y245273D01*
X286257Y249287D01*
X286257Y253633D01*
X287920Y257647D01*
X290993Y260720D01*
X295007Y262383D01*
X299353Y262383D01*
X303367Y260720D01*
X306440Y257647D01*
X308103Y253633D01*
X308103Y249287D01*
X306440Y245273D01*
X303367Y242200D01*
X299353Y240537D01*
X295007Y240537D01*
G37*
%LPD*%
%LPC*%
G36*
X322947Y47497D02*
X322947Y47497D01*
X318933Y49160D01*
X315860Y52233D01*
X314197Y56247D01*
X314197Y60593D01*
X315860Y64607D01*
X318933Y67680D01*
X322947Y69343D01*
X327293Y69343D01*
X331307Y67680D01*
X334380Y64607D01*
X336043Y60593D01*
X336043Y56247D01*
X334380Y52233D01*
X331307Y49160D01*
X327293Y47497D01*
X322947Y47497D01*
G37*
%LPD*%
%LPC*%
G36*
X322947Y123697D02*
X322947Y123697D01*
X318933Y125360D01*
X315860Y128433D01*
X314197Y132447D01*
X314197Y136793D01*
X315860Y140807D01*
X318933Y143880D01*
X322947Y145543D01*
X327293Y145543D01*
X331307Y143880D01*
X334380Y140807D01*
X336043Y136793D01*
X336043Y132447D01*
X334380Y128433D01*
X331307Y125360D01*
X327293Y123697D01*
X322947Y123697D01*
G37*
%LPD*%
%LPC*%
G36*
X546568Y70865D02*
X546568Y70865D01*
X542740Y72451D01*
X539811Y75380D01*
X538225Y79208D01*
X538225Y83352D01*
X539811Y87180D01*
X542740Y90109D01*
X546568Y91695D01*
X550712Y91695D01*
X554540Y90109D01*
X557469Y87180D01*
X559055Y83352D01*
X559055Y79208D01*
X557469Y75380D01*
X554540Y72451D01*
X550712Y70865D01*
X546568Y70865D01*
G37*
%LPD*%
%LPC*%
G36*
X350988Y223265D02*
X350988Y223265D01*
X347160Y224851D01*
X344231Y227780D01*
X342645Y231608D01*
X342645Y235752D01*
X344231Y239580D01*
X347160Y242509D01*
X350988Y244095D01*
X355132Y244095D01*
X358960Y242509D01*
X361889Y239580D01*
X363475Y235752D01*
X363475Y231608D01*
X361889Y227780D01*
X358960Y224851D01*
X355132Y223265D01*
X350988Y223265D01*
G37*
%LPD*%
%LPC*%
G36*
X381657Y335815D02*
X381657Y335815D01*
X378995Y338477D01*
X378995Y342243D01*
X381657Y344905D01*
X383753Y344905D01*
X383774Y344921D01*
X383788Y344919D01*
X407677Y368809D01*
X410621Y368809D01*
X410643Y368825D01*
X410656Y368823D01*
X412137Y370305D01*
X415903Y370305D01*
X418565Y367643D01*
X418565Y363877D01*
X415903Y361215D01*
X412137Y361215D01*
X410656Y362697D01*
X410629Y362701D01*
X410621Y362711D01*
X410223Y362711D01*
X410202Y362695D01*
X410188Y362697D01*
X388099Y340608D01*
X388097Y340592D01*
X388087Y340584D01*
X388091Y340578D01*
X388085Y340573D01*
X388085Y338477D01*
X385423Y335815D01*
X381657Y335815D01*
G37*
%LPD*%
%LPC*%
G36*
X746859Y395069D02*
X746859Y395069D01*
X746859Y411036D01*
X748024Y411036D01*
X750522Y410641D01*
X752927Y409859D01*
X755181Y408711D01*
X757227Y407225D01*
X759015Y405437D01*
X760501Y403391D01*
X761649Y401137D01*
X762431Y398732D01*
X762826Y396234D01*
X762826Y395069D01*
X746859Y395069D01*
G37*
%LPD*%
%LPC*%
G36*
X746859Y394871D02*
X746859Y394871D01*
X762826Y394871D01*
X762826Y393706D01*
X762431Y391208D01*
X761649Y388803D01*
X760501Y386549D01*
X759015Y384503D01*
X757227Y382715D01*
X755181Y381229D01*
X752927Y380081D01*
X750522Y379299D01*
X748024Y378904D01*
X746859Y378904D01*
X746859Y394871D01*
G37*
%LPD*%
%LPC*%
G36*
X730694Y395069D02*
X730694Y395069D01*
X730694Y396234D01*
X731089Y398732D01*
X731871Y401137D01*
X733019Y403391D01*
X734505Y405437D01*
X736293Y407225D01*
X738339Y408711D01*
X740593Y409859D01*
X742998Y410641D01*
X745496Y411036D01*
X746661Y411036D01*
X746661Y395069D01*
X730694Y395069D01*
G37*
%LPD*%
%LPC*%
G36*
X745496Y378904D02*
X745496Y378904D01*
X742998Y379299D01*
X740593Y380081D01*
X738339Y381229D01*
X736293Y382715D01*
X734505Y384503D01*
X733019Y386549D01*
X731871Y388803D01*
X731089Y391208D01*
X730694Y393706D01*
X730694Y394871D01*
X746661Y394871D01*
X746661Y378904D01*
X745496Y378904D01*
G37*
%LPD*%
%LPC*%
G36*
X571599Y212419D02*
X571599Y212419D01*
X571599Y227986D01*
X572733Y227986D01*
X575168Y227600D01*
X577514Y226838D01*
X579711Y225719D01*
X581706Y224269D01*
X583449Y222526D01*
X584899Y220531D01*
X586018Y218334D01*
X586780Y215988D01*
X587166Y213553D01*
X587166Y212419D01*
X571599Y212419D01*
G37*
%LPD*%
%LPC*%
G36*
X555834Y212419D02*
X555834Y212419D01*
X555834Y213553D01*
X556220Y215988D01*
X556982Y218334D01*
X558101Y220531D01*
X559551Y222526D01*
X561294Y224269D01*
X563289Y225719D01*
X565486Y226838D01*
X567832Y227600D01*
X570267Y227986D01*
X571401Y227986D01*
X571401Y212419D01*
X555834Y212419D01*
G37*
%LPD*%
%LPC*%
G36*
X571599Y196654D02*
X571599Y196654D01*
X571599Y212221D01*
X587166Y212221D01*
X587166Y211087D01*
X586780Y208652D01*
X586018Y206306D01*
X584899Y204109D01*
X583449Y202114D01*
X581706Y200371D01*
X579711Y198921D01*
X577514Y197802D01*
X575168Y197040D01*
X572733Y196654D01*
X571599Y196654D01*
G37*
%LPD*%
%LPC*%
G36*
X570267Y196654D02*
X570267Y196654D01*
X567832Y197040D01*
X565486Y197802D01*
X563289Y198921D01*
X561294Y200371D01*
X559551Y202114D01*
X558101Y204109D01*
X556982Y206306D01*
X556220Y208652D01*
X555834Y211087D01*
X555834Y212221D01*
X571401Y212221D01*
X571401Y196654D01*
X570267Y196654D01*
G37*
%LPD*%
%LPC*%
G36*
X144879Y378559D02*
X144879Y378559D01*
X144879Y390399D01*
X145720Y390399D01*
X147576Y390105D01*
X149363Y389524D01*
X151037Y388671D01*
X152558Y387566D01*
X153886Y386238D01*
X154991Y384717D01*
X155844Y383043D01*
X156425Y381256D01*
X156719Y379400D01*
X156719Y378559D01*
X144879Y378559D01*
G37*
%LPD*%
%LPC*%
G36*
X325219Y83919D02*
X325219Y83919D01*
X325219Y95759D01*
X326060Y95759D01*
X327916Y95465D01*
X329703Y94884D01*
X331377Y94031D01*
X332898Y92926D01*
X334226Y91598D01*
X335331Y90077D01*
X336184Y88403D01*
X336765Y86616D01*
X337059Y84760D01*
X337059Y83919D01*
X325219Y83919D01*
G37*
%LPD*%
%LPC*%
G36*
X325219Y109319D02*
X325219Y109319D01*
X325219Y121159D01*
X326060Y121159D01*
X327916Y120865D01*
X329703Y120284D01*
X331377Y119431D01*
X332898Y118326D01*
X334226Y116998D01*
X335331Y115477D01*
X336184Y113803D01*
X336765Y112016D01*
X337059Y110160D01*
X337059Y109319D01*
X325219Y109319D01*
G37*
%LPD*%
%LPC*%
G36*
X218539Y122019D02*
X218539Y122019D01*
X218539Y133859D01*
X219380Y133859D01*
X221236Y133565D01*
X223023Y132984D01*
X224697Y132131D01*
X226218Y131026D01*
X227546Y129698D01*
X228651Y128177D01*
X229504Y126503D01*
X230085Y124716D01*
X230379Y122860D01*
X230379Y122019D01*
X218539Y122019D01*
G37*
%LPD*%
%LPC*%
G36*
X167739Y122019D02*
X167739Y122019D01*
X167739Y133859D01*
X168580Y133859D01*
X170436Y133565D01*
X172223Y132984D01*
X173897Y132131D01*
X175418Y131026D01*
X176746Y129698D01*
X177851Y128177D01*
X178704Y126503D01*
X179285Y124716D01*
X179579Y122860D01*
X179579Y122019D01*
X167739Y122019D01*
G37*
%LPD*%
%LPC*%
G36*
X313181Y83919D02*
X313181Y83919D01*
X313181Y84760D01*
X313475Y86616D01*
X314056Y88403D01*
X314909Y90077D01*
X316014Y91598D01*
X317342Y92926D01*
X318863Y94031D01*
X320537Y94884D01*
X322324Y95465D01*
X324180Y95759D01*
X325021Y95759D01*
X325021Y83919D01*
X313181Y83919D01*
G37*
%LPD*%
%LPC*%
G36*
X155701Y122019D02*
X155701Y122019D01*
X155701Y122860D01*
X155995Y124716D01*
X156576Y126503D01*
X157429Y128177D01*
X158534Y129698D01*
X159862Y131026D01*
X161383Y132131D01*
X163057Y132984D01*
X164844Y133565D01*
X166700Y133859D01*
X167541Y133859D01*
X167541Y122019D01*
X155701Y122019D01*
G37*
%LPD*%
%LPC*%
G36*
X206501Y122019D02*
X206501Y122019D01*
X206501Y122860D01*
X206795Y124716D01*
X207376Y126503D01*
X208229Y128177D01*
X209334Y129698D01*
X210662Y131026D01*
X212183Y132131D01*
X213857Y132984D01*
X215644Y133565D01*
X217500Y133859D01*
X218341Y133859D01*
X218341Y122019D01*
X206501Y122019D01*
G37*
%LPD*%
%LPC*%
G36*
X132841Y378559D02*
X132841Y378559D01*
X132841Y379400D01*
X133135Y381256D01*
X133716Y383043D01*
X134569Y384717D01*
X135674Y386238D01*
X137002Y387566D01*
X138523Y388671D01*
X140197Y389524D01*
X141984Y390105D01*
X143840Y390399D01*
X144681Y390399D01*
X144681Y378559D01*
X132841Y378559D01*
G37*
%LPD*%
%LPC*%
G36*
X218539Y109981D02*
X218539Y109981D01*
X218539Y121821D01*
X230379Y121821D01*
X230379Y120980D01*
X230085Y119124D01*
X229504Y117337D01*
X228651Y115663D01*
X227546Y114142D01*
X226218Y112814D01*
X224697Y111709D01*
X223023Y110856D01*
X221236Y110275D01*
X219380Y109981D01*
X218539Y109981D01*
G37*
%LPD*%
%LPC*%
G36*
X313181Y109319D02*
X313181Y109319D01*
X313181Y110160D01*
X313475Y112016D01*
X314056Y113803D01*
X314909Y115477D01*
X316014Y116998D01*
X317342Y118326D01*
X318863Y119431D01*
X320537Y120284D01*
X322324Y120865D01*
X324180Y121159D01*
X325021Y121159D01*
X325021Y109319D01*
X313181Y109319D01*
G37*
%LPD*%
%LPC*%
G36*
X167739Y109981D02*
X167739Y109981D01*
X167739Y121821D01*
X179579Y121821D01*
X179579Y120980D01*
X179285Y119124D01*
X178704Y117337D01*
X177851Y115663D01*
X176746Y114142D01*
X175418Y112814D01*
X173897Y111709D01*
X172223Y110856D01*
X170436Y110275D01*
X168580Y109981D01*
X167739Y109981D01*
G37*
%LPD*%
%LPC*%
G36*
X325219Y71881D02*
X325219Y71881D01*
X325219Y83721D01*
X337059Y83721D01*
X337059Y82880D01*
X336765Y81024D01*
X336184Y79237D01*
X335331Y77563D01*
X334226Y76042D01*
X332898Y74714D01*
X331377Y73609D01*
X329703Y72756D01*
X327916Y72175D01*
X326060Y71881D01*
X325219Y71881D01*
G37*
%LPD*%
%LPC*%
G36*
X325219Y97281D02*
X325219Y97281D01*
X325219Y109121D01*
X337059Y109121D01*
X337059Y108280D01*
X336765Y106424D01*
X336184Y104637D01*
X335331Y102963D01*
X334226Y101442D01*
X332898Y100114D01*
X331377Y99009D01*
X329703Y98156D01*
X327916Y97575D01*
X326060Y97281D01*
X325219Y97281D01*
G37*
%LPD*%
%LPC*%
G36*
X144879Y366521D02*
X144879Y366521D01*
X144879Y378361D01*
X156719Y378361D01*
X156719Y377520D01*
X156425Y375664D01*
X155844Y373877D01*
X154991Y372203D01*
X153886Y370682D01*
X152558Y369354D01*
X151037Y368249D01*
X149363Y367396D01*
X147576Y366815D01*
X145720Y366521D01*
X144879Y366521D01*
G37*
%LPD*%
%LPC*%
G36*
X324180Y71881D02*
X324180Y71881D01*
X322324Y72175D01*
X320537Y72756D01*
X318863Y73609D01*
X317342Y74714D01*
X316014Y76042D01*
X314909Y77563D01*
X314056Y79237D01*
X313475Y81024D01*
X313181Y82880D01*
X313181Y83721D01*
X325021Y83721D01*
X325021Y71881D01*
X324180Y71881D01*
G37*
%LPD*%
%LPC*%
G36*
X166700Y109981D02*
X166700Y109981D01*
X164844Y110275D01*
X163057Y110856D01*
X161383Y111709D01*
X159862Y112814D01*
X158534Y114142D01*
X157429Y115663D01*
X156576Y117337D01*
X155995Y119124D01*
X155701Y120980D01*
X155701Y121821D01*
X167541Y121821D01*
X167541Y109981D01*
X166700Y109981D01*
G37*
%LPD*%
%LPC*%
G36*
X217500Y109981D02*
X217500Y109981D01*
X215644Y110275D01*
X213857Y110856D01*
X212183Y111709D01*
X210662Y112814D01*
X209334Y114142D01*
X208229Y115663D01*
X207376Y117337D01*
X206795Y119124D01*
X206501Y120980D01*
X206501Y121821D01*
X218341Y121821D01*
X218341Y109981D01*
X217500Y109981D01*
G37*
%LPD*%
%LPC*%
G36*
X324180Y97281D02*
X324180Y97281D01*
X322324Y97575D01*
X320537Y98156D01*
X318863Y99009D01*
X317342Y100114D01*
X316014Y101442D01*
X314909Y102963D01*
X314056Y104637D01*
X313475Y106424D01*
X313181Y108280D01*
X313181Y109121D01*
X325021Y109121D01*
X325021Y97281D01*
X324180Y97281D01*
G37*
%LPD*%
%LPC*%
G36*
X143840Y366521D02*
X143840Y366521D01*
X141984Y366815D01*
X140197Y367396D01*
X138523Y368249D01*
X137002Y369354D01*
X135674Y370682D01*
X134569Y372203D01*
X133716Y373877D01*
X133135Y375664D01*
X132841Y377520D01*
X132841Y378361D01*
X144681Y378361D01*
X144681Y366521D01*
X143840Y366521D01*
G37*
%LPD*%
%LPC*%
G36*
X353159Y208379D02*
X353159Y208379D01*
X353159Y219711D01*
X357795Y219711D01*
X364491Y213015D01*
X364491Y208379D01*
X353159Y208379D01*
G37*
%LPD*%
%LPC*%
G36*
X548739Y55979D02*
X548739Y55979D01*
X548739Y67311D01*
X553375Y67311D01*
X560071Y60615D01*
X560071Y55979D01*
X548739Y55979D01*
G37*
%LPD*%
%LPC*%
G36*
X612239Y264259D02*
X612239Y264259D01*
X612239Y275591D01*
X616875Y275591D01*
X623571Y268895D01*
X623571Y264259D01*
X612239Y264259D01*
G37*
%LPD*%
%LPC*%
G36*
X341629Y208379D02*
X341629Y208379D01*
X341629Y213015D01*
X348325Y219711D01*
X352961Y219711D01*
X352961Y208379D01*
X341629Y208379D01*
G37*
%LPD*%
%LPC*%
G36*
X415289Y177899D02*
X415289Y177899D01*
X415289Y182535D01*
X421985Y189231D01*
X426621Y189231D01*
X426621Y177899D01*
X415289Y177899D01*
G37*
%LPD*%
%LPC*%
G36*
X537209Y55979D02*
X537209Y55979D01*
X537209Y60615D01*
X543905Y67311D01*
X548541Y67311D01*
X548541Y55979D01*
X537209Y55979D01*
G37*
%LPD*%
%LPC*%
G36*
X612239Y252729D02*
X612239Y252729D01*
X612239Y264061D01*
X623571Y264061D01*
X623571Y259425D01*
X616875Y252729D01*
X612239Y252729D01*
G37*
%LPD*%
%LPC*%
G36*
X600709Y264259D02*
X600709Y264259D01*
X600709Y268895D01*
X607405Y275591D01*
X612041Y275591D01*
X612041Y264259D01*
X600709Y264259D01*
G37*
%LPD*%
%LPC*%
G36*
X426819Y166369D02*
X426819Y166369D01*
X426819Y177701D01*
X438151Y177701D01*
X438151Y173065D01*
X431455Y166369D01*
X426819Y166369D01*
G37*
%LPD*%
%LPC*%
G36*
X548739Y44449D02*
X548739Y44449D01*
X548739Y55781D01*
X560071Y55781D01*
X560071Y51145D01*
X553375Y44449D01*
X548739Y44449D01*
G37*
%LPD*%
%LPC*%
G36*
X353159Y196849D02*
X353159Y196849D01*
X353159Y208181D01*
X364491Y208181D01*
X364491Y203545D01*
X357795Y196849D01*
X353159Y196849D01*
G37*
%LPD*%
%LPC*%
G36*
X607405Y252729D02*
X607405Y252729D01*
X600709Y259425D01*
X600709Y264061D01*
X612041Y264061D01*
X612041Y252729D01*
X607405Y252729D01*
G37*
%LPD*%
%LPC*%
G36*
X543905Y44449D02*
X543905Y44449D01*
X537209Y51145D01*
X537209Y55781D01*
X548541Y55781D01*
X548541Y44449D01*
X543905Y44449D01*
G37*
%LPD*%
%LPC*%
G36*
X421985Y166369D02*
X421985Y166369D01*
X415289Y173065D01*
X415289Y177701D01*
X426621Y177701D01*
X426621Y166369D01*
X421985Y166369D01*
G37*
%LPD*%
%LPC*%
G36*
X348325Y196849D02*
X348325Y196849D01*
X341629Y203545D01*
X341629Y208181D01*
X352961Y208181D01*
X352961Y196849D01*
X348325Y196849D01*
G37*
%LPD*%
%LPC*%
G36*
X325119Y109219D02*
X325119Y109219D01*
X325119Y109221D01*
X325121Y109221D01*
X325121Y109219D01*
X325119Y109219D01*
G37*
%LPD*%
%LPC*%
G36*
X325119Y83819D02*
X325119Y83819D01*
X325119Y83821D01*
X325121Y83821D01*
X325121Y83819D01*
X325119Y83819D01*
G37*
%LPD*%
%LPC*%
G36*
X167639Y121919D02*
X167639Y121919D01*
X167639Y121921D01*
X167641Y121921D01*
X167641Y121919D01*
X167639Y121919D01*
G37*
%LPD*%
%LPC*%
G36*
X218439Y121919D02*
X218439Y121919D01*
X218439Y121921D01*
X218441Y121921D01*
X218441Y121919D01*
X218439Y121919D01*
G37*
%LPD*%
%LPC*%
G36*
X426719Y177799D02*
X426719Y177799D01*
X426719Y177801D01*
X426721Y177801D01*
X426721Y177799D01*
X426719Y177799D01*
G37*
%LPD*%
%LPC*%
G36*
X746759Y394969D02*
X746759Y394969D01*
X746759Y394971D01*
X746761Y394971D01*
X746761Y394969D01*
X746759Y394969D01*
G37*
%LPD*%
%LPC*%
G36*
X571499Y212319D02*
X571499Y212319D01*
X571499Y212321D01*
X571501Y212321D01*
X571501Y212319D01*
X571499Y212319D01*
G37*
%LPD*%
%LPC*%
G36*
X548639Y55879D02*
X548639Y55879D01*
X548639Y55881D01*
X548641Y55881D01*
X548641Y55879D01*
X548639Y55879D01*
G37*
%LPD*%
%LPC*%
G36*
X612139Y264159D02*
X612139Y264159D01*
X612139Y264161D01*
X612141Y264161D01*
X612141Y264159D01*
X612139Y264159D01*
G37*
%LPD*%
%LPC*%
G36*
X144779Y378459D02*
X144779Y378459D01*
X144779Y378461D01*
X144781Y378461D01*
X144781Y378459D01*
X144779Y378459D01*
G37*
%LPD*%
%LPC*%
G36*
X353059Y208279D02*
X353059Y208279D01*
X353059Y208281D01*
X353061Y208281D01*
X353061Y208279D01*
X353059Y208279D01*
G37*
%LPD*%
D10*
X612140Y264160D03*
D11*
X586740Y264160D03*
D12*
X548640Y55880D03*
D11*
X548640Y81280D03*
D12*
X426720Y177800D03*
D11*
X426720Y203200D03*
D12*
X353060Y208280D03*
D11*
X353060Y233680D03*
D13*
X746760Y436880D03*
D14*
X746760Y394970D03*
X746760Y352806D03*
X691642Y436880D03*
X691642Y394970D03*
X691642Y352806D03*
D15*
X819658Y436880D03*
X819658Y352806D03*
D16*
X571500Y172720D03*
D17*
X571500Y212320D03*
D18*
X325120Y134620D03*
X325120Y109220D03*
X325120Y83820D03*
X325120Y58420D03*
X325120Y33020D03*
X142240Y121920D03*
X167640Y121920D03*
X193040Y121920D03*
X218440Y121920D03*
X144780Y454660D03*
X144780Y429260D03*
X144780Y403860D03*
X144780Y378460D03*
X144780Y353060D03*
X144780Y327660D03*
X144780Y302260D03*
X144780Y276860D03*
X144780Y251460D03*
X144780Y226060D03*
X144780Y200660D03*
X144780Y175260D03*
X297180Y175260D03*
X297180Y200660D03*
X297180Y226060D03*
X297180Y251460D03*
X297180Y276860D03*
X297180Y302260D03*
X297180Y327660D03*
X297180Y353060D03*
X297180Y378460D03*
X297180Y403860D03*
X297180Y429260D03*
X297180Y454660D03*
D19*
X576580Y393700D03*
X556260Y302260D03*
X518160Y360680D03*
X688340Y467360D03*
X601980Y477520D03*
X548640Y444500D03*
X566420Y444500D03*
X548640Y429260D03*
X566420Y429260D03*
X548640Y414020D03*
X566420Y411480D03*
X495300Y482600D03*
X381000Y276860D03*
D20*
X365760Y292100D01*
X365760Y317500D01*
D19*
X381000Y317500D03*
X381000Y358140D03*
X327660Y403860D03*
X414020Y276860D03*
X452120Y368300D03*
X360680Y444500D03*
X419100Y403860D03*
X497840Y213360D03*
X619760Y421640D03*
D21*
X619760Y464820D01*
X629920Y474980D01*
X637540Y474980D01*
D19*
X637540Y474980D03*
D22*
X586740Y379012D02*
X586740Y264160D01*
X599666Y401546D02*
X619760Y421640D01*
X599666Y391938D02*
X586740Y379012D01*
X599666Y391938D02*
X599666Y401546D01*
D19*
X571500Y464820D03*
D20*
X574040Y467360D01*
X604520Y467360D01*
X622300Y485140D02*
X698500Y485140D01*
X718820Y464820D01*
D19*
X718820Y464820D03*
D20*
X622300Y485140D02*
X604520Y467360D01*
X571500Y464820D02*
X502920Y464820D01*
X435642Y420930D02*
X432392Y424180D01*
X337820Y424180D01*
X435642Y420930D02*
X459030Y420930D01*
X502920Y464820D01*
D19*
X337820Y423340D03*
D20*
X337820Y424180D01*
D22*
X746760Y352806D02*
X746760Y220980D01*
X665480Y139700D01*
X490220Y139700D01*
X426720Y203200D01*
D19*
X438471Y430300D03*
D23*
X329160Y430300D01*
X322580Y436880D01*
D19*
X322580Y436880D03*
X383540Y340360D03*
D20*
X408940Y365760D01*
X414020Y365760D01*
D19*
X414020Y365760D03*
M02*
