G04 EAGLE Gerber RS-274X export*
G75*
%MOMM*%
%FSLAX34Y34*%
%LPD*%
%INTop Copper*%
%IPPOS*%
%AMOC8*
5,1,8,0,0,1.08239X$1,22.5*%
G01*
%ADD10R,1.400000X1.100000*%
%ADD11R,1.100000X1.400000*%
%ADD12P,1.924489X8X22.500000*%
%ADD13C,1.778000*%
%ADD14P,1.924489X8X292.500000*%
%ADD15R,0.830000X0.630000*%
%ADD16R,1.000000X1.400000*%
%ADD17R,2.705100X2.705100*%
%ADD18C,2.705100*%
%ADD19C,4.013200*%
%ADD20R,2.625000X2.625000*%
%ADD21C,2.625000*%
%ADD22C,1.879600*%
%ADD23R,0.660400X1.270000*%
%ADD24R,1.270000X0.660400*%
%ADD25R,1.400000X0.450000*%
%ADD26R,3.400000X5.000000*%
%ADD27C,0.500000*%
%ADD28R,1.200000X0.600000*%
%ADD29C,0.406400*%
%ADD30C,0.152400*%
%ADD31C,0.604000*%
%ADD32C,0.200000*%
%ADD33C,0.304800*%
%ADD34C,0.203200*%
%ADD35C,0.812800*%
%ADD36C,1.016000*%

G36*
X701130Y375174D02*
X701130Y375174D01*
X701221Y375181D01*
X701251Y375193D01*
X701283Y375199D01*
X701363Y375241D01*
X701447Y375277D01*
X701479Y375303D01*
X701500Y375314D01*
X701522Y375337D01*
X701578Y375382D01*
X709198Y383002D01*
X709241Y383062D01*
X709282Y383104D01*
X709289Y383120D01*
X709311Y383145D01*
X709323Y383175D01*
X709342Y383201D01*
X709369Y383288D01*
X709376Y383307D01*
X709386Y383328D01*
X709386Y383332D01*
X709403Y383373D01*
X709407Y383414D01*
X709414Y383437D01*
X709413Y383469D01*
X709421Y383540D01*
X709421Y403860D01*
X709407Y403950D01*
X709399Y404041D01*
X709387Y404071D01*
X709382Y404103D01*
X709339Y404183D01*
X709303Y404267D01*
X709277Y404299D01*
X709266Y404320D01*
X709243Y404342D01*
X709198Y404398D01*
X701578Y412018D01*
X701504Y412071D01*
X701435Y412131D01*
X701405Y412143D01*
X701379Y412162D01*
X701292Y412189D01*
X701207Y412223D01*
X701166Y412227D01*
X701143Y412234D01*
X701111Y412233D01*
X701040Y412241D01*
X695042Y412241D01*
X695018Y412237D01*
X694994Y412240D01*
X694897Y412218D01*
X694799Y412202D01*
X694778Y412190D01*
X694755Y412185D01*
X694670Y412133D01*
X694582Y412086D01*
X694565Y412069D01*
X694545Y412056D01*
X694481Y411980D01*
X694413Y411908D01*
X694402Y411886D01*
X694387Y411868D01*
X694351Y411775D01*
X694309Y411685D01*
X694306Y411661D01*
X694298Y411639D01*
X694293Y411539D01*
X694282Y411441D01*
X694287Y411417D01*
X694286Y411393D01*
X694313Y411297D01*
X694334Y411200D01*
X694347Y411180D01*
X694353Y411156D01*
X694409Y411074D01*
X694460Y410989D01*
X694479Y410973D01*
X694492Y410954D01*
X694572Y410894D01*
X694647Y410829D01*
X694670Y410820D01*
X694689Y410806D01*
X694845Y410745D01*
X696817Y410216D01*
X698763Y409410D01*
X700587Y408357D01*
X702258Y407075D01*
X703747Y405586D01*
X705029Y403915D01*
X706082Y402091D01*
X706888Y400145D01*
X707433Y398111D01*
X707646Y396493D01*
X692404Y396493D01*
X692384Y396490D01*
X692365Y396492D01*
X692263Y396470D01*
X692161Y396453D01*
X692144Y396444D01*
X692124Y396440D01*
X692035Y396387D01*
X691944Y396338D01*
X691930Y396324D01*
X691913Y396314D01*
X691846Y396235D01*
X691775Y396160D01*
X691766Y396142D01*
X691753Y396127D01*
X691715Y396031D01*
X691671Y395937D01*
X691669Y395917D01*
X691661Y395899D01*
X691643Y395732D01*
X691643Y394969D01*
X691641Y394969D01*
X691641Y395732D01*
X691639Y395744D01*
X691640Y395752D01*
X691639Y395759D01*
X691640Y395771D01*
X691618Y395873D01*
X691601Y395975D01*
X691592Y395992D01*
X691588Y396012D01*
X691535Y396101D01*
X691486Y396192D01*
X691472Y396206D01*
X691462Y396223D01*
X691383Y396290D01*
X691308Y396361D01*
X691290Y396370D01*
X691275Y396383D01*
X691179Y396422D01*
X691085Y396465D01*
X691065Y396467D01*
X691047Y396475D01*
X690880Y396493D01*
X675638Y396493D01*
X675851Y398111D01*
X676396Y400145D01*
X677202Y402091D01*
X678255Y403915D01*
X679537Y405586D01*
X681026Y407075D01*
X682697Y408357D01*
X684521Y409410D01*
X686467Y410216D01*
X688439Y410745D01*
X688461Y410755D01*
X688485Y410759D01*
X688572Y410805D01*
X688663Y410846D01*
X688681Y410862D01*
X688702Y410874D01*
X688771Y410946D01*
X688843Y411013D01*
X688855Y411034D01*
X688871Y411052D01*
X688913Y411142D01*
X688961Y411229D01*
X688965Y411253D01*
X688975Y411275D01*
X688986Y411374D01*
X689003Y411472D01*
X688999Y411496D01*
X689002Y411519D01*
X688981Y411616D01*
X688966Y411715D01*
X688955Y411736D01*
X688950Y411760D01*
X688899Y411845D01*
X688853Y411934D01*
X688836Y411950D01*
X688824Y411971D01*
X688748Y412036D01*
X688677Y412105D01*
X688655Y412115D01*
X688637Y412131D01*
X688544Y412168D01*
X688455Y412211D01*
X688431Y412214D01*
X688409Y412223D01*
X688242Y412241D01*
X657860Y412241D01*
X657770Y412227D01*
X657679Y412219D01*
X657649Y412207D01*
X657617Y412202D01*
X657537Y412159D01*
X657453Y412123D01*
X657421Y412097D01*
X657400Y412086D01*
X657378Y412063D01*
X657322Y412018D01*
X637225Y391921D01*
X581544Y391921D01*
X581454Y391907D01*
X581363Y391899D01*
X581333Y391887D01*
X581301Y391882D01*
X581220Y391839D01*
X581136Y391803D01*
X581104Y391777D01*
X581084Y391766D01*
X581070Y391752D01*
X581069Y391751D01*
X581058Y391741D01*
X581006Y391698D01*
X578463Y389155D01*
X574697Y389155D01*
X572154Y391698D01*
X572081Y391751D01*
X572011Y391811D01*
X571981Y391823D01*
X571955Y391842D01*
X571868Y391869D01*
X571783Y391903D01*
X571742Y391907D01*
X571720Y391914D01*
X571687Y391913D01*
X571616Y391921D01*
X546415Y391921D01*
X541558Y396778D01*
X541484Y396831D01*
X541415Y396891D01*
X541385Y396903D01*
X541359Y396922D01*
X541272Y396949D01*
X541187Y396983D01*
X541146Y396987D01*
X541123Y396994D01*
X541091Y396993D01*
X541020Y397001D01*
X510540Y397001D01*
X510469Y396990D01*
X510398Y396988D01*
X510349Y396970D01*
X510297Y396962D01*
X510234Y396928D01*
X510167Y396903D01*
X510126Y396871D01*
X510080Y396846D01*
X510031Y396795D01*
X509975Y396750D01*
X509946Y396706D01*
X509911Y396668D01*
X509880Y396603D01*
X509842Y396543D01*
X509829Y396492D01*
X509807Y396445D01*
X509799Y396374D01*
X509781Y396304D01*
X509786Y396252D01*
X509780Y396201D01*
X509795Y396130D01*
X509801Y396059D01*
X509821Y396011D01*
X509832Y395960D01*
X509869Y395899D01*
X509897Y395833D01*
X509942Y395777D01*
X509958Y395749D01*
X509976Y395734D01*
X510002Y395702D01*
X530322Y375382D01*
X530396Y375329D01*
X530465Y375269D01*
X530495Y375257D01*
X530521Y375238D01*
X530608Y375211D01*
X530693Y375177D01*
X530734Y375173D01*
X530757Y375166D01*
X530789Y375167D01*
X530860Y375159D01*
X701040Y375159D01*
X701130Y375174D01*
G37*
G36*
X640122Y400693D02*
X640122Y400693D01*
X640164Y400691D01*
X640231Y400713D01*
X640301Y400725D01*
X640337Y400747D01*
X640378Y400760D01*
X640451Y400814D01*
X640494Y400840D01*
X640507Y400856D01*
X640528Y400872D01*
X655583Y415926D01*
X701040Y415926D01*
X701082Y415933D01*
X701124Y415931D01*
X701191Y415953D01*
X701261Y415965D01*
X701297Y415987D01*
X701338Y416000D01*
X701411Y416054D01*
X701454Y416080D01*
X701467Y416096D01*
X701488Y416112D01*
X711648Y426272D01*
X711673Y426306D01*
X711704Y426335D01*
X711736Y426398D01*
X711777Y426456D01*
X711787Y426497D01*
X711807Y426535D01*
X711820Y426624D01*
X711833Y426673D01*
X711830Y426694D01*
X711834Y426720D01*
X711834Y447040D01*
X711827Y447082D01*
X711829Y447124D01*
X711807Y447191D01*
X711795Y447261D01*
X711773Y447297D01*
X711760Y447338D01*
X711706Y447411D01*
X711680Y447454D01*
X711664Y447467D01*
X711648Y447488D01*
X704028Y455108D01*
X703994Y455133D01*
X703965Y455164D01*
X703902Y455196D01*
X703844Y455237D01*
X703803Y455247D01*
X703765Y455267D01*
X703676Y455280D01*
X703627Y455293D01*
X703606Y455290D01*
X703580Y455294D01*
X680720Y455294D01*
X680678Y455287D01*
X680636Y455289D01*
X680569Y455267D01*
X680499Y455255D01*
X680463Y455233D01*
X680422Y455220D01*
X680349Y455166D01*
X680306Y455140D01*
X680293Y455124D01*
X680272Y455108D01*
X637277Y412114D01*
X599440Y412114D01*
X599375Y412103D01*
X599309Y412101D01*
X599266Y412083D01*
X599219Y412075D01*
X599162Y412041D01*
X599102Y412016D01*
X599067Y411985D01*
X599026Y411960D01*
X598985Y411909D01*
X598936Y411865D01*
X598914Y411823D01*
X598885Y411786D01*
X598864Y411724D01*
X598833Y411665D01*
X598825Y411611D01*
X598813Y411574D01*
X598813Y411563D01*
X598813Y411562D01*
X598814Y411532D01*
X598806Y411480D01*
X598806Y408940D01*
X598813Y408898D01*
X598811Y408856D01*
X598828Y408803D01*
X598828Y408800D01*
X598832Y408791D01*
X598833Y408789D01*
X598845Y408719D01*
X598867Y408683D01*
X598880Y408642D01*
X598908Y408605D01*
X598913Y408593D01*
X598934Y408569D01*
X598960Y408526D01*
X598976Y408513D01*
X598992Y408492D01*
X606612Y400872D01*
X606646Y400847D01*
X606675Y400816D01*
X606738Y400784D01*
X606796Y400743D01*
X606837Y400733D01*
X606875Y400713D01*
X606964Y400700D01*
X607013Y400688D01*
X607034Y400690D01*
X607060Y400686D01*
X640080Y400686D01*
X640122Y400693D01*
G37*
%LPC*%
G36*
X692911Y438149D02*
X692911Y438149D01*
X692911Y452918D01*
X694783Y452671D01*
X696817Y452126D01*
X698763Y451320D01*
X700587Y450267D01*
X702258Y448985D01*
X703747Y447496D01*
X705029Y445825D01*
X706082Y444001D01*
X706888Y442055D01*
X707433Y440021D01*
X707680Y438149D01*
X692911Y438149D01*
G37*
%LPD*%
%LPC*%
G36*
X692911Y435611D02*
X692911Y435611D01*
X707680Y435611D01*
X707433Y433739D01*
X706888Y431705D01*
X706082Y429759D01*
X705029Y427935D01*
X703747Y426264D01*
X702258Y424775D01*
X700587Y423493D01*
X698763Y422440D01*
X696817Y421634D01*
X694783Y421089D01*
X692911Y420842D01*
X692911Y435611D01*
G37*
%LPD*%
%LPC*%
G36*
X675604Y438149D02*
X675604Y438149D01*
X675851Y440021D01*
X676396Y442055D01*
X677202Y444001D01*
X678255Y445825D01*
X679537Y447496D01*
X681026Y448985D01*
X682697Y450267D01*
X684521Y451320D01*
X686467Y452126D01*
X688501Y452671D01*
X690373Y452918D01*
X690373Y438149D01*
X675604Y438149D01*
G37*
%LPD*%
%LPC*%
G36*
X688501Y421089D02*
X688501Y421089D01*
X686467Y421634D01*
X684521Y422440D01*
X682697Y423493D01*
X681026Y424775D01*
X679537Y426264D01*
X678255Y427935D01*
X677202Y429759D01*
X676396Y431705D01*
X675851Y433739D01*
X675604Y435611D01*
X690373Y435611D01*
X690373Y420842D01*
X688501Y421089D01*
G37*
%LPD*%
%LPC*%
G36*
X693165Y393447D02*
X693165Y393447D01*
X707646Y393447D01*
X707433Y391829D01*
X706888Y389795D01*
X706082Y387849D01*
X705029Y386025D01*
X703747Y384354D01*
X702258Y382865D01*
X700587Y381583D01*
X698763Y380530D01*
X696817Y379724D01*
X694783Y379179D01*
X693165Y378966D01*
X693165Y393447D01*
G37*
%LPD*%
%LPC*%
G36*
X688501Y379179D02*
X688501Y379179D01*
X686467Y379724D01*
X684521Y380530D01*
X682697Y381583D01*
X681026Y382865D01*
X679537Y384354D01*
X678255Y386025D01*
X677202Y387849D01*
X676396Y389795D01*
X675851Y391829D01*
X675638Y393447D01*
X690119Y393447D01*
X690119Y378966D01*
X688501Y379179D01*
G37*
%LPD*%
G36*
X481349Y389204D02*
X481349Y389204D01*
X481371Y389208D01*
X481378Y389223D01*
X481387Y389229D01*
X481386Y389239D01*
X481393Y389255D01*
X481393Y403479D01*
X481381Y403498D01*
X481377Y403520D01*
X481362Y403527D01*
X481356Y403536D01*
X481346Y403535D01*
X481330Y403542D01*
X478790Y403542D01*
X478771Y403530D01*
X478749Y403526D01*
X478742Y403511D01*
X478733Y403505D01*
X478734Y403495D01*
X478727Y403479D01*
X478727Y389255D01*
X478739Y389236D01*
X478743Y389214D01*
X478758Y389207D01*
X478764Y389198D01*
X478774Y389199D01*
X478790Y389192D01*
X481330Y389192D01*
X481349Y389204D01*
G37*
G36*
X593998Y476199D02*
X593998Y476199D01*
X594020Y476203D01*
X594027Y476218D01*
X594036Y476224D01*
X594035Y476234D01*
X594042Y476250D01*
X594042Y478790D01*
X594030Y478809D01*
X594026Y478831D01*
X594011Y478838D01*
X594005Y478847D01*
X593995Y478846D01*
X593979Y478853D01*
X579755Y478853D01*
X579736Y478841D01*
X579714Y478837D01*
X579707Y478822D01*
X579698Y478816D01*
X579699Y478806D01*
X579692Y478790D01*
X579692Y476250D01*
X579704Y476231D01*
X579708Y476209D01*
X579723Y476202D01*
X579729Y476193D01*
X579739Y476194D01*
X579755Y476187D01*
X593979Y476187D01*
X593998Y476199D01*
G37*
%LPC*%
G36*
X691641Y436879D02*
X691641Y436879D01*
X691641Y436881D01*
X691643Y436881D01*
X691643Y436879D01*
X691641Y436879D01*
G37*
%LPD*%
D10*
X614680Y442120D03*
X614680Y462120D03*
X635000Y462120D03*
X635000Y442120D03*
D11*
X652940Y467360D03*
X672940Y467360D03*
X383700Y403860D03*
X403700Y403860D03*
X363060Y403860D03*
X343060Y403860D03*
D12*
X612140Y264160D03*
D13*
X586740Y264160D03*
D14*
X548640Y55880D03*
D13*
X548640Y81280D03*
D14*
X426720Y177800D03*
D13*
X426720Y203200D03*
D14*
X353060Y208280D03*
D13*
X353060Y233680D03*
D15*
X414020Y313760D03*
X414020Y290760D03*
X469900Y247720D03*
X469900Y224720D03*
D16*
X373380Y445340D03*
X382880Y423340D03*
X363880Y423340D03*
D17*
X746760Y436880D03*
D18*
X746760Y394970D03*
X746760Y352806D03*
X691642Y436880D03*
X691642Y394970D03*
X691642Y352806D03*
D19*
X819658Y436880D03*
X819658Y352806D03*
D20*
X571500Y172720D03*
D21*
X571500Y212320D03*
D22*
X325120Y134620D03*
X325120Y109220D03*
X325120Y83820D03*
X325120Y58420D03*
X325120Y33020D03*
X142240Y121920D03*
X167640Y121920D03*
X193040Y121920D03*
X218440Y121920D03*
D23*
X571246Y477520D03*
X581660Y477520D03*
X592074Y477520D03*
D24*
X480060Y380746D03*
X480060Y391160D03*
X480060Y401574D03*
D10*
X452120Y381160D03*
X452120Y401160D03*
X469900Y286860D03*
X469900Y266860D03*
X497840Y286860D03*
X497840Y266860D03*
X497840Y228760D03*
X497840Y248760D03*
D11*
X365600Y378460D03*
X345600Y378460D03*
X365600Y358140D03*
X345600Y358140D03*
X365600Y337820D03*
X345600Y337820D03*
X365600Y317500D03*
X345600Y317500D03*
X365600Y297180D03*
X345600Y297180D03*
X365600Y276860D03*
X345600Y276860D03*
X424020Y429260D03*
X404020Y429260D03*
X404020Y449580D03*
X424020Y449580D03*
D10*
X454660Y482440D03*
X454660Y462440D03*
X474980Y482440D03*
X474980Y462440D03*
D11*
X480220Y360680D03*
X500220Y360680D03*
D10*
X441960Y352900D03*
X441960Y332900D03*
X414020Y352900D03*
X414020Y332900D03*
X441960Y294800D03*
X441960Y314800D03*
D22*
X144780Y454660D03*
X144780Y429260D03*
X144780Y403860D03*
X144780Y378460D03*
X144780Y353060D03*
X144780Y327660D03*
X144780Y302260D03*
X144780Y276860D03*
X144780Y251460D03*
X144780Y226060D03*
X144780Y200660D03*
X144780Y175260D03*
X297180Y175260D03*
X297180Y200660D03*
X297180Y226060D03*
X297180Y251460D03*
X297180Y276860D03*
X297180Y302260D03*
X297180Y327660D03*
X297180Y353060D03*
X297180Y378460D03*
X297180Y403860D03*
X297180Y429260D03*
X297180Y454660D03*
D25*
X529300Y449470D03*
X529300Y442970D03*
X529300Y436470D03*
X529300Y429970D03*
X529300Y423470D03*
X529300Y416970D03*
X529300Y410470D03*
X529300Y403970D03*
X588300Y403970D03*
X588300Y410470D03*
X588300Y416970D03*
X588300Y423470D03*
X588300Y429970D03*
X588300Y436470D03*
X588300Y442970D03*
X588300Y449470D03*
D26*
X559054Y426720D03*
D27*
X558800Y426720D03*
X558800Y417220D03*
X558800Y436220D03*
X558800Y445720D03*
X558800Y407720D03*
X572300Y407720D03*
X572300Y445720D03*
X572300Y436220D03*
X572300Y417220D03*
X572300Y426720D03*
X545300Y426720D03*
X545300Y417220D03*
X545300Y436220D03*
X545300Y445720D03*
X545300Y407720D03*
D28*
X556200Y349250D03*
X556200Y336550D03*
X556200Y323850D03*
X556200Y311150D03*
X612200Y311150D03*
X612200Y323850D03*
X612200Y336550D03*
X612200Y349250D03*
D29*
X746760Y436880D02*
X777240Y436880D01*
X779780Y434340D01*
X779780Y312420D01*
X777240Y309880D01*
X683485Y309880D01*
X668033Y325332D02*
X642607Y325332D01*
X628425Y311150D02*
X612200Y311150D01*
X668033Y325332D02*
X683485Y309880D01*
X642607Y325332D02*
X628425Y311150D01*
D30*
X588300Y403970D02*
X586850Y403970D01*
X576580Y393700D01*
D31*
X576580Y393700D03*
D29*
X556200Y311150D02*
X556260Y311090D01*
X556260Y302260D01*
D31*
X556260Y302260D03*
D29*
X518160Y360680D02*
X500220Y360680D01*
D31*
X518160Y360680D03*
D32*
X559054Y436880D02*
X559054Y442970D01*
D29*
X588300Y442970D01*
D32*
X672940Y467360D02*
X688340Y467360D01*
D31*
X688340Y467360D03*
D33*
X601980Y477520D02*
X592074Y477520D01*
D31*
X601980Y477520D03*
X548640Y444500D03*
X566420Y444500D03*
X548640Y429260D03*
X566420Y429260D03*
X548640Y414020D03*
X566420Y411480D03*
D33*
X474980Y482440D02*
X454660Y482440D01*
X474980Y482440D02*
X495140Y482440D01*
X495300Y482600D01*
D31*
X495300Y482600D03*
D33*
X493800Y224720D02*
X469900Y224720D01*
X493800Y224720D02*
X497840Y228760D01*
X418060Y294800D02*
X414020Y290760D01*
X418060Y294800D02*
X441960Y294800D01*
X381000Y276860D02*
X365600Y276860D01*
D31*
X381000Y276860D03*
D33*
X381000Y317500D02*
X365600Y317500D01*
D31*
X381000Y317500D03*
D33*
X381000Y358140D02*
X365600Y358140D01*
D31*
X381000Y358140D03*
D30*
X343060Y403860D02*
X327660Y403860D01*
D31*
X327660Y403860D03*
D30*
X414020Y290760D02*
X414020Y276860D01*
D31*
X414020Y276860D03*
D30*
X452120Y368300D02*
X452120Y381160D01*
D31*
X452120Y368300D03*
D30*
X373380Y445340D02*
X361520Y445340D01*
X360680Y444500D01*
D31*
X360680Y444500D03*
D30*
X403700Y403860D02*
X419100Y403860D01*
D31*
X419100Y403860D03*
D30*
X404020Y449580D02*
X377620Y449580D01*
X373380Y445340D01*
D34*
X497840Y228760D02*
X497840Y213360D01*
D31*
X497840Y213360D03*
D34*
X559054Y426720D02*
X559054Y436880D01*
X561594Y429260D02*
X559054Y426720D01*
X561594Y429260D02*
X566420Y429260D01*
D30*
X529300Y403970D02*
X529190Y403860D01*
D29*
X520700Y403860D01*
X520700Y393700D01*
D30*
X528320Y393700D01*
D29*
X588300Y410470D02*
X606050Y410470D01*
D30*
X607060Y411480D01*
D29*
X562610Y323850D02*
X556200Y323850D01*
X571500Y332740D02*
X571500Y358140D01*
X576580Y363220D01*
X681228Y363220D02*
X691642Y352806D01*
X571500Y332740D02*
X562610Y323850D01*
X576580Y363220D02*
X681228Y363220D01*
D30*
X588300Y436470D02*
X588300Y436880D01*
D32*
X599440Y462120D02*
X614680Y462120D01*
X599440Y462120D02*
X599440Y436880D01*
X588300Y436880D01*
X588300Y429970D02*
X593650Y429970D01*
X594360Y429260D01*
X599440Y429260D01*
X612300Y442120D02*
X614680Y442120D01*
X612300Y442120D02*
X599440Y429260D01*
D29*
X588300Y416970D02*
X619760Y416970D01*
X619760Y421640D01*
D31*
X619760Y421640D03*
X637540Y474980D03*
D35*
X635000Y472440D02*
X635000Y462120D01*
X635000Y472440D02*
X637540Y474980D01*
X645160Y467360D02*
X652940Y467360D01*
X645160Y467360D02*
X637540Y474980D01*
D36*
X525780Y58420D02*
X325120Y58420D01*
X525780Y58420D02*
X548640Y81280D01*
X571500Y104140D02*
X571500Y172720D01*
X571500Y104140D02*
X548640Y81280D01*
X586740Y251460D02*
X586740Y264160D01*
X586740Y251460D02*
X614680Y223520D01*
X614680Y193040D01*
X594360Y172720D02*
X571500Y172720D01*
X594360Y172720D02*
X614680Y193040D01*
D32*
X606350Y423470D02*
X588300Y423470D01*
X606350Y423470D02*
X612140Y429260D01*
X632460Y429260D01*
X635000Y431800D01*
X635000Y442120D01*
D29*
X615950Y349250D02*
X612200Y349250D01*
X675640Y335280D02*
X685800Y325120D01*
X719074Y325120D01*
X746760Y352806D01*
X629920Y335280D02*
X615950Y349250D01*
X629920Y335280D02*
X675640Y335280D01*
X718820Y325374D02*
X719074Y325120D01*
X718820Y325374D02*
X718820Y464820D01*
D33*
X571246Y464820D02*
X571246Y477520D01*
X571246Y464820D02*
X571500Y464820D01*
D31*
X571500Y464820D03*
X718820Y464820D03*
D30*
X363060Y422520D02*
X363060Y403860D01*
X363060Y422520D02*
X363880Y423340D01*
X398940Y434340D02*
X404020Y429260D01*
X365760Y434340D02*
X363220Y431800D01*
X363220Y424000D01*
X363880Y423340D01*
X365760Y434340D02*
X398940Y434340D01*
X363880Y423340D02*
X337820Y423340D01*
X326820Y423340D01*
X317500Y414020D02*
X317500Y381000D01*
X314960Y378460D01*
X297180Y378460D01*
X317500Y414020D02*
X326820Y423340D01*
D31*
X337820Y423340D03*
D33*
X297180Y378460D02*
X281940Y363220D01*
X281940Y241300D01*
X284480Y238760D01*
D30*
X309880Y238760D01*
D36*
X353060Y233680D02*
X381000Y205740D01*
X353060Y233680D02*
X340360Y233680D01*
X325120Y218440D01*
X325120Y134620D01*
D34*
X314960Y233680D02*
X353060Y233680D01*
X314960Y233680D02*
X309880Y238760D01*
X381000Y205740D02*
X383540Y203200D01*
D36*
X426720Y203200D01*
D33*
X447040Y436470D02*
X529300Y436470D01*
X447040Y436470D02*
X447040Y449580D01*
X424020Y449580D01*
X424020Y462280D01*
X332740Y462280D01*
D30*
X157480Y200660D02*
X144780Y200660D01*
X157480Y200660D02*
X264160Y307340D01*
X264160Y431800D01*
X274320Y441960D01*
X312420Y441960D02*
X332740Y462280D01*
X312420Y441960D02*
X274320Y441960D01*
D33*
X454660Y442970D02*
X529300Y442970D01*
X454660Y442970D02*
X454660Y462440D01*
X431800Y462440D01*
X431800Y469900D01*
X386080Y469900D01*
D30*
X172720Y226060D02*
X144780Y226060D01*
X172720Y226060D02*
X256540Y309880D01*
X256540Y452120D01*
X274320Y469900D01*
X386080Y469900D01*
D33*
X475090Y449470D02*
X529300Y449470D01*
X474980Y449580D02*
X474980Y462440D01*
X474980Y449580D02*
X475090Y449470D01*
X474980Y462440D02*
X474980Y472440D01*
X439420Y472440D02*
X439420Y477520D01*
X439420Y472440D02*
X474980Y472440D01*
X439420Y477520D02*
X312420Y477520D01*
X309880Y474980D01*
D30*
X162560Y269240D02*
X144780Y251460D01*
X238760Y474980D02*
X309880Y474980D01*
X162560Y398780D02*
X162560Y269240D01*
X162560Y398780D02*
X238760Y474980D01*
D33*
X529300Y416970D02*
X529300Y416560D01*
X452120Y416560D01*
X452120Y401160D01*
X365600Y297180D02*
X355600Y297180D01*
X355600Y388620D01*
X357980Y391000D01*
X431800Y391000D01*
X441960Y401160D01*
X452120Y401160D01*
D29*
X588300Y449470D02*
X588410Y449580D01*
D33*
X588300Y449470D02*
X581660Y449470D01*
X581660Y477520D01*
D29*
X481590Y392690D02*
X480060Y391160D01*
D33*
X500380Y410470D02*
X529300Y410470D01*
X500380Y410470D02*
X500380Y391160D01*
X481590Y391160D01*
X481590Y392690D01*
D29*
X480060Y380746D02*
X480220Y360680D01*
D33*
X424020Y429260D02*
X424020Y429970D01*
X529300Y429970D01*
D30*
X276860Y307340D02*
X144780Y175260D01*
X276860Y307340D02*
X276860Y408940D01*
X284480Y416560D01*
X304800Y416560D01*
X312420Y424180D01*
X312420Y436880D01*
X424020Y429260D02*
X425060Y430300D01*
X438471Y430300D01*
D31*
X438471Y430300D03*
X322580Y436880D03*
D30*
X312420Y436880D01*
D33*
X444500Y423470D02*
X529300Y423470D01*
X444500Y423470D02*
X444500Y411480D01*
D30*
X383700Y422520D02*
X382880Y423340D01*
X383700Y422520D02*
X383700Y415686D01*
X383700Y414020D02*
X383700Y421640D01*
X383700Y414020D02*
X383700Y403860D01*
X414353Y411480D02*
X444500Y411480D01*
X414353Y411480D02*
X410147Y415686D01*
X383700Y415686D01*
D34*
X382880Y414840D02*
X383700Y414020D01*
X382880Y414840D02*
X382880Y423340D01*
D29*
X556200Y342900D02*
X556200Y336550D01*
X556200Y342900D02*
X556200Y349250D01*
D33*
X518320Y332900D02*
X441960Y332900D01*
X528320Y342900D02*
X556200Y342900D01*
X528320Y342900D02*
X518320Y332900D01*
X426720Y352900D02*
X414020Y352900D01*
X426720Y352900D02*
X441960Y352900D01*
X426720Y330040D02*
X441960Y314800D01*
X426720Y330040D02*
X426720Y352900D01*
X368140Y340360D02*
X365600Y337820D01*
X368140Y340360D02*
X383540Y340360D01*
D31*
X383540Y340360D03*
X414020Y365760D03*
D33*
X414020Y352900D01*
X414020Y332900D02*
X414020Y313760D01*
D29*
X612200Y323850D02*
X612200Y330200D01*
X612200Y336550D01*
D33*
X548860Y266860D02*
X497840Y266860D01*
X548860Y266860D02*
X612200Y330200D01*
X469900Y266860D02*
X469900Y247720D01*
X482600Y286860D02*
X497840Y286860D01*
X482600Y286860D02*
X469900Y286860D01*
X482600Y264000D02*
X497840Y248760D01*
X482600Y264000D02*
X482600Y286860D01*
X388620Y378460D02*
X365600Y378460D01*
X388620Y378460D02*
X396240Y370840D01*
X396240Y307340D01*
X469900Y302260D02*
X469900Y286860D01*
X469900Y302260D02*
X467360Y304800D01*
X398780Y304800D01*
X396240Y307340D01*
X345600Y297180D02*
X345600Y287020D01*
X345600Y276860D01*
X335440Y276860D02*
X297180Y276860D01*
X335440Y276860D02*
X345600Y287020D01*
X345600Y358140D02*
X345600Y378460D01*
X345600Y358140D02*
X330200Y358140D01*
X309880Y337820D01*
X309880Y327660D01*
X297180Y327660D01*
X345600Y325120D02*
X345600Y317500D01*
X345600Y325120D02*
X345600Y337820D01*
X320040Y325120D02*
X297180Y302260D01*
X320040Y325120D02*
X345600Y325120D01*
D30*
X144780Y276860D02*
X127000Y294640D01*
X127000Y297180D01*
X96520Y297180D01*
X83820Y284480D01*
X83820Y167640D01*
X114300Y137160D01*
X193040Y137160D01*
X193040Y121920D01*
X142240Y121920D02*
X114300Y121920D01*
X76200Y160020D02*
X76200Y284480D01*
X93980Y302260D01*
X144780Y302260D01*
X76200Y160020D02*
X114300Y121920D01*
M02*
