G04 EAGLE Gerber RS-274X export*
G75*
%MOMM*%
%FSLAX34Y34*%
%LPD*%
%INSoldermask Top*%
%IPPOS*%
%AMOC8*
5,1,8,0,0,1.08239X$1,22.5*%
G01*
%ADD10C,3.827000*%
%ADD11R,1.527000X1.227000*%
%ADD12R,1.227000X1.527000*%
%ADD13P,2.061953X8X22.500000*%
%ADD14C,1.905000*%
%ADD15P,2.061953X8X292.500000*%
%ADD16R,0.957000X0.757000*%
%ADD17R,1.127000X1.527000*%
%ADD18R,2.832100X2.832100*%
%ADD19C,2.832100*%
%ADD20C,4.140200*%
%ADD21C,1.807000*%
%ADD22R,2.752000X2.752000*%
%ADD23C,2.752000*%
%ADD24C,2.006600*%
%ADD25R,0.787400X1.397000*%
%ADD26R,1.397000X0.787400*%
%ADD27R,1.527000X0.577000*%
%ADD28R,3.527000X5.127000*%
%ADD29C,0.627000*%
%ADD30R,1.327000X0.727000*%
%ADD31C,0.731000*%

G36*
X570614Y408846D02*
X570614Y408846D01*
X570620Y408844D01*
X570716Y408854D01*
X570727Y408860D01*
X570741Y408859D01*
X570833Y408887D01*
X570842Y408894D01*
X570856Y408896D01*
X570941Y408942D01*
X570949Y408951D01*
X570961Y408955D01*
X571036Y409017D01*
X571042Y409027D01*
X571054Y409034D01*
X571115Y409109D01*
X571118Y409120D01*
X571128Y409129D01*
X571174Y409214D01*
X571175Y409226D01*
X571183Y409237D01*
X571211Y409329D01*
X571210Y409341D01*
X571216Y409354D01*
X571226Y409450D01*
X571224Y409456D01*
X571226Y409462D01*
X571226Y443978D01*
X571224Y443984D01*
X571226Y443990D01*
X571216Y444086D01*
X571210Y444097D01*
X571211Y444111D01*
X571183Y444203D01*
X571176Y444212D01*
X571174Y444226D01*
X571128Y444311D01*
X571119Y444319D01*
X571115Y444331D01*
X571054Y444406D01*
X571048Y444409D01*
X571046Y444413D01*
X571041Y444415D01*
X571036Y444424D01*
X570961Y444485D01*
X570950Y444488D01*
X570941Y444498D01*
X570856Y444544D01*
X570844Y444545D01*
X570833Y444553D01*
X570741Y444581D01*
X570729Y444580D01*
X570716Y444586D01*
X570620Y444596D01*
X570614Y444594D01*
X570608Y444596D01*
X546992Y444596D01*
X546986Y444594D01*
X546980Y444596D01*
X546884Y444586D01*
X546873Y444580D01*
X546859Y444581D01*
X546767Y444553D01*
X546758Y444546D01*
X546744Y444544D01*
X546659Y444498D01*
X546651Y444489D01*
X546639Y444485D01*
X546564Y444424D01*
X546558Y444413D01*
X546553Y444410D01*
X546549Y444408D01*
X546548Y444407D01*
X546547Y444406D01*
X546485Y444331D01*
X546482Y444320D01*
X546472Y444311D01*
X546426Y444226D01*
X546425Y444214D01*
X546417Y444203D01*
X546389Y444111D01*
X546390Y444099D01*
X546384Y444086D01*
X546374Y443990D01*
X546376Y443984D01*
X546374Y443978D01*
X546374Y409462D01*
X546376Y409456D01*
X546374Y409450D01*
X546384Y409354D01*
X546389Y409345D01*
X546390Y409342D01*
X546389Y409329D01*
X546417Y409237D01*
X546424Y409228D01*
X546426Y409214D01*
X546472Y409129D01*
X546481Y409121D01*
X546485Y409109D01*
X546547Y409034D01*
X546557Y409028D01*
X546564Y409017D01*
X546639Y408955D01*
X546650Y408952D01*
X546659Y408942D01*
X546744Y408896D01*
X546756Y408895D01*
X546767Y408887D01*
X546859Y408859D01*
X546871Y408860D01*
X546884Y408854D01*
X546980Y408844D01*
X546986Y408846D01*
X546992Y408844D01*
X570608Y408844D01*
X570614Y408846D01*
G37*
G36*
X481395Y393712D02*
X481395Y393712D01*
X481461Y393714D01*
X481504Y393732D01*
X481551Y393740D01*
X481608Y393774D01*
X481668Y393799D01*
X481703Y393830D01*
X481744Y393855D01*
X481786Y393906D01*
X481834Y393950D01*
X481856Y393992D01*
X481885Y394029D01*
X481906Y394091D01*
X481937Y394150D01*
X481945Y394204D01*
X481957Y394241D01*
X481956Y394281D01*
X481964Y394335D01*
X481964Y398145D01*
X481953Y398210D01*
X481951Y398276D01*
X481933Y398319D01*
X481925Y398366D01*
X481891Y398423D01*
X481866Y398483D01*
X481835Y398518D01*
X481810Y398559D01*
X481759Y398601D01*
X481715Y398649D01*
X481673Y398671D01*
X481636Y398700D01*
X481574Y398721D01*
X481515Y398752D01*
X481461Y398760D01*
X481424Y398772D01*
X481384Y398771D01*
X481330Y398779D01*
X478790Y398779D01*
X478725Y398768D01*
X478659Y398766D01*
X478616Y398748D01*
X478569Y398740D01*
X478512Y398706D01*
X478452Y398681D01*
X478417Y398650D01*
X478376Y398625D01*
X478335Y398574D01*
X478286Y398530D01*
X478264Y398488D01*
X478235Y398451D01*
X478214Y398389D01*
X478183Y398330D01*
X478175Y398276D01*
X478163Y398239D01*
X478163Y398235D01*
X478163Y398234D01*
X478164Y398199D01*
X478156Y398145D01*
X478156Y394335D01*
X478167Y394270D01*
X478169Y394204D01*
X478187Y394161D01*
X478195Y394114D01*
X478229Y394057D01*
X478254Y393997D01*
X478285Y393962D01*
X478310Y393921D01*
X478361Y393880D01*
X478405Y393831D01*
X478447Y393809D01*
X478484Y393780D01*
X478546Y393759D01*
X478605Y393728D01*
X478659Y393720D01*
X478696Y393708D01*
X478736Y393709D01*
X478790Y393701D01*
X481330Y393701D01*
X481395Y393712D01*
G37*
G36*
X588710Y475627D02*
X588710Y475627D01*
X588776Y475629D01*
X588819Y475647D01*
X588866Y475655D01*
X588923Y475689D01*
X588983Y475714D01*
X589018Y475745D01*
X589059Y475770D01*
X589101Y475821D01*
X589149Y475865D01*
X589171Y475907D01*
X589200Y475944D01*
X589221Y476006D01*
X589252Y476065D01*
X589260Y476119D01*
X589272Y476156D01*
X589271Y476196D01*
X589279Y476250D01*
X589279Y478790D01*
X589268Y478855D01*
X589266Y478921D01*
X589248Y478964D01*
X589240Y479011D01*
X589206Y479068D01*
X589181Y479128D01*
X589150Y479163D01*
X589125Y479204D01*
X589074Y479246D01*
X589030Y479294D01*
X588988Y479316D01*
X588951Y479345D01*
X588889Y479366D01*
X588830Y479397D01*
X588776Y479405D01*
X588739Y479417D01*
X588699Y479416D01*
X588645Y479424D01*
X584835Y479424D01*
X584770Y479413D01*
X584704Y479411D01*
X584661Y479393D01*
X584614Y479385D01*
X584557Y479351D01*
X584497Y479326D01*
X584462Y479295D01*
X584421Y479270D01*
X584380Y479219D01*
X584331Y479175D01*
X584309Y479133D01*
X584280Y479096D01*
X584259Y479034D01*
X584228Y478975D01*
X584220Y478921D01*
X584208Y478884D01*
X584208Y478881D01*
X584209Y478844D01*
X584201Y478790D01*
X584201Y476250D01*
X584212Y476185D01*
X584214Y476119D01*
X584232Y476076D01*
X584240Y476029D01*
X584274Y475972D01*
X584299Y475912D01*
X584330Y475877D01*
X584355Y475836D01*
X584406Y475795D01*
X584450Y475746D01*
X584492Y475724D01*
X584529Y475695D01*
X584591Y475674D01*
X584650Y475643D01*
X584704Y475635D01*
X584741Y475623D01*
X584781Y475624D01*
X584835Y475616D01*
X588645Y475616D01*
X588710Y475627D01*
G37*
D10*
X195580Y294640D03*
X655320Y294640D03*
D11*
X614680Y442120D03*
X614680Y462120D03*
X635000Y462120D03*
X635000Y442120D03*
D12*
X652940Y467360D03*
X672940Y467360D03*
X383700Y403860D03*
X403700Y403860D03*
X363060Y403860D03*
X343060Y403860D03*
D13*
X612140Y264160D03*
D14*
X586740Y264160D03*
D15*
X548640Y55880D03*
D14*
X548640Y81280D03*
D15*
X426720Y177800D03*
D14*
X426720Y203200D03*
D15*
X353060Y208280D03*
D14*
X353060Y233680D03*
D16*
X414020Y313760D03*
X414020Y290760D03*
X469900Y247720D03*
X469900Y224720D03*
D17*
X373380Y445340D03*
X382880Y423340D03*
X363880Y423340D03*
D18*
X746760Y436880D03*
D19*
X746760Y394970D03*
X746760Y352806D03*
X691642Y436880D03*
X691642Y394970D03*
X691642Y352806D03*
D20*
X819658Y436880D03*
X819658Y352806D03*
D21*
X539700Y192520D03*
X539700Y192520D03*
D22*
X571500Y172720D03*
D23*
X571500Y212320D03*
D24*
X325120Y134620D03*
X325120Y109220D03*
X325120Y83820D03*
X325120Y58420D03*
X325120Y33020D03*
X142240Y121920D03*
X167640Y121920D03*
X193040Y121920D03*
X218440Y121920D03*
D25*
X571246Y477520D03*
X581660Y477520D03*
X592074Y477520D03*
D26*
X480060Y380746D03*
X480060Y391160D03*
X480060Y401574D03*
D11*
X452120Y381160D03*
X452120Y401160D03*
X469900Y286860D03*
X469900Y266860D03*
X497840Y286860D03*
X497840Y266860D03*
X497840Y228760D03*
X497840Y248760D03*
D12*
X365600Y378460D03*
X345600Y378460D03*
X365600Y358140D03*
X345600Y358140D03*
X365600Y337820D03*
X345600Y337820D03*
X365600Y317500D03*
X345600Y317500D03*
X365600Y297180D03*
X345600Y297180D03*
X365600Y276860D03*
X345600Y276860D03*
X424020Y429260D03*
X404020Y429260D03*
X404020Y449580D03*
X424020Y449580D03*
D11*
X454660Y482440D03*
X454660Y462440D03*
X474980Y482440D03*
X474980Y462440D03*
D12*
X480220Y360680D03*
X500220Y360680D03*
D11*
X441960Y352900D03*
X441960Y332900D03*
X414020Y352900D03*
X414020Y332900D03*
X441960Y294800D03*
X441960Y314800D03*
D24*
X144780Y454660D03*
X144780Y429260D03*
X144780Y403860D03*
X144780Y378460D03*
X144780Y353060D03*
X144780Y327660D03*
X144780Y302260D03*
X144780Y276860D03*
X144780Y251460D03*
X144780Y226060D03*
X144780Y200660D03*
X144780Y175260D03*
X297180Y175260D03*
X297180Y200660D03*
X297180Y226060D03*
X297180Y251460D03*
X297180Y276860D03*
X297180Y302260D03*
X297180Y327660D03*
X297180Y353060D03*
X297180Y378460D03*
X297180Y403860D03*
X297180Y429260D03*
X297180Y454660D03*
D27*
X529300Y449470D03*
X529300Y442970D03*
X529300Y436470D03*
X529300Y429970D03*
X529300Y423470D03*
X529300Y416970D03*
X529300Y410470D03*
X529300Y403970D03*
X588300Y403970D03*
X588300Y410470D03*
X588300Y416970D03*
X588300Y423470D03*
X588300Y429970D03*
X588300Y436470D03*
X588300Y442970D03*
X588300Y449470D03*
D28*
X559054Y426720D03*
D29*
X558800Y426720D03*
X558800Y417220D03*
X558800Y436220D03*
X558800Y445720D03*
X558800Y407720D03*
X572300Y407720D03*
X572300Y445720D03*
X572300Y436220D03*
X572300Y417220D03*
X572300Y426720D03*
X545300Y426720D03*
X545300Y417220D03*
X545300Y436220D03*
X545300Y445720D03*
X545300Y407720D03*
D30*
X556200Y349250D03*
X556200Y336550D03*
X556200Y323850D03*
X556200Y311150D03*
X612200Y311150D03*
X612200Y323850D03*
X612200Y336550D03*
X612200Y349250D03*
D31*
X576580Y393700D03*
X556260Y302260D03*
X518160Y360680D03*
X688340Y467360D03*
X601980Y477520D03*
X548640Y444500D03*
X566420Y444500D03*
X548640Y429260D03*
X566420Y429260D03*
X548640Y414020D03*
X566420Y411480D03*
X495300Y482600D03*
X381000Y276860D03*
X381000Y317500D03*
X381000Y358140D03*
X327660Y403860D03*
X414020Y276860D03*
X452120Y368300D03*
X360680Y444500D03*
X419100Y403860D03*
X497840Y213360D03*
X619760Y421640D03*
X637540Y474980D03*
X571500Y464820D03*
X718820Y464820D03*
X337820Y423340D03*
X438471Y430300D03*
X322580Y436880D03*
X383540Y340360D03*
X414020Y365760D03*
M02*
