G04 EAGLE Gerber RS-274X export*
G75*
%MOMM*%
%FSLAX34Y34*%
%LPD*%
%INSoldermask Bottom*%
%IPPOS*%
%AMOC8*
5,1,8,0,0,1.08239X$1,22.5*%
G01*
%ADD10C,3.827000*%
%ADD11P,2.061953X8X22.500000*%
%ADD12C,1.905000*%
%ADD13P,2.061953X8X292.500000*%
%ADD14R,2.832100X2.832100*%
%ADD15C,2.832100*%
%ADD16C,4.140200*%
%ADD17C,1.807000*%
%ADD18R,2.752000X2.752000*%
%ADD19C,2.752000*%
%ADD20C,2.006600*%
%ADD21C,0.731000*%


D10*
X195580Y294640D03*
X655320Y294640D03*
D11*
X612140Y264160D03*
D12*
X586740Y264160D03*
D13*
X548640Y55880D03*
D12*
X548640Y81280D03*
D13*
X426720Y177800D03*
D12*
X426720Y203200D03*
D13*
X353060Y208280D03*
D12*
X353060Y233680D03*
D14*
X746760Y436880D03*
D15*
X746760Y394970D03*
X746760Y352806D03*
X691642Y436880D03*
X691642Y394970D03*
X691642Y352806D03*
D16*
X819658Y436880D03*
X819658Y352806D03*
D17*
X539700Y192520D03*
X539700Y192520D03*
D18*
X571500Y172720D03*
D19*
X571500Y212320D03*
D20*
X325120Y134620D03*
X325120Y109220D03*
X325120Y83820D03*
X325120Y58420D03*
X325120Y33020D03*
X142240Y121920D03*
X167640Y121920D03*
X193040Y121920D03*
X218440Y121920D03*
X144780Y454660D03*
X144780Y429260D03*
X144780Y403860D03*
X144780Y378460D03*
X144780Y353060D03*
X144780Y327660D03*
X144780Y302260D03*
X144780Y276860D03*
X144780Y251460D03*
X144780Y226060D03*
X144780Y200660D03*
X144780Y175260D03*
X297180Y175260D03*
X297180Y200660D03*
X297180Y226060D03*
X297180Y251460D03*
X297180Y276860D03*
X297180Y302260D03*
X297180Y327660D03*
X297180Y353060D03*
X297180Y378460D03*
X297180Y403860D03*
X297180Y429260D03*
X297180Y454660D03*
D21*
X576580Y393700D03*
X556260Y302260D03*
X518160Y360680D03*
X688340Y467360D03*
X601980Y477520D03*
X548640Y444500D03*
X566420Y444500D03*
X548640Y429260D03*
X566420Y429260D03*
X548640Y414020D03*
X566420Y411480D03*
X495300Y482600D03*
X381000Y276860D03*
X381000Y317500D03*
X381000Y358140D03*
X327660Y403860D03*
X414020Y276860D03*
X452120Y368300D03*
X360680Y444500D03*
X419100Y403860D03*
X497840Y213360D03*
X619760Y421640D03*
X637540Y474980D03*
X571500Y464820D03*
X718820Y464820D03*
X337820Y423340D03*
X438471Y430300D03*
X322580Y436880D03*
X383540Y340360D03*
X414020Y365760D03*
M02*
