M48
;GenerationSoftware,Autodesk,EAGLE,9.6.2*%
;CreationDate,2022-11-21T02:08:29Z*%
FMAT,2
ICI,OFF
METRIC,TZ,000.000
T8C0.350
T7C0.813
T6C1.016
T5C1.680
T4C1.750
T3C1.803
T2C2.997
T1C3.700
%
G90
M71
T1
X65532Y29464
X19558Y29464
T2
X81966Y35281
X81966Y43688
T3
X74676Y43688
X69164Y35281
X69164Y39497
X69164Y43688
X74676Y35281
X74676Y39497
T4
X57150Y21232
X57150Y17272
T5
X53970Y19252
X53970Y19252
T6
X29718Y45466
X29718Y42926
X29718Y40386
X29718Y37846
X29718Y35306
X29718Y32766
X29718Y30226
X29718Y27686
X29718Y25146
X29718Y22606
X29718Y20066
X29718Y17526
X14478Y17526
X14478Y20066
X14478Y22606
X14478Y25146
X14478Y27686
X14478Y30226
X14478Y32766
X14478Y35306
X32512Y10922
X32512Y8382
X32512Y13462
X32512Y5842
X32512Y3302
X14224Y12192
X16764Y12192
X19304Y12192
X14478Y37846
X14478Y40386
X14478Y42926
X14478Y45466
X21844Y12192
T7
X35306Y23368
X35306Y20828
X42672Y20320
X42672Y17780
X54864Y8128
X54864Y5588
X61214Y26416
X58674Y26416
T8
X55626Y30226
X51816Y36068
X68834Y46736
X60198Y47752
X54864Y44450
X56642Y44450
X54864Y42926
X56642Y42926
X54864Y41402
X38100Y35814
X56642Y41148
X49530Y48260
X38100Y27686
X38100Y31750
X41402Y36576
X38354Y34036
X32258Y43688
X43847Y43030
X33782Y42334
X71882Y46482
X57150Y46482
X63754Y47498
X61976Y42164
X49784Y21336
X41910Y40386
X36068Y44450
X45212Y36830
X41402Y27686
X32766Y40386
X57658Y39370
M30